<svg width="18" height="18" viewBox="0 0 18 18" fill="none" xmlns="http://www.w3.org/2000/svg">
  <path fill-rule="evenodd" clip-rule="evenodd" d="M9.92677 0.00271038C10.4021 -0.03219 10.836 0.273183 10.9635 0.732382L13.094 8.40217L13.4453 8.16798C13.6096 8.05846 13.8026 8.00003 14 8.00003H17C17.5523 8.00003 18 8.44774 18 9.00003C18 9.55231 17.5523 10 17 10H14.3028L13.0547 10.8321C12.7879 11.0099 12.4521 11.0491 12.1515 10.9374C11.851 10.8256 11.6223 10.5766 11.5365 10.2677L10.3729 6.07887L8.99228 17.1241C8.93316 17.597 8.54854 17.9624 8.07323 17.9973C7.59793 18.0322 7.16404 17.7269 7.03648 17.2677L4.90599 9.59789L4.5547 9.83208C4.39043 9.94159 4.19742 10 4 10H1C0.447715 10 0 9.55231 0 9.00003C0 8.44774 0.447715 8.00003 1 8.00003H3.69722L4.9453 7.16797C5.21207 6.99013 5.54794 6.95098 5.84846 7.0627C6.14898 7.17442 6.37771 7.42346 6.46352 7.73238L7.62707 11.9212L9.00772 0.875991C9.06684 0.403086 9.45146 0.0376109 9.92677 0.00271038Z" fill="#A69D9D"/>
</svg>
