<svg width="18" height="18" viewBox="0 0 18 18" fill="none" xmlns="http://www.w3.org/2000/svg">
<path fillRule="evenodd" clipRule="evenodd" d="M9 4C6.79086 4 5 5.79086 5 8V12H13V8C13 5.79086 11.2091 4 9 4ZM3 8C3 4.68629 5.68629 2 9 2C12.3137 2 15 4.68629 15 8V14H3V8Z" fill="currentColor"/>
<path fillRule="evenodd" clipRule="evenodd" d="M11.2321 15.134C11.7104 15.4102 11.8743 16.0218 11.5981 16.5C11.3348 16.9561 10.9561 17.3348 10.5 17.5981C10.044 17.8614 9.52665 18 9.00004 18C8.47343 18 7.9561 17.8614 7.50004 17.5981C7.04398 17.3348 6.66527 16.9561 6.40196 16.5C6.12582 16.0218 6.2897 15.4102 6.76799 15.134C7.24628 14.8579 7.85787 15.0218 8.13401 15.5C8.22178 15.6521 8.34802 15.7783 8.50004 15.8661C8.65206 15.9538 8.8245 16 9.00004 16C9.17558 16 9.34802 15.9538 9.50004 15.8661C9.65206 15.7783 9.7783 15.6521 9.86607 15.5C10.1422 15.0218 10.7538 14.8579 11.2321 15.134Z" fill="currentColor"/>
<path fillRule="evenodd" clipRule="evenodd" d="M2 13C2 12.4477 2.44772 12 3 12H15C15.5523 12 16 12.4477 16 13C16 13.5523 15.5523 14 15 14H3C2.44772 14 2 13.5523 2 13Z" fill="currentColor"/>
<path fillRule="evenodd" clipRule="evenodd" d="M9 0C9.55228 0 10 0.447715 10 1V2C10 2.55228 9.55228 3 9 3C8.44772 3 8 2.55228 8 2V1C8 0.447715 8.44772 0 9 0Z" fill="currentColor"/>
</svg>
