<svg width="18" height="18" viewBox="0 0 18 18" fill="none" xmlns="http://www.w3.org/2000/svg">
<path fill-rule="evenodd" clip-rule="evenodd" d="M3 0C3.55228 0 4 0.447715 4 1H15C15.4045 1 15.7691 1.24364 15.9239 1.61732C16.0787 1.99099 15.9931 2.42111 15.7071 2.70711L12.4142 6L15.7071 9.29289C15.9931 9.57889 16.0787 10.009 15.9239 10.3827C15.7691 10.7564 15.4045 11 15 11H4V17C4 17.5523 3.55228 18 3 18C2.44772 18 2 17.5523 2 17V1C2 0.447715 2.44772 0 3 0ZM4 9H12.5858L10.2929 6.70711C9.90237 6.31658 9.90237 5.68342 10.2929 5.29289L12.5858 3H4V9Z" fill="currentColor"/>
</svg>
