<svg width="18" height="18" viewBox="0 0 18 18" fill="none" xmlns="http://www.w3.org/2000/svg">
<path fill-rule="evenodd" clip-rule="evenodd" d="M9 11.5C9.55228 11.5 10 11.0523 10 10.5V8.5C10 7.94772 9.55228 7.5 9 7.5C8.44772 7.5 8 7.94772 8 8.5V10.5C8 11.0523 8.44772 11.5 9 11.5Z" fill="currentColor"/>
<path d="M10 13C10 12.4477 9.55228 12 9 12C8.44772 12 8 12.4477 8 13C8 13.5523 8.44772 14 9 14C9.55228 14 10 13.5523 10 13Z" fill="currentColor"/>
<path fill-rule="evenodd" clip-rule="evenodd" d="M9 12C9.55228 12 10 12.4477 10 13C10 13.5523 9.55228 14 9 14C8.44772 14 8 13.5523 8 13C8 12.4477 8.44772 12 9 12Z" fill="currentColor"/>
<path fill-rule="evenodd" clip-rule="evenodd" d="M9 1C9.35886 1 9.6902 1.19229 9.86824 1.50386L17.8682 15.5039C18.0451 15.8134 18.0438 16.1936 17.8649 16.5019C17.686 16.8102 17.3565 17 17 17H1C0.64353 17 0.314012 16.8102 0.13509 16.5019C-0.043832 16.1936 -0.045102 15.8134 0.131757 15.5039L8.13176 1.50386C8.3098 1.19229 8.64114 1 9 1ZM2.72318 15H15.2768L9 4.01556L2.72318 15Z" fill="currentColor"/>
</svg>
