<svg width="18" height="18" viewBox="0 0 18 18" fill="none" xmlns="http://www.w3.org/2000/svg">
<path fillRule="evenodd" clipRule="evenodd" d="M3.33988 13.606C3.81657 13.884 4.37967 14 5 14C5.55228 14 6 13.5523 6 13C6 12.4477 5.55228 12 5 12C4.62033 12 4.43343 11.9285 4.34762 11.8784C4.27478 11.8359 4.21728 11.7767 4.16381 11.6564C4.01826 11.3289 4 10.8204 4 10C4 9.96887 4.00004 9.93709 4.00008 9.9047C4.00089 9.22998 4.00202 8.29233 3.66381 7.53136C3.46728 7.08917 3.14978 6.67967 2.66012 6.39403C2.18343 6.11596 1.62033 6 1 6C0.447715 6 0 6.44772 0 7C0 7.55228 0.447715 8 1 8C1.37967 8 1.56657 8.07154 1.65238 8.12159C1.72522 8.16408 1.78272 8.22333 1.83619 8.34364C1.98174 8.67114 2 9.17959 2 10C2 10.0311 1.99996 10.0629 1.99992 10.0953C1.99911 10.77 1.99798 11.7077 2.33619 12.4686C2.53272 12.9108 2.85022 13.3203 3.33988 13.606Z" fill="currentColor"/>
<path fillRule="evenodd" clipRule="evenodd" d="M3.33988 0.394034C3.81657 0.115964 4.37967 0 5 0C5.55228 0 6 0.447715 6 1C6 1.55228 5.55228 2 5 2C4.62033 2 4.43343 2.07154 4.34762 2.12159C4.27478 2.16408 4.21728 2.22333 4.16381 2.34364C4.01826 2.67114 4 3.17959 4 4C4 4.03113 4.00004 4.06291 4.00008 4.0953C4.00089 4.77002 4.00202 5.70767 3.66381 6.46864C3.46728 6.91083 3.14978 7.32033 2.66012 7.60597C2.18343 7.88404 1.62033 8 1 8C0.447715 8 0 7.55228 0 7C0 6.44772 0.447715 6 1 6C1.37967 6 1.56657 5.92846 1.65238 5.87841C1.72522 5.83592 1.78272 5.77667 1.83619 5.65636C1.98174 5.32886 2 4.82041 2 4C2 3.96887 1.99996 3.93709 1.99992 3.9047C1.99911 3.22998 1.99798 2.29233 2.33619 1.53136C2.53272 1.08917 2.85022 0.679671 3.33988 0.394034Z" fill="currentColor"/>
<path fillRule="evenodd" clipRule="evenodd" d="M14.6601 0.394034C14.1834 0.115964 13.6203 0 13 0C12.4477 0 12 0.447715 12 1C12 1.55228 12.4477 2 13 2C13.3797 2 13.5666 2.07154 13.6524 2.12159C13.7252 2.16408 13.7827 2.22333 13.8362 2.34364C13.9817 2.67114 14 3.17959 14 4C14 4.03113 14 4.06291 13.9999 4.0953C13.9991 4.77002 13.998 5.70767 14.3362 6.46864C14.5327 6.91083 14.8502 7.32033 15.3399 7.60597C15.8166 7.88404 16.3797 8 17 8C17.5523 8 18 7.55228 18 7C18 6.44772 17.5523 6 17 6C16.6203 6 16.4334 5.92846 16.3476 5.87841C16.2748 5.83592 16.2173 5.77667 16.1638 5.65636C16.0183 5.32886 16 4.82041 16 4C16 3.96887 16 3.93709 16.0001 3.9047C16.0009 3.22998 16.002 2.29233 15.6638 1.53136C15.4673 1.08917 15.1498 0.679671 14.6601 0.394034Z" fill="currentColor"/>
<path fillRule="evenodd" clipRule="evenodd" d="M14.6601 13.606C14.1834 13.884 13.6203 14 13 14C12.4477 14 12 13.5523 12 13C12 12.4477 12.4477 12 13 12C13.3797 12 13.5666 11.9285 13.6524 11.8784C13.7252 11.8359 13.7827 11.7767 13.8362 11.6564C13.9817 11.3289 14 10.8204 14 10C14 9.96887 14 9.93709 13.9999 9.9047C13.9991 9.22998 13.998 8.29233 14.3362 7.53136C14.5327 7.08917 14.8502 6.67967 15.3399 6.39403C15.8166 6.11596 16.3797 6 17 6C17.5523 6 18 6.44772 18 7C18 7.55228 17.5523 8 17 8C16.6203 8 16.4334 8.07154 16.3476 8.12159C16.2748 8.16408 16.2173 8.22333 16.1638 8.34364C16.0183 8.67114 16 9.17959 16 10C16 10.0311 16 10.0629 16.0001 10.0953C16.0009 10.77 16.002 11.7077 15.6638 12.4686C15.4673 12.9108 15.1498 13.3203 14.6601 13.606Z" fill="currentColor"/>
<path d="M7 7C7 7.55228 6.55228 8 6 8C5.44772 8 5 7.55228 5 7C5 6.44772 5.44772 6 6 6C6.55228 6 7 6.44772 7 7Z" fill="currentColor"/>
<path d="M10 7C10 7.55228 9.55228 8 9 8C8.44772 8 8 7.55228 8 7C8 6.44772 8.44772 6 9 6C9.55228 6 10 6.44772 10 7Z" fill="currentColor"/>
<path d="M13 7C13 7.55228 12.5523 8 12 8C11.4477 8 11 7.55228 11 7C11 6.44772 11.4477 6 12 6C12.5523 6 13 6.44772 13 7Z" fill="currentColor"/>
</svg>
