<svg width="18" height="18" viewBox="0 0 18 18" fill="none" xmlns="http://www.w3.org/2000/svg">
<path fillRule="evenodd" clipRule="evenodd" d="M11.2929 3.29289C11.6834 2.90237 12.3166 2.90237 12.7071 3.29289L17.7071 8.29289C18.0976 8.68342 18.0976 9.31658 17.7071 9.70711L12.7071 14.7071C12.3166 15.0976 11.6834 15.0976 11.2929 14.7071C10.9024 14.3166 10.9024 13.6834 11.2929 13.2929L15.5858 9L11.2929 4.70711C10.9024 4.31658 10.9024 3.68342 11.2929 3.29289Z" fill="currentColor"/>
<path fillRule="evenodd" clipRule="evenodd" d="M18 9C18 8.44772 17.5523 8 17 8H1C0.447716 8 0 8.44772 0 9C0 9.55228 0.447716 10 1 10H17C17.5523 10 18 9.55228 18 9Z" fill="currentColor"/>
</svg>
