<svg width="18" height="18" viewBox="0 0 18 18" fill="none" xmlns="http://www.w3.org/2000/svg">
<path fillRule="evenodd" clipRule="evenodd" d="M6.70711 3.29289C6.31658 2.90237 5.68342 2.90237 5.29289 3.29289L0.292893 8.29289C-0.097631 8.68342 -0.097631 9.31658 0.292893 9.70711L5.29289 14.7071C5.68342 15.0976 6.31658 15.0976 6.70711 14.7071C7.09763 14.3166 7.09763 13.6834 6.70711 13.2929L2.41421 9L6.70711 4.70711C7.09763 4.31658 7.09763 3.68342 6.70711 3.29289Z" fill="currentColor"/>
<path fillRule="evenodd" clipRule="evenodd" d="M0 9C0 8.44772 0.447715 8 1 8H17C17.5523 8 18 8.44772 18 9C18 9.55228 17.5523 10 17 10H1C0.447715 10 0 9.55228 0 9Z" fill="currentColor"/>
</svg>
