<svg width="18" height="18" viewBox="0 0 18 18" fill="none" xmlns="http://www.w3.org/2000/svg">
<path fillRule="evenodd" clipRule="evenodd" d="M14.7071 11.2929C15.0976 11.6834 15.0976 12.3166 14.7071 12.7071L9.70711 17.7071C9.31658 18.0976 8.68342 18.0976 8.29289 17.7071L3.29289 12.7071C2.90237 12.3166 2.90237 11.6834 3.29289 11.2929C3.68342 10.9024 4.31658 10.9024 4.70711 11.2929L9 15.5858L13.2929 11.2929C13.6834 10.9024 14.3166 10.9024 14.7071 11.2929Z" fill="currentColor"/>
<path fillRule="evenodd" clipRule="evenodd" d="M9 18C9.55228 18 10 17.5523 10 17L10 1C10 0.447716 9.55228 -5.33895e-09 9 -1.19249e-08C8.44772 -1.85108e-08 8 0.447716 8 1L8 17C8 17.5523 8.44772 18 9 18Z" fill="currentColor"/>
</svg>
