<svg width="18" height="18" viewBox="0 0 18 18" fill="none" xmlns="http://www.w3.org/2000/svg">
<path fill-rule="evenodd" clip-rule="evenodd" d="M5.29289 3.29289C5.68342 2.90237 6.31658 2.90237 6.70711 3.29289L11.7071 8.29289C12.0976 8.68342 12.0976 9.31658 11.7071 9.70711L6.70711 14.7071C6.31658 15.0976 5.68342 15.0976 5.29289 14.7071C4.90237 14.3166 4.90237 13.6834 5.29289 13.2929L9.58579 9L5.29289 4.70711C4.90237 4.31658 4.90237 3.68342 5.29289 3.29289Z" fill="currentColor"/>
<path fill-rule="evenodd" clip-rule="evenodd" d="M11.2929 3.29289C11.6834 2.90237 12.3166 2.90237 12.7071 3.29289L17.7071 8.29289C18.0976 8.68342 18.0976 9.31658 17.7071 9.70711L12.7071 14.7071C12.3166 15.0976 11.6834 15.0976 11.2929 14.7071C10.9024 14.3166 10.9024 13.6834 11.2929 13.2929L15.5858 9L11.2929 4.70711C10.9024 4.31658 10.9024 3.68342 11.2929 3.29289Z" fill="currentColor"/>
<path fill-rule="evenodd" clip-rule="evenodd" d="M12 9C12 8.44772 11.5523 8 11 8H1C0.447715 8 0 8.44772 0 9C0 9.55228 0.447715 10 1 10H11C11.5523 10 12 9.55228 12 9Z" fill="currentColor"/>
</svg>
