<svg width="18" height="18" viewBox="0 0 18 18" fill="none" xmlns="http://www.w3.org/2000/svg">
<path fillRule="evenodd" clipRule="evenodd" d="M17 18C16.4477 18 16 17.5523 16 17L16 1C16 0.447716 16.4477 -1.95703e-08 17 -4.37114e-08C17.5523 -6.78525e-08 18 0.447716 18 1L18 17C18 17.5523 17.5523 18 17 18Z" fill="currentColor"/>
<path fillRule="evenodd" clipRule="evenodd" d="M-4.37114e-08 9C-6.78525e-08 8.44772 0.447715 8 1 8L13 8C13.5523 8 14 8.44771 14 9C14 9.55228 13.5523 10 13 10L1 10C0.447715 10 -1.95703e-08 9.55228 -4.37114e-08 9Z" fill="currentColor"/>
<path fillRule="evenodd" clipRule="evenodd" d="M7.29289 14.7071C6.90237 14.3166 6.90237 13.6834 7.29289 13.2929L12.2929 8.29289C12.6834 7.90237 13.3166 7.90237 13.7071 8.29289C14.0976 8.68342 14.0976 9.31658 13.7071 9.70711L8.70711 14.7071C8.31658 15.0976 7.68342 15.0976 7.29289 14.7071Z" fill="currentColor"/>
<path fillRule="evenodd" clipRule="evenodd" d="M7.29289 3.29289C6.90237 3.68342 6.90237 4.31658 7.29289 4.70711L12.2929 9.70711C12.6834 10.0976 13.3166 10.0976 13.7071 9.70711C14.0976 9.31658 14.0976 8.68342 13.7071 8.29289L8.70711 3.29289C8.31658 2.90237 7.68342 2.90237 7.29289 3.29289Z" fill="currentColor"/>
</svg>
