<svg width="18" height="18" viewBox="0 0 18 18" fill="none" xmlns="http://www.w3.org/2000/svg">
<path fillRule="evenodd" clipRule="evenodd" d="M2 2.60302V10.464C2.75731 10.2175 3.77322 10 5 10C6.22678 10 7.24269 10.2175 8 10.464V2.60302C7.88559 2.55183 7.75049 2.49606 7.59576 2.43979C6.9995 2.22297 6.11545 2 5 2C3.88455 2 3.0005 2.22297 2.40424 2.43979C2.24951 2.49606 2.11441 2.55183 2 2.60302ZM9 2L9.5547 1.16795C9.8329 1.35342 10 1.66565 10 2V12C10 12.3688 9.79702 12.7077 9.47186 12.8817C9.14856 13.0547 8.75666 13.0368 8.45057 12.8355L8.44925 12.8347C8.45014 12.8352 8.45012 12.8353 8.45057 12.8355C8.44881 12.8344 8.44705 12.8332 8.4453 12.8321L9 12C8.4453 12.8321 8.445 12.8319 8.4453 12.8321L8.44754 12.8335L8.44925 12.8347C8.44479 12.8319 8.43416 12.8252 8.41886 12.8161C8.38824 12.7979 8.3363 12.7681 8.264 12.7303C8.11924 12.6548 7.89395 12.5482 7.59576 12.4398C6.9995 12.223 6.11545 12 5 12C3.88455 12 3.0005 12.223 2.40424 12.4398C2.10605 12.5482 1.88076 12.6548 1.736 12.7303C1.6637 12.7681 1.61176 12.7979 1.58114 12.8161C1.56584 12.8252 1.55591 12.8314 1.55145 12.8343L1.55246 12.8335L1.55352 12.8328C1.55197 12.8339 1.55099 12.8345 1.54944 12.8355C1.24335 13.0368 0.851445 13.0547 0.528142 12.8817C0.202985 12.7077 0 12.3688 0 12V2C0 1.66565 0.167101 1.35342 0.4453 1.16795L1 2C0.4453 1.16795 0.444975 1.16817 0.4453 1.16795L0.446621 1.16707L0.448085 1.1661L0.45144 1.16388L0.459854 1.15839L0.483463 1.14328C0.5022 1.13145 0.52693 1.11616 0.557531 1.09793C0.618713 1.06148 0.703488 1.01319 0.810871 0.957165C1.02549 0.845189 1.33145 0.701773 1.72076 0.560207C2.4995 0.277028 3.61545 0 5 0C6.38455 0 7.5005 0.277028 8.27924 0.560207C8.66855 0.701773 8.97451 0.845189 9.18913 0.957165C9.29651 1.01319 9.38129 1.06148 9.44247 1.09793C9.47307 1.11616 9.4978 1.13145 9.51654 1.14328L9.54015 1.15839L9.54856 1.16388L9.55192 1.1661L9.55338 1.16707L9.5547 1.16795C9.55502 1.16817 9.5547 1.16795 9 2ZM1.54944 12.8355C1.54989 12.8352 1.55056 12.8348 1.55145 12.8343L1.54944 12.8355C1.54912 12.8357 1.54876 12.836 1.54944 12.8355Z" fill="currentColor"/>
<path fillRule="evenodd" clipRule="evenodd" d="M10 2.60302V10.464C10.7573 10.2175 11.7732 10 13 10C14.2268 10 15.2427 10.2175 16 10.464V2.60302C15.8856 2.55183 15.7505 2.49606 15.5958 2.43979C14.9995 2.22297 14.1155 2 13 2C11.8845 2 11.0005 2.22297 10.4042 2.43979C10.2495 2.49606 10.1144 2.55183 10 2.60302ZM17 2L17.5547 1.16795C17.8329 1.35342 18 1.66565 18 2V12C18 12.3688 17.797 12.7077 17.4719 12.8817C17.1486 13.0547 16.7567 13.0368 16.4506 12.8355L16.4492 12.8347C16.4501 12.8352 16.4501 12.8353 16.4506 12.8355C16.4488 12.8344 16.447 12.8332 16.4453 12.8321L17 12C16.4453 12.8321 16.445 12.8319 16.4453 12.8321L16.4475 12.8335L16.4492 12.8347C16.4448 12.8319 16.4342 12.8252 16.4189 12.8161C16.3882 12.7979 16.3363 12.7681 16.264 12.7303C16.1192 12.6548 15.894 12.5482 15.5958 12.4398C14.9995 12.223 14.1155 12 13 12C11.8845 12 11.0005 12.223 10.4042 12.4398C10.106 12.5482 9.88076 12.6548 9.736 12.7303C9.6637 12.7681 9.61176 12.7979 9.58114 12.8161C9.56584 12.8252 9.55591 12.8314 9.55145 12.8343L9.55246 12.8335L9.55352 12.8328C9.55197 12.8339 9.55099 12.8345 9.54944 12.8355C9.24335 13.0368 8.85145 13.0547 8.52814 12.8817C8.20298 12.7077 8 12.3688 8 12V2C8 1.66565 8.1671 1.35342 8.4453 1.16795L9 2C8.4453 1.16795 8.44498 1.16817 8.4453 1.16795L8.44662 1.16707L8.44809 1.1661L8.45144 1.16388L8.45985 1.15839L8.48346 1.14328C8.5022 1.13145 8.52693 1.11616 8.55753 1.09793C8.61871 1.06148 8.70349 1.01319 8.81087 0.957165C9.02549 0.845189 9.33145 0.701773 9.72076 0.560207C10.4995 0.277028 11.6155 0 13 0C14.3845 0 15.5005 0.277028 16.2792 0.560207C16.6686 0.701773 16.9745 0.845189 17.1891 0.957165C17.2965 1.01319 17.3813 1.06148 17.4425 1.09793C17.4731 1.11616 17.4978 1.13145 17.5165 1.14328L17.5401 1.15839L17.5486 1.16388L17.5519 1.1661L17.5534 1.16707L17.5547 1.16795C17.555 1.16817 17.5547 1.16795 17 2ZM9.54944 12.8355C9.54989 12.8352 9.55056 12.8348 9.55145 12.8343L9.54944 12.8355C9.54912 12.8357 9.54876 12.836 9.54944 12.8355Z" fill="currentColor"/>
<path fillRule="evenodd" clipRule="evenodd" d="M3.697 13.7171C3.30573 14.0976 2.68007 14.0943 2.29289 13.7071C1.90237 13.3166 1.90237 12.6834 2.29289 12.2929L2.99994 12.9999C2.29289 12.2929 2.29324 12.2925 2.2936 12.2922L2.29432 12.2915L2.29585 12.2899L2.29922 12.2866L2.30713 12.2789L2.32778 12.2592C2.34367 12.2443 2.36387 12.2259 2.38837 12.2045C2.43735 12.1616 2.5037 12.1066 2.5875 12.0438C2.75496 11.9182 2.99328 11.7603 3.30279 11.6056C3.92507 11.2944 4.82724 11 6 11C7.17276 11 8.07493 11.2944 8.69721 11.6056C9.00672 11.7603 9.24504 11.9182 9.4125 12.0438C9.4963 12.1066 9.56265 12.1616 9.61163 12.2045C9.63613 12.2259 9.65632 12.2443 9.67222 12.2592L9.69287 12.2789L9.70078 12.2866L9.70415 12.2899L9.70568 12.2915L9.7064 12.2922C9.70676 12.2925 9.70711 12.2929 9 13L9.70711 12.2929C10.0976 12.6834 10.0976 13.3166 9.70711 13.7071C9.31994 14.0943 8.69427 14.0976 8.30301 13.7171C8.303 13.7171 8.303 13.7171 8.303 13.7171C8.30148 13.7157 8.29869 13.7132 8.29462 13.7096C8.2811 13.6978 8.2537 13.6747 8.2125 13.6437C8.12996 13.5818 7.99328 13.4897 7.80279 13.3944C7.42507 13.2056 6.82724 13 6 13C5.17276 13 4.57493 13.2056 4.19721 13.3944C4.00672 13.4897 3.87004 13.5818 3.7875 13.6437C3.7463 13.6747 3.7189 13.6978 3.70538 13.7096C3.70131 13.7132 3.69852 13.7157 3.697 13.7171C3.697 13.7171 3.697 13.7171 3.697 13.7171ZM8.29434 13.7085C8.29421 13.7084 8.29409 13.7083 8.29397 13.7082L8.29423 13.7084L8.29434 13.7085ZM8.29357 13.7078C8.29357 13.7078 8.29357 13.7078 8.29357 13.7078L8.29365 13.7079C8.29362 13.7078 8.2936 13.7078 8.29357 13.7078Z" fill="currentColor"/>
<path fillRule="evenodd" clipRule="evenodd" d="M9.697 13.7171C9.30573 14.0976 8.68007 14.0943 8.29289 13.7071C7.90237 13.3166 7.90237 12.6834 8.29289 12.2929L8.99994 12.9999C8.29289 12.2929 8.29289 12.2929 8.29289 12.2929L8.29432 12.2915L8.29585 12.2899L8.29922 12.2866L8.30713 12.2789L8.32778 12.2592C8.34367 12.2443 8.36387 12.2259 8.38837 12.2045C8.43735 12.1616 8.5037 12.1066 8.5875 12.0438C8.75496 11.9182 8.99328 11.7603 9.30279 11.6056C9.92507 11.2944 10.8272 11 12 11C13.1728 11 14.0749 11.2944 14.6972 11.6056C15.0067 11.7603 15.245 11.9182 15.4125 12.0438C15.4963 12.1066 15.5627 12.1616 15.6116 12.2045C15.6361 12.2259 15.6563 12.2443 15.6722 12.2592L15.6929 12.2789L15.7008 12.2866L15.7041 12.2899L15.7057 12.2915L15.7064 12.2922C15.7064 12.2922 15.7071 12.2929 15 13L15.7064 12.2922C16.0969 12.6827 16.0976 13.3166 15.7071 13.7071C15.3199 14.0943 14.6943 14.0976 14.303 13.7171C14.3015 13.7157 14.2987 13.7132 14.2946 13.7096C14.2811 13.6978 14.2537 13.6747 14.2125 13.6437C14.13 13.5818 13.9933 13.4897 13.8028 13.3944C13.4251 13.2056 12.8272 13 12 13C11.1728 13 10.5749 13.2056 10.1972 13.3944C10.0067 13.4897 9.87004 13.5818 9.7875 13.6437C9.7463 13.6747 9.7189 13.6978 9.70538 13.7096C9.70131 13.7132 9.69852 13.7157 9.697 13.7171Z" fill="currentColor"/>
</svg>
