<svg width="18" height="18" viewBox="0 0 18 18" fill="none" xmlns="http://www.w3.org/2000/svg">
<path fillRule="evenodd" clipRule="evenodd" d="M15.7071 9.70711C15.5196 9.89464 15.2652 10 15 10L3 10C2.44772 10 2 9.55228 2 9L2 6.81819C2 5.91846 2.18279 5.02831 2.53711 4.19884C2.89139 3.36945 3.40981 2.61787 4.06121 1.98621C4.71255 1.3546 5.48415 0.85516 6.33118 0.514938C7.17817 0.174736 8.08494 -2.61718e-07 9 -3.41715e-07C9.91505 -4.21712e-07 10.8218 0.174736 11.6688 0.514938C12.5159 0.855159 13.2874 1.3546 13.9388 1.98621C14.5902 2.61787 15.1086 3.36944 15.4629 4.19884C15.8172 5.02831 16 5.91846 16 6.81819L16 9C16 9.26522 15.8946 9.51957 15.7071 9.70711ZM14 8L14 6.81819C14 6.1898 13.8724 5.5668 13.6237 4.98448C13.3749 4.40209 13.0094 3.87088 12.5465 3.42201C12.0835 2.97307 11.5323 2.61539 10.9234 2.37083C10.3145 2.12625 9.66081 2 9 2C8.33919 2 7.68554 2.12625 7.07662 2.37083C6.46775 2.61539 5.91647 2.97307 5.45351 3.42201C4.99061 3.87088 4.62511 4.40209 4.37634 4.98448C4.1276 5.5668 4 6.1898 4 6.81819L4 8L14 8Z" fill="currentColor"/>
<path fillRule="evenodd" clipRule="evenodd" d="M2 9C2 8.44772 2.44772 8 3 8H15C15.5523 8 16 8.44772 16 9V12C16 12.5523 15.5523 13 15 13H3C2.44772 13 2 12.5523 2 12V9ZM4 10V11H14V10H4Z" fill="currentColor"/>
<path fillRule="evenodd" clipRule="evenodd" d="M0 13C0 11.8954 0.895431 11 2 11H16C17.1046 11 18 11.8954 18 13V17C18 17.5523 17.5523 18 17 18H1C0.447715 18 0 17.5523 0 17V13ZM16 13H2V16H16V13Z" fill="currentColor"/>
<path fillRule="evenodd" clipRule="evenodd" d="M9 6C9.55228 6 10 5.55228 10 5C10 4.44772 9.55228 4 9 4C8.44772 4 8 4.44772 8 5C8 5.55228 8.44772 6 9 6ZM9 7C10.1046 7 11 6.10457 11 5C11 3.89543 10.1046 3 9 3C7.89543 3 7 3.89543 7 5C7 6.10457 7.89543 7 9 7Z" fill="currentColor"/>
</svg>
