<svg width="18" height="18" viewBox="0 0 18 18" fill="none" xmlns="http://www.w3.org/2000/svg">
<path fillRule="evenodd" clipRule="evenodd" d="M1 17C0.447715 17 0 16.5523 0 16V12C0 11.4477 0.447715 11 1 11H5C5.55228 11 6 11.4477 6 12C6 12.5523 5.55228 13 5 13H2V16C2 16.5523 1.55228 17 1 17Z" fill="currentColor"/>
<path fillRule="evenodd" clipRule="evenodd" d="M17 1C17.5523 1 18 1.44772 18 2V6C18 6.55228 17.5523 7 17 7H13C12.4477 7 12 6.55228 12 6C12 5.44772 12.4477 5 13 5H16V2C16 1.44772 16.4477 1 17 1Z" fill="currentColor"/>
<path fillRule="evenodd" clipRule="evenodd" d="M8.16201 0.0391048C9.81613 -0.115589 11.4808 0.190586 12.9716 0.923718C14.4625 1.65685 15.7213 2.78833 16.6087 4.19283C16.9036 4.65973 16.7643 5.27737 16.2974 5.57236C15.8305 5.86736 15.2128 5.72799 14.9178 5.26109C14.2277 4.1687 13.2486 3.28866 12.0891 2.71845C10.9295 2.14823 9.63478 1.9101 8.34824 2.03042C7.06169 2.15073 5.83356 2.62481 4.79986 3.40013C3.76616 4.17546 2.96723 5.22178 2.49157 6.4232C2.28827 6.9367 1.70718 7.18817 1.19368 6.98486C0.680172 6.78156 0.428706 6.20047 0.63201 5.68696C1.24358 4.14228 2.27077 2.79702 3.59981 1.80017C4.92885 0.803323 6.50788 0.193799 8.16201 0.0391048Z" fill="currentColor"/>
<path fillRule="evenodd" clipRule="evenodd" d="M9.83799 17.9609C8.18387 18.1156 6.5192 17.8094 5.02837 17.0763C3.53754 16.3431 2.27872 15.2117 1.39135 13.8072C1.09636 13.3403 1.23572 12.7226 1.70262 12.4276C2.16952 12.1326 2.78716 12.272 3.08215 12.7389C3.77233 13.8313 4.75141 14.7113 5.91095 15.2816C7.07048 15.8518 8.36522 16.0899 9.65176 15.9696C10.9383 15.8493 12.1664 15.3752 13.2001 14.5999C14.2338 13.8245 15.0328 12.7782 15.5084 11.5768C15.7117 11.0633 16.2928 10.8118 16.8063 11.0151C17.3198 11.2184 17.5713 11.7995 17.368 12.313C16.7564 13.8577 15.7292 15.203 14.4002 16.1998C13.0711 17.1967 11.4921 17.8062 9.83799 17.9609Z" fill="currentColor"/>
</svg>
