<svg width="18" height="18" viewBox="0 0 18 18" fill="none" xmlns="http://www.w3.org/2000/svg">
  <path fill-rule="evenodd" clip-rule="evenodd" d="M17.5019 0.13509C17.8102 0.314012 18 0.64353 18 1V15C18 15.3565 17.8102 15.686 17.5019 15.8649C17.1936 16.0438 16.8134 16.0451 16.5039 15.8682L9.6837 11.971L0.889568 10.9939C0.383136 10.9376 0 10.5095 0 10V6C0 5.49045 0.383136 5.06239 0.889568 5.00612L9.6837 4.02899L16.5039 0.131757C16.8134 -0.045102 17.1936 -0.043832 17.5019 0.13509ZM16 2.72318L10.4961 5.86824C10.3775 5.93603 10.2462 5.97879 10.1104 5.99388L2 6.89504V9.10496L10.1104 10.0061C10.2462 10.0212 10.3775 10.064 10.4961 10.1318L16 13.2768V2.72318Z" fill="#A69D9D"/>
  <path fill-rule="evenodd" clip-rule="evenodd" d="M4 5C4.55228 5 5 5.44772 5 6V10.3496L6.73857 16H7V11C7 10.4477 7.44772 10 8 10C8.55228 10 9 10.4477 9 11V17C9 17.5523 8.55228 18 8 18H6C5.561 18 5.17333 17.7137 5.04422 17.2941L3.04422 10.7941C3.01491 10.6988 3 10.5997 3 10.5V6C3 5.44772 3.44772 5 4 5Z" fill="#A69D9D"/>
</svg>
