<svg width="18" height="18" viewBox="0 0 18 18" fill="none" xmlns="http://www.w3.org/2000/svg">
<path fillRule="evenodd" clipRule="evenodd" d="M6 6.10102C5.368 6.23003 4.76374 6.48077 4.22215 6.84265C3.39991 7.39206 2.75904 8.17295 2.38061 9.08658C2.00217 10.0002 1.90315 11.0055 2.09608 11.9755C2.289 12.9454 2.76521 13.8363 3.46447 14.5355C4.16373 15.2348 5.05465 15.711 6.02455 15.9039C6.99446 16.0969 7.99979 15.9978 8.91342 15.6194C9.82705 15.241 10.6079 14.6001 11.1574 13.7779C11.5192 13.2363 11.77 12.632 11.899 12H7C6.73479 12 6.48043 11.8946 6.2929 11.7071C6.10536 11.5196 6 11.2652 6 11V6.10102ZM3.11101 5.17971C4.26216 4.41054 5.61553 4 7 4C7.26522 4 7.51957 4.10536 7.70711 4.29289C7.89465 4.48043 8 4.73478 8 5V10H13C13.5523 10 14 10.4477 14 11C14 12.3845 13.5895 13.7378 12.8203 14.889C12.0511 16.0401 10.9579 16.9373 9.67879 17.4672C8.3997 17.997 6.99224 18.1356 5.63437 17.8655C4.2765 17.5954 3.02922 16.9287 2.05026 15.9497C1.07129 14.9708 0.404603 13.7235 0.134506 12.3656C-0.13559 11.0078 0.00303298 9.6003 0.532846 8.32122C1.06266 7.04213 1.95987 5.94888 3.11101 5.17971Z" fill="currentColor"/>
<path fillRule="evenodd" clipRule="evenodd" d="M11 8C10.4477 8 10 7.55228 10 7L10 1C10 0.447715 10.4477 -1.95703e-08 11 -4.37114e-08C11.9193 -8.38932e-08 12.8295 0.181061 13.6788 0.532843C14.5281 0.884626 15.2997 1.40024 15.9497 2.05025C16.5998 2.70026 17.1154 3.47194 17.4672 4.32122C17.8189 5.17049 18 6.08075 18 7C18 7.55228 17.5523 8 17 8L11 8ZM12 6L15.899 6C15.8353 5.68805 15.7418 5.38215 15.6194 5.08658C15.3681 4.47995 14.9998 3.92876 14.5355 3.46447C14.0712 3.00017 13.52 2.63188 12.9134 2.3806C12.6179 2.25817 12.3119 2.1647 12 2.10102L12 6Z" fill="currentColor"/>
<path fillRule="evenodd" clipRule="evenodd" d="M6 17V11H8V17H6Z" fill="currentColor"/>
</svg>
