<svg width="18" height="18" viewBox="0 0 18 18" fill="none" xmlns="http://www.w3.org/2000/svg">
<path fill-rule="evenodd" clip-rule="evenodd" d="M2.5 15C2.22386 15 2 15.2239 2 15.5C2 15.7761 2.22386 16 2.5 16C2.77614 16 3 15.7761 3 15.5C3 15.2239 2.77614 15 2.5 15ZM0 15.5C0 14.1193 1.11929 13 2.5 13C3.88071 13 5 14.1193 5 15.5C5 16.8807 3.88071 18 2.5 18C1.11929 18 0 16.8807 0 15.5Z" fill="currentColor"/>
<path fill-rule="evenodd" clip-rule="evenodd" d="M5.5 8C5.22386 8 5 8.22386 5 8.5C5 8.77614 5.22386 9 5.5 9C5.77614 9 6 8.77614 6 8.5C6 8.22386 5.77614 8 5.5 8ZM3 8.5C3 7.11929 4.11929 6 5.5 6C6.88071 6 8 7.11929 8 8.5C8 9.88071 6.88071 11 5.5 11C4.11929 11 3 9.88071 3 8.5Z" fill="currentColor"/>
<path fill-rule="evenodd" clip-rule="evenodd" d="M11.5 10C11.2239 10 11 10.2239 11 10.5C11 10.7761 11.2239 11 11.5 11C11.7761 11 12 10.7761 12 10.5C12 10.2239 11.7761 10 11.5 10ZM9 10.5C9 9.11929 10.1193 8 11.5 8C12.8807 8 14 9.11929 14 10.5C14 11.8807 12.8807 13 11.5 13C10.1193 13 9 11.8807 9 10.5Z" fill="currentColor"/>
<path fill-rule="evenodd" clip-rule="evenodd" d="M15.5 2C15.2239 2 15 2.22386 15 2.5C15 2.77614 15.2239 3 15.5 3C15.7761 3 16 2.77614 16 2.5C16 2.22386 15.7761 2 15.5 2ZM13 2.5C13 1.11929 14.1193 0 15.5 0C16.8807 0 18 1.11929 18 2.5C18 3.88071 16.8807 5 15.5 5C14.1193 5 13 3.88071 13 2.5Z" fill="currentColor"/>
<path fill-rule="evenodd" clip-rule="evenodd" d="M5.9138 10.4061L3.9138 14.9061L2.08618 14.0939L4.08618 9.59387L5.9138 10.4061Z" fill="currentColor"/>
<path fill-rule="evenodd" clip-rule="evenodd" d="M15.8779 4.47882L12.8779 9.97882L11.1221 9.02112L14.1221 3.52112L15.8779 4.47882Z" fill="currentColor"/>
<path fill-rule="evenodd" clip-rule="evenodd" d="M9.68372 10.9486L6.68372 9.94864L7.31617 8.05127L10.3162 9.05127L9.68372 10.9486Z" fill="currentColor"/>
</svg>
