<svg width="18" height="18" viewBox="0 0 18 18" fill="none" xmlns="http://www.w3.org/2000/svg">
<path fillRule="evenodd" clipRule="evenodd" d="M0 1C0 0.447715 0.447715 0 1 0H7C7.55229 0 8 0.447715 8 1V14C8 16.2091 6.20914 18 4 18C1.79086 18 0 16.2091 0 14V1ZM2 2V14C2 15.1046 2.89543 16 4 16C5.10457 16 6 15.1046 6 14V2H2Z" fill="currentColor"/>
<path fillRule="evenodd" clipRule="evenodd" d="M17.7071 10.2929C17.8946 10.4804 18 10.7348 18 11L18 17C18 17.5523 17.5523 18 17 18L4 18C3.44772 18 3 17.5523 3 17C3 16.4477 3.44771 16 4 16L16 16L16 12L11.5 12C10.9477 12 10.5 11.5523 10.5 11C10.5 10.4477 10.9477 10 11.5 10L17 10C17.2652 10 17.5196 10.1054 17.7071 10.2929Z" fill="currentColor"/>
<path fillRule="evenodd" clipRule="evenodd" d="M10.6126 1.78711C11.004 1.40211 11.6326 1.40473 12.0209 1.79296L16.2635 6.0356C16.6512 6.42325 16.6544 7.05075 16.2708 7.44242L6.71442 17.1997C6.32798 17.5943 5.69485 17.6009 5.30029 17.2145C4.90572 16.828 4.89914 16.1949 5.28558 15.8003L14.1495 6.75002L11.3079 3.90843L7.70122 7.45565C7.30747 7.84291 6.67432 7.83765 6.28706 7.44389C5.89979 7.05014 5.90506 6.41699 6.29881 6.02973L10.6126 1.78711Z" fill="currentColor"/>
<path d="M5 14C5 14.5523 4.55228 15 4 15C3.44772 15 3 14.5523 3 14C3 13.4477 3.44772 13 4 13C4.55228 13 5 13.4477 5 14Z" fill="currentColor"/>
<path fillRule="evenodd" clipRule="evenodd" d="M4 15C4.55228 15 5 14.5523 5 14C5 13.4477 4.55228 13 4 13C3.44772 13 3 13.4477 3 14C3 14.5523 3.44772 15 4 15Z" fill="currentColor"/>
<path fillRule="evenodd" clipRule="evenodd" d="M7 6H1V5H7V6Z" fill="currentColor"/>
<path fillRule="evenodd" clipRule="evenodd" d="M7 10H1V9H7V10Z" fill="currentColor"/>
</svg>
