<svg width="18" height="18" viewBox="0 0 18 18" fill="none" xmlns="http://www.w3.org/2000/svg">
<path fillRule="evenodd" clipRule="evenodd" d="M9 2C5.13401 2 2 5.13401 2 9C2 12.866 5.13401 16 9 16C12.866 16 16 12.866 16 9C16 5.13401 12.866 2 9 2ZM0 9C0 4.02944 4.02944 0 9 0C13.9706 0 18 4.02944 18 9C18 13.9706 13.9706 18 9 18C4.02944 18 0 13.9706 0 9Z" fill="currentColor"/>
<path fillRule="evenodd" clipRule="evenodd" d="M9 8C8.44772 8 8 8.44772 8 9C8 9.55228 8.44772 10 9 10C9.55228 10 10 9.55228 10 9C10 8.44772 9.55228 8 9 8ZM6 9C6 7.34315 7.34315 6 9 6C10.6569 6 12 7.34315 12 9C12 10.6569 10.6569 12 9 12C7.34315 12 6 10.6569 6 9Z" fill="currentColor"/>
<path fillRule="evenodd" clipRule="evenodd" d="M12.5356 5.46442C12.8034 5.73225 12.8969 6.12842 12.7772 6.48775L12.0701 8.60907C11.8954 9.13302 11.3291 9.41618 10.8051 9.24153C10.2812 9.06688 9.99804 8.50056 10.1727 7.97662L10.2473 7.75266L10.0234 7.82731C9.49944 8.00196 8.93312 7.7188 8.75847 7.19486C8.58383 6.67092 8.86699 6.1046 9.39093 5.92995L11.5122 5.22284C11.8716 5.10306 12.2678 5.19659 12.5356 5.46442Z" fill="currentColor"/>
<path fillRule="evenodd" clipRule="evenodd" d="M5.46442 12.5356C5.73225 12.8034 6.12842 12.8969 6.48775 12.7772L8.60907 12.0701C9.13302 11.8954 9.41618 11.3291 9.24153 10.8051C9.06688 10.2812 8.50056 9.99804 7.97662 10.1727L7.75266 10.2473L7.82731 10.0234C8.00196 9.49944 7.7188 8.93312 7.19486 8.75847C6.67092 8.58383 6.1046 8.86699 5.92995 9.39093L5.22284 11.5122C5.10306 11.8716 5.19659 12.2678 5.46442 12.5356Z" fill="currentColor"/>
<path fillRule="evenodd" clipRule="evenodd" d="M9 0C9.55228 0 10 0.447715 10 1V2.5C10 3.05228 9.55228 3.5 9 3.5C8.44772 3.5 8 3.05228 8 2.5V1C8 0.447715 8.44772 0 9 0Z" fill="currentColor"/>
<path fillRule="evenodd" clipRule="evenodd" d="M-4.37114e-08 9C-6.78525e-08 8.44772 0.447715 8 1 8L2.5 8C3.05228 8 3.5 8.44772 3.5 9C3.5 9.55228 3.05228 10 2.5 10L1 10C0.447715 10 -1.95703e-08 9.55228 -4.37114e-08 9Z" fill="currentColor"/>
<path fillRule="evenodd" clipRule="evenodd" d="M9 14.5C9.55228 14.5 10 14.9477 10 15.5V17C10 17.5523 9.55228 18 9 18C8.44772 18 8 17.5523 8 17V15.5C8 14.9477 8.44772 14.5 9 14.5Z" fill="currentColor"/>
<path fillRule="evenodd" clipRule="evenodd" d="M14.5 9C14.5 8.44772 14.9477 8 15.5 8L17 8C17.5523 8 18 8.44772 18 9C18 9.55228 17.5523 10 17 10L15.5 10C14.9477 10 14.5 9.55228 14.5 9Z" fill="currentColor"/>
</svg>
