<svg width="18" height="18" viewBox="0 0 18 18" fill="none" xmlns="http://www.w3.org/2000/svg">
<path fillRule="evenodd" clipRule="evenodd" d="M1 5C1 4.44772 1.44772 4 2 4H12C12.5523 4 13 4.44772 13 5V17C13 17.5523 12.5523 18 12 18H2C1.44772 18 1 17.5523 1 17V5ZM3 6V16H11V6H3Z" fill="currentColor"/>
<path fillRule="evenodd" clipRule="evenodd" d="M5 1C5 0.447715 5.44772 0 6 0H16C16.5523 0 17 0.447715 17 1V13C17 13.5523 16.5523 14 16 14H15C14.4477 14 14 13.5523 14 13C14 12.4477 14.4477 12 15 12V2H7C7 2.55228 6.55228 3 6 3C5.44772 3 5 2.55228 5 2V1Z" fill="currentColor"/>
</svg>
