<svg width="18" height="18" viewBox="0 0 18 18" fill="none" xmlns="http://www.w3.org/2000/svg">
<path fill-rule="evenodd" clip-rule="evenodd" d="M3 4C2.44772 4 2 4.44772 2 5C2 5.55228 2.44772 6 3 6C3.55228 6 4 5.55228 4 5C4 4.44772 3.55228 4 3 4ZM0 5C0 3.34315 1.34315 2 3 2C4.65685 2 6 3.34315 6 5C6 6.65685 4.65685 8 3 8C1.34315 8 0 6.65685 0 5Z" fill="currentColor"/>
<path fill-rule="evenodd" clip-rule="evenodd" d="M7 4C6.44772 4 6 4.44772 6 5C6 5.55228 6.44772 6 7 6C7.55228 6 8 5.55228 8 5C8 4.44772 7.55228 4 7 4ZM4 5C4 3.34315 5.34315 2 7 2C8.65685 2 10 3.34315 10 5C10 6.65685 8.65685 8 7 8C5.34315 8 4 6.65685 4 5Z" fill="currentColor"/>
<path fill-rule="evenodd" clip-rule="evenodd" d="M11 4C10.4477 4 10 4.44772 10 5C10 5.55228 10.4477 6 11 6C11.5523 6 12 5.55228 12 5C12 4.44772 11.5523 4 11 4ZM8 5C8 3.34315 9.34315 2 11 2C12.6569 2 14 3.34315 14 5C14 6.65685 12.6569 8 11 8C9.34315 8 8 6.65685 8 5Z" fill="currentColor"/>
<path fill-rule="evenodd" clip-rule="evenodd" d="M15 12C14.4477 12 14 12.4477 14 13C14 13.5523 14.4477 14 15 14C15.5523 14 16 13.5523 16 13C16 12.4477 15.5523 12 15 12ZM12 13C12 11.3431 13.3431 10 15 10C16.6569 10 18 11.3431 18 13C18 14.6569 16.6569 16 15 16C13.3431 16 12 14.6569 12 13Z" fill="currentColor"/>
<path fill-rule="evenodd" clip-rule="evenodd" d="M3 12C2.44772 12 2 12.4477 2 13C2 13.5523 2.44772 14 3 14C3.55228 14 4 13.5523 4 13C4 12.4477 3.55228 12 3 12ZM0 13C0 11.3431 1.34315 10 3 10C4.65685 10 6 11.3431 6 13C6 14.6569 4.65685 16 3 16C1.34315 16 0 14.6569 0 13Z" fill="currentColor"/>
<path fill-rule="evenodd" clip-rule="evenodd" d="M11 12C10.4477 12 10 12.4477 10 13C10 13.5523 10.4477 14 11 14C11.5523 14 12 13.5523 12 13C12 12.4477 11.5523 12 11 12ZM8 13C8 11.3431 9.34315 10 11 10C12.6569 10 14 11.3431 14 13C14 14.6569 12.6569 16 11 16C9.34315 16 8 14.6569 8 13Z" fill="currentColor"/>
<path fill-rule="evenodd" clip-rule="evenodd" d="M12 5C12 4.44772 12.4477 4 13 4H17C17.5523 4 18 4.44772 18 5C18 5.55228 17.5523 6 17 6H13C12.4477 6 12 5.55228 12 5Z" fill="currentColor"/>
<path fill-rule="evenodd" clip-rule="evenodd" d="M4 13C4 12.4477 4.44772 12 5 12H9C9.55228 12 10 12.4477 10 13C10 13.5523 9.55228 14 9 14H5C4.44772 14 4 13.5523 4 13Z" fill="currentColor"/>
</svg>
