<svg width="18" height="18" viewBox="0 0 18 18" fill="none" xmlns="http://www.w3.org/2000/svg">
<path fillRule="evenodd" clipRule="evenodd" d="M0 7C0 6.44772 0.447715 6 1 6H17C17.5523 6 18 6.44772 18 7C18 7.55228 17.5523 8 17 8H1C0.447715 8 0 7.55228 0 7Z" fill="currentColor"/>
<path fillRule="evenodd" clipRule="evenodd" d="M11 11C11 10.4477 11.4477 10 12 10H14C14.5523 10 15 10.4477 15 11C15 11.5523 14.5523 12 14 12H12C11.4477 12 11 11.5523 11 11Z" fill="currentColor"/>
<path fillRule="evenodd" clipRule="evenodd" d="M0 5C0 3.89543 0.89543 3 2 3H16C17.1046 3 18 3.89543 18 5V13C18 14.1046 17.1046 15 16 15H2C0.89543 15 0 14.1046 0 13V5ZM16 5L2 5V13H16V5Z" fill="currentColor"/>
</svg>
