<svg width="12" height="12" viewBox="0 0 12 12" fill="none" xmlns="http://www.w3.org/2000/svg">
<path fill-rule="evenodd" clip-rule="evenodd" d="M0.292893 0.292893C0.683417 -0.0976311 1.31658 -0.0976311 1.70711 0.292893L11.7071 10.2929C12.0976 10.6834 12.0976 11.3166 11.7071 11.7071C11.3166 12.0976 10.6834 12.0976 10.2929 11.7071L0.292893 1.70711C-0.0976311 1.31658 -0.0976311 0.683417 0.292893 0.292893Z" fill="currentColor"/>
<path fill-rule="evenodd" clip-rule="evenodd" d="M0.292893 11.7071C-0.0976311 11.3166 -0.0976311 10.6834 0.292893 10.2929L10.2929 0.292895C10.6834 -0.09763 11.3166 -0.09763 11.7071 0.292895C12.0976 0.683419 12.0976 1.31658 11.7071 1.70711L1.70711 11.7071C1.31658 12.0976 0.683417 12.0976 0.292893 11.7071Z" fill="currentColor"/>
</svg>
