<svg width="18" height="18" viewBox="0 0 18 18" fill="none" xmlns="http://www.w3.org/2000/svg">
<path fill-rule="evenodd" clip-rule="evenodd" d="M0 1C0 0.447715 0.447715 0 1 0H5C5.55228 0 6 0.447715 6 1V7C6 7.55228 5.55228 8 5 8H1C0.447715 8 0 7.55228 0 7V1ZM2 2V6H4V2H2Z" fill="currentColor"/>
<path fill-rule="evenodd" clip-rule="evenodd" d="M0 11C0 10.4477 0.447715 10 1 10H8C8.55228 10 9 10.4477 9 11V17C9 17.5523 8.55228 18 8 18H1C0.447715 18 0 17.5523 0 17V11ZM2 12V16H7V12H2Z" fill="currentColor"/>
<path fill-rule="evenodd" clip-rule="evenodd" d="M8 1C8 0.447715 8.44772 0 9 0H17C17.5523 0 18 0.447715 18 1V7C18 7.55228 17.5523 8 17 8H9C8.44772 8 8 7.55228 8 7V1ZM10 2V6H16V2H10Z" fill="currentColor"/>
<path fill-rule="evenodd" clip-rule="evenodd" d="M11 11C11 10.4477 11.4477 10 12 10H17C17.5523 10 18 10.4477 18 11V17C18 17.5523 17.5523 18 17 18H12C11.4477 18 11 17.5523 11 17V11ZM13 12V16H16V12H13Z" fill="currentColor"/>
</svg>
