<svg width="18" height="18" viewBox="0 0 18 18" fill="none" xmlns="http://www.w3.org/2000/svg">
<path fillRule="evenodd" clipRule="evenodd" d="M2 4.60302V12.464C2.75731 12.2175 3.77322 12 5 12C6.22678 12 7.24269 12.2175 8 12.464V4.60302C7.88559 4.55183 7.75049 4.49606 7.59576 4.43979C6.9995 4.22297 6.11545 4 5 4C3.88455 4 3.0005 4.22297 2.40424 4.43979C2.24951 4.49606 2.11441 4.55183 2 4.60302ZM9 4L9.5547 3.16795C9.8329 3.35342 10 3.66565 10 4V14C10 14.3688 9.79702 14.7077 9.47186 14.8817C9.14856 15.0547 8.75666 15.0368 8.45057 14.8355L8.44925 14.8347C8.45014 14.8352 8.45012 14.8353 8.45057 14.8355C8.44881 14.8344 8.44705 14.8332 8.4453 14.8321L9 14C8.4453 14.8321 8.445 14.8319 8.4453 14.8321L8.44754 14.8335L8.44925 14.8347C8.44479 14.8319 8.43416 14.8252 8.41886 14.8161C8.38824 14.7979 8.3363 14.7681 8.264 14.7303C8.11924 14.6548 7.89395 14.5482 7.59576 14.4398C6.9995 14.223 6.11545 14 5 14C3.88455 14 3.0005 14.223 2.40424 14.4398C2.10605 14.5482 1.88076 14.6548 1.736 14.7303C1.6637 14.7681 1.61176 14.7979 1.58114 14.8161C1.56584 14.8252 1.55591 14.8314 1.55145 14.8343L1.55246 14.8335L1.55352 14.8328C1.55197 14.8339 1.55099 14.8345 1.54944 14.8355C1.24335 15.0368 0.851445 15.0547 0.528142 14.8817C0.202985 14.7077 0 14.3688 0 14V4C0 3.66565 0.167101 3.35342 0.4453 3.16795L1 4C0.4453 3.16795 0.444975 3.16817 0.4453 3.16795L0.446621 3.16707L0.448085 3.1661L0.45144 3.16388L0.459854 3.15839L0.483463 3.14328C0.5022 3.13145 0.52693 3.11616 0.557531 3.09793C0.618713 3.06148 0.703488 3.01319 0.810871 2.95717C1.02549 2.84519 1.33145 2.70177 1.72076 2.56021C2.4995 2.27703 3.61545 2 5 2C6.38455 2 7.5005 2.27703 8.27924 2.56021C8.66855 2.70177 8.97451 2.84519 9.18913 2.95717C9.29651 3.01319 9.38129 3.06148 9.44247 3.09793C9.47307 3.11616 9.4978 3.13145 9.51654 3.14328L9.54015 3.15839L9.54856 3.16388L9.55192 3.1661L9.55338 3.16707L9.5547 3.16795C9.55502 3.16817 9.5547 3.16795 9 4ZM1.54944 14.8355C1.54989 14.8352 1.55056 14.8348 1.55145 14.8343L1.54944 14.8355C1.54912 14.8357 1.54876 14.836 1.54944 14.8355Z" fill="currentColor"/>
<path fillRule="evenodd" clipRule="evenodd" d="M10 4.60302V12.464C10.7573 12.2175 11.7732 12 13 12C14.2268 12 15.2427 12.2175 16 12.464V4.60302C15.8856 4.55183 15.7505 4.49606 15.5958 4.43979C14.9995 4.22297 14.1155 4 13 4C11.8845 4 11.0005 4.22297 10.4042 4.43979C10.2495 4.49606 10.1144 4.55183 10 4.60302ZM17 4L17.5547 3.16795C17.8329 3.35342 18 3.66565 18 4V14C18 14.3688 17.797 14.7077 17.4719 14.8817C17.1486 15.0547 16.7567 15.0368 16.4506 14.8355L16.4492 14.8347C16.4501 14.8352 16.4501 14.8353 16.4506 14.8355C16.4488 14.8344 16.447 14.8332 16.4453 14.8321L17 14C16.4453 14.8321 16.445 14.8319 16.4453 14.8321L16.4475 14.8335L16.4492 14.8347C16.4448 14.8319 16.4342 14.8252 16.4189 14.8161C16.3882 14.7979 16.3363 14.7681 16.264 14.7303C16.1192 14.6548 15.894 14.5482 15.5958 14.4398C14.9995 14.223 14.1155 14 13 14C11.8845 14 11.0005 14.223 10.4042 14.4398C10.106 14.5482 9.88076 14.6548 9.736 14.7303C9.6637 14.7681 9.61176 14.7979 9.58114 14.8161C9.56584 14.8252 9.55591 14.8314 9.55145 14.8343L9.55246 14.8335L9.55352 14.8328C9.55197 14.8339 9.55099 14.8345 9.54944 14.8355C9.24335 15.0368 8.85145 15.0547 8.52814 14.8817C8.20298 14.7077 8 14.3688 8 14V4C8 3.66565 8.1671 3.35342 8.4453 3.16795L9 4C8.4453 3.16795 8.44498 3.16817 8.4453 3.16795L8.44662 3.16707L8.44809 3.1661L8.45144 3.16388L8.45985 3.15839L8.48346 3.14328C8.5022 3.13145 8.52693 3.11616 8.55753 3.09793C8.61871 3.06148 8.70349 3.01319 8.81087 2.95717C9.02549 2.84519 9.33145 2.70177 9.72076 2.56021C10.4995 2.27703 11.6155 2 13 2C14.3845 2 15.5005 2.27703 16.2792 2.56021C16.6686 2.70177 16.9745 2.84519 17.1891 2.95717C17.2965 3.01319 17.3813 3.06148 17.4425 3.09793C17.4731 3.11616 17.4978 3.13145 17.5165 3.14328L17.5401 3.15839L17.5486 3.16388L17.5519 3.1661L17.5534 3.16707L17.5547 3.16795C17.555 3.16817 17.5547 3.16795 17 4ZM9.54944 14.8355C9.54989 14.8352 9.55056 14.8348 9.55145 14.8343L9.54944 14.8355C9.54912 14.8357 9.54876 14.836 9.54944 14.8355Z" fill="currentColor"/>
<path fillRule="evenodd" clipRule="evenodd" d="M3.697 15.7171C3.30573 16.0976 2.68007 16.0943 2.29289 15.7071C1.90237 15.3166 1.90237 14.6834 2.29289 14.2929L2.99994 14.9999C2.29289 14.2929 2.29324 14.2925 2.2936 14.2922L2.29432 14.2915L2.29585 14.2899L2.29922 14.2866L2.30713 14.2789L2.32778 14.2592C2.34367 14.2443 2.36387 14.2259 2.38837 14.2045C2.43735 14.1616 2.5037 14.1066 2.5875 14.0438C2.75496 13.9182 2.99328 13.7603 3.30279 13.6056C3.92507 13.2944 4.82724 13 6 13C7.17276 13 8.07493 13.2944 8.69721 13.6056C9.00672 13.7603 9.24504 13.9182 9.4125 14.0438C9.4963 14.1066 9.56265 14.1616 9.61163 14.2045C9.63613 14.2259 9.65632 14.2443 9.67222 14.2592L9.69287 14.2789L9.70078 14.2866L9.70415 14.2899L9.70568 14.2915L9.7064 14.2922C9.70676 14.2925 9.70711 14.2929 9 15L9.70711 14.2929C10.0976 14.6834 10.0976 15.3166 9.70711 15.7071C9.31994 16.0943 8.69427 16.0976 8.30301 15.7171C8.303 15.7171 8.303 15.7171 8.303 15.7171C8.30148 15.7157 8.29869 15.7132 8.29462 15.7096C8.2811 15.6978 8.2537 15.6747 8.2125 15.6437C8.12996 15.5818 7.99328 15.4897 7.80279 15.3944C7.42507 15.2056 6.82724 15 6 15C5.17276 15 4.57493 15.2056 4.19721 15.3944C4.00672 15.4897 3.87004 15.5818 3.7875 15.6437C3.7463 15.6747 3.7189 15.6978 3.70538 15.7096C3.70131 15.7132 3.69852 15.7157 3.697 15.7171C3.697 15.7171 3.697 15.7171 3.697 15.7171ZM8.29434 15.7085C8.29421 15.7084 8.29409 15.7083 8.29397 15.7082L8.29423 15.7084L8.29434 15.7085ZM8.29357 15.7078C8.29357 15.7078 8.29357 15.7078 8.29357 15.7078L8.29365 15.7079C8.29362 15.7078 8.2936 15.7078 8.29357 15.7078Z" fill="currentColor"/>
<path fillRule="evenodd" clipRule="evenodd" d="M9.697 15.7171C9.30573 16.0976 8.68007 16.0943 8.29289 15.7071C7.90237 15.3166 7.90237 14.6834 8.29289 14.2929L8.99994 14.9999C8.29289 14.2929 8.29289 14.2929 8.29289 14.2929L8.29432 14.2915L8.29585 14.2899L8.29922 14.2866L8.30713 14.2789L8.32778 14.2592C8.34367 14.2443 8.36387 14.2259 8.38837 14.2045C8.43735 14.1616 8.5037 14.1066 8.5875 14.0438C8.75496 13.9182 8.99328 13.7603 9.30279 13.6056C9.92507 13.2944 10.8272 13 12 13C13.1728 13 14.0749 13.2944 14.6972 13.6056C15.0067 13.7603 15.245 13.9182 15.4125 14.0438C15.4963 14.1066 15.5627 14.1616 15.6116 14.2045C15.6361 14.2259 15.6563 14.2443 15.6722 14.2592L15.6929 14.2789L15.7008 14.2866L15.7041 14.2899L15.7057 14.2915L15.7064 14.2922C15.7064 14.2922 15.7071 14.2929 15 15L15.7064 14.2922C16.0969 14.6827 16.0976 15.3166 15.7071 15.7071C15.3199 16.0943 14.6943 16.0976 14.303 15.7171C14.3015 15.7157 14.2987 15.7132 14.2946 15.7096C14.2811 15.6978 14.2537 15.6747 14.2125 15.6437C14.13 15.5818 13.9933 15.4897 13.8028 15.3944C13.4251 15.2056 12.8272 15 12 15C11.1728 15 10.5749 15.2056 10.1972 15.3944C10.0067 15.4897 9.87004 15.5818 9.7875 15.6437C9.7463 15.6747 9.7189 15.6978 9.70538 15.7096C9.70131 15.7132 9.69852 15.7157 9.697 15.7171Z" fill="currentColor"/>
</svg>
