<svg width="18" height="18" viewBox="0 0 18 18" fill="none" xmlns="http://www.w3.org/2000/svg">
<path fillRule="evenodd" clipRule="evenodd" d="M3 3C2.44772 3 2 3.44772 2 4V11C2 11.5523 2.44772 12 3 12H6C6.55228 12 7 12.4477 7 13V14.5858L9.29289 12.2929C9.48043 12.1054 9.73478 12 10 12H15C15.5523 12 16 11.5523 16 11V4C16 3.44772 15.5523 3 15 3H3ZM0 4C0 2.34315 1.34315 1 3 1H15C16.6569 1 18 2.34315 18 4V11C18 12.6569 16.6569 14 15 14H10.4142L6.70711 17.7071C6.42111 17.9931 5.99099 18.0787 5.61732 17.9239C5.24364 17.7691 5 17.4045 5 17V14H3C1.34315 14 0 12.6569 0 11V4Z" fill="currentColor"/>
</svg>
