<svg width="18" height="18" viewBox="0 0 18 18" fill="none" xmlns="http://www.w3.org/2000/svg">
<path fill-rule="evenodd" clip-rule="evenodd" d="M6.29289 0.292893C6.48043 0.105357 6.73478 0 7 0H15C15.5523 0 16 0.447715 16 1V17C16 17.5523 15.5523 18 15 18H3C2.44772 18 2 17.5523 2 17V5C2 4.73478 2.10536 4.48043 2.29289 4.29289L6.29289 0.292893ZM7.41421 2L4 5.41421V16H14V2H7.41421Z" fill="currentColor"/>
<path fill-rule="evenodd" clip-rule="evenodd" d="M8 0C8.55228 0 9 0.447715 9 1V6C9 6.55228 8.55228 7 8 7H3C2.44772 7 2 6.55228 2 6C2 5.44772 2.44772 5 3 5H7V1C7 0.447715 7.44772 0 8 0Z" fill="currentColor"/>
</svg>
