<svg width="18" height="18" viewBox="0 0 18 18" fill="none" xmlns="http://www.w3.org/2000/svg">
<path fill-rule="evenodd" clip-rule="evenodd" d="M0 1C0 0.447715 0.447715 0 1 0H7C7.55228 0 8 0.447715 8 1V3H17C17.5523 3 18 3.44772 18 4V17C18 17.5523 17.5523 18 17 18H5C4.44772 18 4 17.5523 4 17V12H1C0.447715 12 0 11.5523 0 11V1ZM2 2V10H5C5.55228 10 6 10.4477 6 11V16H16V5H7C6.44772 5 6 4.55228 6 4V2H2Z" fill="currentColor"/>
<path fill-rule="evenodd" clip-rule="evenodd" d="M7 7C7.55228 7 8 7.44772 8 8V11C8 11.5523 7.55228 12 7 12H5C4.44772 12 4 11.5523 4 11C4 10.4477 4.44772 10 5 10H6V8C6 7.44772 6.44772 7 7 7Z" fill="currentColor"/>
<path fill-rule="evenodd" clip-rule="evenodd" d="M11 3C11.5523 3 12 3.44772 12 4V10H13C13.5523 10 14 10.4477 14 11C14 11.5523 13.5523 12 13 12H11C10.4477 12 10 11.5523 10 11V4C10 3.44772 10.4477 3 11 3Z" fill="currentColor"/>
</svg>
