<svg width="18" height="18" viewBox="0 0 18 18" fill="none" xmlns="http://www.w3.org/2000/svg">
<path fill-rule="evenodd" clip-rule="evenodd" d="M9 2C5.13401 2 2 5.13401 2 9C2 12.866 5.13401 16 9 16C12.866 16 16 12.866 16 9C16 5.13401 12.866 2 9 2ZM0 9C0 4.02944 4.02944 0 9 0C13.9706 0 18 4.02944 18 9C18 13.9706 13.9706 18 9 18C4.02944 18 0 13.9706 0 9Z" fill="currentColor"/>
<path fill-rule="evenodd" clip-rule="evenodd" d="M7 12C7 10.8954 7.89543 10 9 10C10.1046 10 11 10.8954 11 12C11 13.1046 10.1046 14 9 14C7.89543 14 7 13.1046 7 12Z" fill="currentColor"/>
<path fill-rule="evenodd" clip-rule="evenodd" d="M5.65183 4.6365C6.61237 3.89945 7.78928 3.49994 9.00002 3.49994C10.2108 3.49994 11.3877 3.89945 12.3482 4.6365C13.3088 5.37355 13.9992 6.40696 14.3126 7.57644C14.3841 7.84317 14.2258 8.11734 13.9591 8.18881C13.6923 8.26028 13.4182 8.10199 13.3467 7.83526C13.0903 6.87841 12.5253 6.03289 11.7394 5.42985C10.9535 4.82681 9.99062 4.49994 9.00002 4.49994C8.00941 4.49994 7.04649 4.82681 6.26059 5.42985C5.47469 6.03289 4.90974 6.87841 4.65335 7.83526C4.58188 8.10199 4.30771 8.26028 4.04098 8.18881C3.77425 8.11734 3.61596 7.84317 3.68743 7.57644C4.00079 6.40696 4.69129 5.37355 5.65183 4.6365Z" fill="currentColor"/>
<path fill-rule="evenodd" clip-rule="evenodd" d="M11.4961 7.63168C11.9756 7.90569 12.1422 8.51655 11.8682 8.99607L9.86817 12.4961C9.59416 12.9756 8.98331 13.1422 8.50379 12.8682C8.02427 12.5942 7.85767 11.9833 8.13168 11.5038L10.1317 8.00379C10.4057 7.52427 11.0165 7.35767 11.4961 7.63168Z" fill="currentColor"/>
</svg>
