<svg width="18" height="18" viewBox="0 0 18 18" fill="none" xmlns="http://www.w3.org/2000/svg">
    <path d="M13.1886 16.968C16.0495 15.4609 18 12.4583 18 9C18 4.02944 13.9706 0 9 0C4.02944 0 0 4.02944 0 9C0 12.4446 1.93513 15.4372 4.77756 16.95L4.78165 16.9511C4.80365 16.9551 4.83021 16.9602 4.86078 16.9662C5.38688 17.0689 7.09762 17.4026 7.09762 15.7268C7.09762 15.6401 7.09614 15.487 7.09416 15.2822C7.09187 15.0449 7.08891 14.7381 7.0868 14.3848C4.85932 14.8615 4.38934 13.3267 4.38934 13.3267C4.02506 12.4154 3.50002 12.1726 3.50002 12.1726C2.77293 11.6828 3.55508 11.6925 3.55508 11.6925C4.35886 11.7487 4.78165 12.506 4.78165 12.506C5.49595 13.7118 6.65615 13.3635 7.11236 13.162C7.18512 12.6518 7.3916 12.3039 7.62069 12.1068C5.84254 11.9076 3.97295 11.2303 3.97295 8.20622C3.97295 7.34482 4.28512 6.64038 4.79738 6.08856C4.71479 5.88896 4.43998 5.08666 4.87554 3.99998C4.87554 3.99998 5.54806 3.78778 7.07795 4.80906C7.71655 4.63416 8.40186 4.54647 9.08273 4.54356C9.76263 4.54647 10.4479 4.63416 11.0875 4.80906C12.6164 3.78778 13.2875 3.99998 13.2875 3.99998C13.7245 5.08666 13.4497 5.88896 13.3671 6.08856C13.8803 6.64038 14.1906 7.34482 14.1906 8.20622C14.1906 11.2381 12.318 11.9052 10.534 12.1005C10.8216 12.3441 11.0777 12.8257 11.0777 13.5621C11.0777 14.2673 11.0733 14.8814 11.0704 15.2884C11.0689 15.49 11.0679 15.6411 11.0679 15.7268C11.0679 17.3972 12.6636 17.0753 13.1886 16.968Z" fill="currentColor"/>
</svg>
