<svg width="18" height="18" viewBox="0 0 18 18" fill="none" xmlns="http://www.w3.org/2000/svg">
<path fill-rule="evenodd" clip-rule="evenodd" d="M9 2C5.13401 2 2 5.13401 2 9C2 12.866 5.13401 16 9 16C12.866 16 16 12.866 16 9C16 5.13401 12.866 2 9 2ZM0 9C0 4.02944 4.02944 0 9 0C13.9706 0 18 4.02944 18 9C18 13.9706 13.9706 18 9 18C4.02944 18 0 13.9706 0 9Z" fill="currentColor"/>
<path fill-rule="evenodd" clip-rule="evenodd" d="M9 6C7.34315 6 6 7.34315 6 9C6 10.6569 7.34315 12 9 12C10.6569 12 12 10.6569 12 9C12 7.34315 10.6569 6 9 6ZM4 9C4 6.23858 6.23858 4 9 4C11.7614 4 14 6.23858 14 9C14 11.7614 11.7614 14 9 14C6.23858 14 4 11.7614 4 9Z" fill="currentColor"/>
<path fill-rule="evenodd" clip-rule="evenodd" d="M6.44652 1.40207L7.48179 5.26577L6.51587 5.52459L5.48059 1.66089L6.44652 1.40207Z" fill="currentColor"/>
<path fill-rule="evenodd" clip-rule="evenodd" d="M1.40195 11.5535L5.26565 10.5182L5.52447 11.4841L1.66077 12.5194L1.40195 11.5535Z" fill="currentColor"/>
<path fill-rule="evenodd" clip-rule="evenodd" d="M9.55235 12.9931L10.5876 16.8568L9.6217 17.1157L8.58643 13.252L9.55235 12.9931Z" fill="currentColor"/>
<path fill-rule="evenodd" clip-rule="evenodd" d="M12.9931 8.44765L16.8568 7.41237L17.1157 8.3783L13.252 9.41357L12.9931 8.44765Z" fill="currentColor"/>
<path fill-rule="evenodd" clip-rule="evenodd" d="M8.3784 0.884369L9.41368 4.74807L8.44775 5.00689L7.41248 1.14319L8.3784 0.884369Z" fill="currentColor"/>
<path fill-rule="evenodd" clip-rule="evenodd" d="M0.884369 9.6216L4.74807 8.58632L5.00689 9.55225L1.14319 10.5875L0.884369 9.6216Z" fill="currentColor"/>
<path fill-rule="evenodd" clip-rule="evenodd" d="M11.4842 12.4754L12.5195 16.3391L11.5536 16.598L10.5183 12.7343L11.4842 12.4754Z" fill="currentColor"/>
<path fill-rule="evenodd" clip-rule="evenodd" d="M12.4754 6.51576L16.3391 5.48049L16.598 6.44641L12.7343 7.48169L12.4754 6.51576Z" fill="currentColor"/>
</svg>
