<svg width="18" height="18" viewBox="0 0 18 18" fill="none" xmlns="http://www.w3.org/2000/svg">
<path fillRule="evenodd" clipRule="evenodd" d="M8 16L8 15C8 14.4477 7.55228 14 7 14C6.44771 14 6 14.4477 6 15L6 17C6 17.5523 6.44772 18 7 18L17 18C17.2652 18 17.5196 17.8946 17.7071 17.7071C17.8946 17.5196 18 17.2652 18 17L18 0.999999C18 0.447715 17.5523 -5.04966e-07 17 -4.80825e-07L7 -4.37114e-08C6.44772 -1.95703e-08 6 0.447716 6 1L6 3C6 3.55228 6.44772 4 7 4C7.55228 4 8 3.55229 8 3L8 2L16 2L16 16L8 16Z" fill="currentColor"/>
<path fillRule="evenodd" clipRule="evenodd" d="M-4.37114e-08 11C-6.78525e-08 10.4477 0.447715 10 1 10L8 10C8.55228 10 9 10.4477 9 11C9 11.5523 8.55228 12 8 12L1 12C0.447715 12 -1.95703e-08 11.5523 -4.37114e-08 11Z" fill="currentColor"/>
<path fillRule="evenodd" clipRule="evenodd" d="M15 7C15 6.44772 14.5523 6 14 6L7 6C6.44772 6 6 6.44771 6 7C6 7.55228 6.44772 8 7 8L14 8C14.5523 8 15 7.55228 15 7Z" fill="currentColor"/>
<path fillRule="evenodd" clipRule="evenodd" d="M4.70711 14.7071C5.09763 14.3166 5.09763 13.6834 4.70711 13.2929L1.70711 10.2929C1.31658 9.90237 0.683417 9.90237 0.292893 10.2929C-0.0976313 10.6834 -0.0976313 11.3166 0.292893 11.7071L3.29289 14.7071C3.68342 15.0976 4.31658 15.0976 4.70711 14.7071Z" fill="currentColor"/>
<path fillRule="evenodd" clipRule="evenodd" d="M10.2929 10.7071C9.90237 10.3166 9.90237 9.68342 10.2929 9.29289L13.2929 6.29289C13.6834 5.90237 14.3166 5.90237 14.7071 6.29289C15.0976 6.68342 15.0976 7.31658 14.7071 7.70711L11.7071 10.7071C11.3166 11.0976 10.6834 11.0976 10.2929 10.7071Z" fill="currentColor"/>
<path fillRule="evenodd" clipRule="evenodd" d="M4.70711 7.29289C5.09763 7.68342 5.09763 8.31658 4.70711 8.70711L1.70711 11.7071C1.31658 12.0976 0.683418 12.0976 0.292893 11.7071C-0.0976312 11.3166 -0.0976311 10.6834 0.292893 10.2929L3.29289 7.29289C3.68342 6.90237 4.31658 6.90237 4.70711 7.29289Z" fill="currentColor"/>
<path fillRule="evenodd" clipRule="evenodd" d="M10.2929 3.29289C9.90237 3.68342 9.90237 4.31658 10.2929 4.70711L13.2929 7.70711C13.6834 8.09763 14.3166 8.09763 14.7071 7.70711C15.0976 7.31658 15.0976 6.68342 14.7071 6.29289L11.7071 3.29289C11.3166 2.90237 10.6834 2.90237 10.2929 3.29289Z" fill="currentColor"/>
</svg>
