<svg width="18" height="18" viewBox="0 0 18 18" fill="none" xmlns="http://www.w3.org/2000/svg">
<path fillRule="evenodd" clipRule="evenodd" d="M5.9453 5.54295C6.58555 5.11611 7.47538 5 8.5 5H11C11.5523 5 12 5.44772 12 6C12 6.55228 11.5523 7 11 7H8.5C7.52462 7 7.16445 7.13389 7.0547 7.20705C7.03426 7.22067 7.03361 7.22365 7.03297 7.22658C7.03285 7.22715 7.03272 7.22772 7.03245 7.22837C7.02311 7.2508 7 7.32539 7 7.5C7 7.65149 7.01759 7.7156 7.02407 7.734C7.02962 7.73847 7.04039 7.74633 7.05864 7.75676C7.24508 7.8633 7.75279 8 9 8C10.2528 8 11.2451 8.1133 11.9336 8.50676C12.3184 8.72663 12.6117 9.03408 12.7919 9.4271C12.9615 9.79718 13 10.1769 13 10.5C13 10.8231 12.9615 11.2028 12.7919 11.5729C12.6117 11.9659 12.3184 12.2734 11.9336 12.4932C11.2451 12.8867 10.2528 13 9 13H7C6.44772 13 6 12.5523 6 12C6 11.4477 6.44772 11 7 11H9C10.2472 11 10.7549 10.8633 10.9414 10.7568C10.9596 10.7463 10.9704 10.7385 10.9759 10.734C10.9824 10.7156 11 10.6515 11 10.5C11 10.3485 10.9824 10.2844 10.9759 10.266C10.9704 10.2615 10.9596 10.2537 10.9414 10.2432C10.7549 10.1367 10.2472 10 9 10C7.74721 10 6.75492 9.8867 6.06636 9.49324C5.68159 9.27337 5.38825 8.96592 5.20812 8.5729C5.0385 8.20282 5 7.82305 5 7.5C5 6.82469 5.18169 6.05202 5.9453 5.54295Z" fill="currentColor"/>
<path fillRule="evenodd" clipRule="evenodd" d="M9 4C9.55228 4 10 4.44772 10 5V13C10 13.5523 9.55228 14 9 14C8.44772 14 8 13.5523 8 13V5C8 4.44772 8.44772 4 9 4Z" fill="currentColor"/>
<path fillRule="evenodd" clipRule="evenodd" d="M1 2C1 0.89543 1.89543 0 3 0H15C16.1046 0 17 0.89543 17 2V17C17 17.3214 16.8455 17.6233 16.5847 17.8112C16.3239 17.9992 15.9887 18.0503 15.6838 17.9487L13.0767 17.0797L11.4472 17.8944C11.1657 18.0352 10.8343 18.0352 10.5528 17.8944L9 17.118L7.44721 17.8944C7.16569 18.0352 6.83431 18.0352 6.55279 17.8944L4.92327 17.0797L2.31623 17.9487C2.01128 18.0503 1.67606 17.9992 1.41529 17.8112C1.15452 17.6233 1 17.3214 1 17V2ZM15 2H3V15.6126L4.68377 15.0513C4.93538 14.9674 5.21 14.987 5.44721 15.1056L7 15.882L8.55279 15.1056C8.83431 14.9648 9.16569 14.9648 9.44721 15.1056L11 15.882L12.5528 15.1056C12.79 14.987 13.0646 14.9674 13.3162 15.0513L15 15.6126V2Z" fill="currentColor"/>
</svg>
