<svg width="18" height="18" viewBox="0 0 18 18" fill="none" xmlns="http://www.w3.org/2000/svg">
<path fill-rule="evenodd" clip-rule="evenodd" d="M16.7071 1.29289C16.3166 0.902369 15.6834 0.902369 15.2929 1.29289L15.2923 1.29346L10.2929 6.29289L6.89574 9.69005C6.20201 9.25291 5.38054 9 4.5 9C2.01472 9 0 11.0147 0 13.5C0 15.9853 2.01472 18 4.5 18C6.98528 18 9 15.9853 9 13.5C9 12.6195 8.74709 11.798 8.30995 11.1043L11 8.41421L12.2929 9.70711C12.6834 10.0976 13.3166 10.0976 13.7071 9.70711C14.0976 9.31658 14.0976 8.68342 13.7071 8.29289L12.4142 7L13.5 5.91421L15.2929 7.70711C15.6834 8.09763 16.3166 8.09763 16.7071 7.70711C17.0976 7.31658 17.0976 6.68342 16.7071 6.29289L14.9142 4.5L16 3.41421L16.2929 3.70711C16.6834 4.09763 17.3166 4.09763 17.7071 3.70711C18.0976 3.31658 18.0976 2.68342 17.7071 2.29289L16.7071 1.29289ZM2 13.5C2 12.1193 3.11929 11 4.5 11C5.88071 11 7 12.1193 7 13.5C7 14.8807 5.88071 16 4.5 16C3.11929 16 2 14.8807 2 13.5Z" fill="currentColor"/>
</svg>
