<svg width="18" height="18" viewBox="0 0 18 18" fill="none" xmlns="http://www.w3.org/2000/svg">
<path fillRule="evenodd" clipRule="evenodd" d="M2.29445 9.02998C2.81864 9.66746 3.56762 10.4847 4.49387 11.2145C5.77466 12.2236 7.31052 13 9 13C10.6895 13 12.2253 12.2236 13.5061 11.2145C14.4324 10.4847 15.1814 9.66746 15.7056 9.02998C15.1284 8.36327 14.376 7.53145 13.4378 6.78087C12.1769 5.77214 10.6847 5 9 5C7.31533 5 5.8231 5.77214 4.5622 6.78087C3.62398 7.53145 2.87162 8.36327 2.29445 9.02998ZM3.31281 5.21913C4.76023 4.06119 6.68467 3 9 3C11.3153 3 13.2398 4.06119 14.6872 5.21913C15.9277 6.21153 16.8946 7.34108 17.4915 8.03844C17.5884 8.15166 17.6756 8.25349 17.7526 8.3415C18.0637 8.69711 18.0835 9.22198 17.8 9.6C17.2791 10.2945 16.2185 11.6237 14.7439 12.7855C13.2747 13.9431 11.3105 15 9 15C6.68949 15 4.72534 13.9431 3.25613 12.7855C1.78156 11.6237 0.720858 10.2945 0.200002 9.6C-0.0835117 9.22198 -0.0637332 8.69711 0.247426 8.3415C0.324428 8.25349 0.411595 8.15166 0.508515 8.03843C1.10545 7.34107 2.07232 6.21152 3.31281 5.21913Z" fill="currentColor"/>
<path fillRule="evenodd" clipRule="evenodd" d="M9 8C8.44772 8 8 8.44772 8 9C8 9.55228 8.44772 10 9 10C9.55228 10 10 9.55228 10 9C10 8.44772 9.55228 8 9 8ZM6 9C6 7.34315 7.34315 6 9 6C10.6569 6 12 7.34315 12 9C12 10.6569 10.6569 12 9 12C7.34315 12 6 10.6569 6 9Z" fill="currentColor"/>
</svg>
