<svg width="18" height="18" viewBox="0 0 18 18" fill="none" xmlns="http://www.w3.org/2000/svg">
<path fill-rule="evenodd" clip-rule="evenodd" d="M9 2C6.23858 2 4 4.23858 4 7C4 8.93153 5.09498 10.609 6.70272 11.4424C7.26034 11.7315 7.75508 12.2005 8.10683 12.5339C8.19009 12.6129 8.26535 12.6842 8.33152 12.7438C8.50937 12.9038 8.74227 13 9 13C9.25773 13 9.49063 12.9038 9.66848 12.7438C9.73465 12.6842 9.80991 12.6129 9.89317 12.5339C10.2449 12.2005 10.7397 11.7315 11.2973 11.4424C12.905 10.609 14 8.93153 14 7C14 4.23858 11.7614 2 9 2ZM2 7C2 3.13401 5.13401 0 9 0C12.866 0 16 3.13401 16 7C16 9.70754 14.4626 12.0543 12.2177 13.218C11.9338 13.3652 11.7145 13.5712 11.399 13.8675C11.2836 13.9758 11.1554 14.0963 11.0064 14.2304C10.4756 14.7081 9.7707 15 9 15C8.2293 15 7.52442 14.7081 6.99362 14.2304C6.84463 14.0963 6.71638 13.9758 6.601 13.8675C6.28552 13.5712 6.06624 13.3652 5.78227 13.218C3.53744 12.0543 2 9.70754 2 7Z" fill="currentColor"/>
<path fill-rule="evenodd" clip-rule="evenodd" d="M6 7.5C5.72386 7.5 5.5 7.27614 5.5 7C5.5 6.54037 5.59053 6.08525 5.76642 5.66061C5.94231 5.23597 6.20012 4.85013 6.52513 4.52513C6.85013 4.20012 7.23597 3.94231 7.66061 3.76642C8.08525 3.59053 8.54037 3.5 9 3.5C9.27614 3.5 9.5 3.72386 9.5 4C9.5 4.27614 9.27614 4.5 9 4.5C8.6717 4.5 8.34661 4.56466 8.04329 4.6903C7.73998 4.81594 7.46438 5.00009 7.23223 5.23223C7.00009 5.46438 6.81594 5.73998 6.6903 6.04329C6.56466 6.34661 6.5 6.6717 6.5 7C6.5 7.27614 6.27614 7.5 6 7.5Z" fill="currentColor"/>
<path fill-rule="evenodd" clip-rule="evenodd" d="M7 12C7.55228 12 8 12.4477 8 13H7H6C6 12.4477 6.44772 12 7 12ZM11 13L12 13V15C12 16.6569 10.6568 18 9 18C7.34315 18 6 16.6569 6 15V13H7H8V15C8 15.5523 8.44771 16 9 16C9.55229 16 10 15.5523 10 15V13.0002L11 13ZM11 13L12 13C12 12.4477 11.5523 12 11 12C10.4477 12 10 12.4479 10 13.0002L11 13Z" fill="currentColor"/>
</svg>
