<svg width="18" height="18" viewBox="0 0 18 18" fill="none" xmlns="http://www.w3.org/2000/svg">
<path fillRule="evenodd" clipRule="evenodd" d="M6 3C6 2.44772 6.44772 2 7 2H17C17.5523 2 18 2.44772 18 3C18 3.55228 17.5523 4 17 4H7C6.44772 4 6 3.55228 6 3Z" fill="currentColor"/>
<path fillRule="evenodd" clipRule="evenodd" d="M6 9C6 8.44772 6.44772 8 7 8H17C17.5523 8 18 8.44772 18 9C18 9.55228 17.5523 10 17 10H7C6.44772 10 6 9.55228 6 9Z" fill="currentColor"/>
<path fillRule="evenodd" clipRule="evenodd" d="M6 15C6 14.4477 6.44772 14 7 14H17C17.5523 14 18 14.4477 18 15C18 15.5523 17.5523 16 17 16H7C6.44772 16 6 15.5523 6 15Z" fill="currentColor"/>
<path fillRule="evenodd" clipRule="evenodd" d="M0 3C0 1.89543 0.89543 1 2 1C3.10457 1 4 1.89543 4 3C4 4.10457 3.10457 5 2 5C0.89543 5 0 4.10457 0 3Z" fill="currentColor"/>
<path fillRule="evenodd" clipRule="evenodd" d="M0 9C0 7.89543 0.89543 7 2 7C3.10457 7 4 7.89543 4 9C4 10.1046 3.10457 11 2 11C0.89543 11 0 10.1046 0 9Z" fill="currentColor"/>
<path fillRule="evenodd" clipRule="evenodd" d="M0 15C0 13.8954 0.89543 13 2 13C3.10457 13 4 13.8954 4 15C4 16.1046 3.10457 17 2 17C0.89543 17 0 16.1046 0 15Z" fill="currentColor"/>
</svg>
