<svg width="18" height="18" viewBox="0 0 18 18" fill="none" xmlns="http://www.w3.org/2000/svg">
<path fillRule="evenodd" clipRule="evenodd" d="M9 16C5.13401 16 2 12.866 2 9C2 5.13401 5.13401 2 9 2C12.866 2 16 5.13401 16 9C16 12.866 12.866 16 9 16ZM0 9C0 13.9706 4.02944 18 9 18C13.9706 18 18 13.9706 18 9C18 4.02944 13.9706 0 9 0C4.02944 0 0 4.02944 0 9Z" fill="currentColor"/>
<path fillRule="evenodd" clipRule="evenodd" d="M13 9C13 9.35126 12.8157 9.67677 12.5145 9.85749L7.5145 12.8575C7.20557 13.0429 6.82081 13.0477 6.5073 12.8702C6.19379 12.6927 6 12.3603 6 12L6 6C6 5.63973 6.19379 5.30731 6.5073 5.1298C6.82081 4.95229 7.20557 4.95715 7.5145 5.14251L12.5145 8.14251C12.8157 8.32323 13 8.64874 13 9ZM8 7.76619L8 10.2338L10.0563 9L8 7.76619Z" fill="currentColor"/>
</svg>
