<svg width="18" height="18" viewBox="0 0 18 18" fill="none" xmlns="http://www.w3.org/2000/svg">
	<g id="loading">
		<animateTransform
			attributeName="transform"
			type="rotate"
			values="0 9 9; 60 9 9; 120 9 9; 180 9 9; 240 9 9; 300 9 9"
			dur="0.75s"
			repeatCount="indefinite"
			calcMode="discrete" />

		<circle cx="9" cy="3" r="3" fill="currentColor"/>
		<path d="M6.33155 6.00218C6.33155 7.38289 5.21226 8.50218 3.83155 8.50218C2.45084 8.50218 1.33155 7.38289 1.33155 6.00218C1.33155 4.62147 2.45084 3.50218 3.83155 3.50218C5.21226 3.50218 6.33155 4.62147 6.33155 6.00218Z" fill="currentColor"/>
		<path d="M5.79858 12.0042C5.79858 13.1087 4.90315 14.0042 3.79858 14.0042C2.69401 14.0042 1.79858 13.1087 1.79858 12.0042C1.79858 10.8996 2.69401 10.0042 3.79858 10.0042C4.90315 10.0042 5.79858 10.8996 5.79858 12.0042Z" fill="currentColor"/>
		<path d="M10.5 15C10.5 15.8284 9.82843 16.5 9 16.5C8.17157 16.5 7.5 15.8284 7.5 15C7.5 14.1716 8.17157 13.5 9 13.5C9.82843 13.5 10.5 14.1716 10.5 15Z" fill="currentColor"/>
		<path d="M15.1843 12.0012C15.1843 12.5535 14.7366 13.0012 14.1843 13.0012C13.632 13.0012 13.1843 12.5535 13.1843 12.0012C13.1843 11.4489 13.632 11.0012 14.1843 11.0012C14.7366 11.0012 15.1843 11.4489 15.1843 12.0012Z" fill="currentColor"/>
	</g>
</svg>
