<svg width="18" height="18" viewBox="0 0 18 18" fill="none" xmlns="http://www.w3.org/2000/svg">
<path fill-rule="evenodd" clip-rule="evenodd" d="M2 8C2 7.44772 2.44772 7 3 7H15C15.5523 7 16 7.44772 16 8V17C16 17.5523 15.5523 18 15 18H3C2.44772 18 2 17.5523 2 17V8ZM4 9V16H14V9H4Z" fill="currentColor"/>
<path fill-rule="evenodd" clip-rule="evenodd" d="M12 9C11.4477 9 11 8.55228 11 8L11 4C11 3.73736 10.9483 3.47728 10.8478 3.23463C10.7473 2.99198 10.5999 2.7715 10.4142 2.58579C10.2285 2.40007 10.008 2.25275 9.76537 2.15224C9.52272 2.05173 9.26264 2 9 2C8.73736 2 8.47728 2.05173 8.23463 2.15224C7.99198 2.25275 7.7715 2.40007 7.58579 2.58579C7.40007 2.7715 7.25275 2.99198 7.15224 3.23463C7.05173 3.47728 7 3.73736 7 4L7 8C7 8.55228 6.55228 9 6 9C5.44772 9 5 8.55228 5 8L5 4C5 3.47471 5.10346 2.95457 5.30448 2.46927C5.5055 1.98396 5.80014 1.54301 6.17157 1.17157C6.54301 0.800138 6.98396 0.5055 7.46927 0.304481C7.95457 0.103462 8.47471 -3.95613e-07 9 -3.49691e-07C9.52529 -3.03769e-07 10.0454 0.103463 10.5307 0.304481C11.016 0.505501 11.457 0.800138 11.8284 1.17157C12.1999 1.54301 12.4945 1.98396 12.6955 2.46927C12.8965 2.95457 13 3.47471 13 4L13 8C13 8.55228 12.5523 9 12 9Z" fill="currentColor"/>
<path fill-rule="evenodd" clip-rule="evenodd" d="M9 11C9.55228 11 10 11.4477 10 12V13C10 13.5523 9.55228 14 9 14C8.44772 14 8 13.5523 8 13V12C8 11.4477 8.44772 11 9 11Z" fill="currentColor"/>
</svg>
