<svg width="18" height="18" viewBox="0 0 18 18" fill="none" xmlns="http://www.w3.org/2000/svg">
<path fill-rule="evenodd" clip-rule="evenodd" d="M7 16L7 15C7 14.4477 6.55228 14 6 14C5.44771 14 5 14.4477 5 15L5 17C5 17.5523 5.44772 18 6 18L17 18C17.2652 18 17.5196 17.8946 17.7071 17.7071C17.8946 17.5196 18 17.2652 18 17L18 0.999999C18 0.447715 17.5523 -5.48678e-07 17 -5.24537e-07L6 -4.37114e-08C5.44772 -1.95703e-08 5 0.447716 5 1L5 3C5 3.55228 5.44772 4 6 4C6.55228 4 7 3.55229 7 3L7 2L16 2L16 16L7 16Z" fill="currentColor"/>
<path fill-rule="evenodd" clip-rule="evenodd" d="M-4.37114e-08 9C-6.78525e-08 8.44772 0.447715 8 1 8L13 8C13.5523 8 14 8.44771 14 9C14 9.55228 13.5523 10 13 10L1 10C0.447715 10 -1.95703e-08 9.55228 -4.37114e-08 9Z" fill="currentColor"/>
<path fill-rule="evenodd" clip-rule="evenodd" d="M9.29289 12.7071C8.90237 12.3166 8.90237 11.6834 9.29289 11.2929L12.2929 8.29289C12.6834 7.90237 13.3166 7.90237 13.7071 8.29289C14.0976 8.68342 14.0976 9.31658 13.7071 9.70711L10.7071 12.7071C10.3166 13.0976 9.68342 13.0976 9.29289 12.7071Z" fill="currentColor"/>
<path fill-rule="evenodd" clip-rule="evenodd" d="M9.29289 5.29289C8.90237 5.68342 8.90237 6.31658 9.29289 6.70711L12.2929 9.70711C12.6834 10.0976 13.3166 10.0976 13.7071 9.70711C14.0976 9.31658 14.0976 8.68342 13.7071 8.29289L10.7071 5.29289C10.3166 4.90237 9.68342 4.90237 9.29289 5.29289Z" fill="currentColor"/>
</svg>
