<svg width="18" height="16" viewBox="0 0 18 16" fill="none" xmlns="http://www.w3.org/2000/svg">
  <path fill-rule="evenodd" clip-rule="evenodd" d="M0 1C0 0.447715 0.447715 0 1 0H17C17.5523 0 18 0.447715 18 1V15C18 15.5523 17.5523 16 17 16H1C0.447715 16 0 15.5523 0 15V1ZM2 2V14H16V2H2Z" fill="#A69D9D"/>
  <path fill-rule="evenodd" clip-rule="evenodd" d="M0 4C0 3.44772 0.447715 3 1 3H17C17.5523 3 18 3.44772 18 4V12C18 12.5523 17.5523 13 17 13H1C0.447715 13 0 12.5523 0 12V4ZM2 5V11H16V5H2Z" fill="#A69D9D"/>
  <path fill-rule="evenodd" clip-rule="evenodd" d="M5 12V4H7L7 12H5Z" fill="#A69D9D"/>
  <path fill-rule="evenodd" clip-rule="evenodd" d="M4 4V1H5V4H4Z" fill="#A69D9D"/>
  <path fill-rule="evenodd" clip-rule="evenodd" d="M4 15V12H5V15H4Z" fill="#A69D9D"/>
  <path fill-rule="evenodd" clip-rule="evenodd" d="M7 4V1H8V4H7Z" fill="#A69D9D"/>
  <path fill-rule="evenodd" clip-rule="evenodd" d="M7 15V12H8V15H7Z" fill="#A69D9D"/>
  <path fill-rule="evenodd" clip-rule="evenodd" d="M10 4V1H11V4H10Z" fill="#A69D9D"/>
  <path fill-rule="evenodd" clip-rule="evenodd" d="M10 15V12H11V15H10Z" fill="#A69D9D"/>
  <path fill-rule="evenodd" clip-rule="evenodd" d="M13 4V1H14V4H13Z" fill="#A69D9D"/>
  <path fill-rule="evenodd" clip-rule="evenodd" d="M13 15V12H14V15H13Z" fill="#A69D9D"/>
  <path fill-rule="evenodd" clip-rule="evenodd" d="M12 12V4H14V12H12Z" fill="#A69D9D"/>
</svg>
