<svg width="18" height="18" viewBox="0 0 18 18" fill="none" xmlns="http://www.w3.org/2000/svg">
<path fill-rule="evenodd" clip-rule="evenodd" d="M17.7071 1.70711C18.0976 1.31658 18.0976 0.683417 17.7071 0.292893C17.3166 -0.0976311 16.6834 -0.0976311 16.2929 0.292893L12 4.58579V3C12 1.34315 10.6569 0 9.00002 0C7.34316 0 6.00002 1.34315 6.00002 3V8C6.00002 8.72295 6.25574 9.38617 6.68166 9.90414L5.97212 10.6137C5.5804 10.1599 5.29334 9.62103 5.13638 9.03525C4.99343 8.50179 4.4451 8.1852 3.91163 8.32815C3.37817 8.47109 3.06158 9.01943 3.20452 9.55289C3.45277 10.4793 3.91796 11.3275 4.55537 12.0304L0.292908 16.2929C-0.0976158 16.6834 -0.0976158 17.3166 0.292908 17.7071C0.683433 18.0976 1.3166 18.0976 1.70712 17.7071L17.7071 1.70711ZM8.11666 8.46914L10 6.58579V3C10 2.44772 9.5523 2 9.00002 2C8.44773 2 8.00002 2.44772 8.00002 3V8C8.00002 8.16954 8.04221 8.32923 8.11666 8.46914ZM8.99479 18H7.00002C6.44773 18 6.00002 17.5523 6.00002 17C6.00002 16.4477 6.44773 16 7.00002 16H8.00002V14.1213L8.17796 13.9434L9.11482 13.0065L10.3594 11.7619C10.7436 11.6231 11.1067 11.4254 11.4351 11.1734C12.1337 10.6374 12.6359 9.88579 12.8638 9.03525C13.0067 8.50179 13.5551 8.1852 14.0885 8.32815C14.622 8.47109 14.9386 9.01943 14.7956 9.55289C14.4538 10.8287 13.7005 11.956 12.6526 12.7601C11.8711 13.3598 10.9582 13.7547 9.99659 13.9167C9.99886 13.9441 10 13.9719 10 14V16H11C11.5523 16 12 16.4477 12 17C12 17.5523 11.5523 18 11 18H9.00524L9.00002 18L8.99479 18Z" fill="currentColor"/>
</svg>
