<svg width="18" height="18" viewBox="0 0 18 18" fill="none" xmlns="http://www.w3.org/2000/svg">
<path fillRule="evenodd" clipRule="evenodd" d="M5.91235 3C5.91235 1.34315 7.29469 0 8.9999 0C10.7051 0 12.0874 1.34315 12.0874 3V8C12.0874 9.65685 10.7051 11 8.9999 11C7.29469 11 5.91235 9.65685 5.91235 8V3ZM8.9999 2C8.4315 2 7.97072 2.44772 7.97072 3V8C7.97072 8.55228 8.4315 9 8.9999 9C9.5683 9 10.0291 8.55228 10.0291 8V3C10.0291 2.44772 9.5683 2 8.9999 2Z" fill="currentColor"/>
<path fillRule="evenodd" clipRule="evenodd" d="M14.2369 8.32815C14.786 8.47109 15.1118 9.01942 14.9647 9.55289C14.6129 10.8287 13.8376 11.956 12.7592 12.7601C11.6807 13.5642 10.3593 14 9 14C7.64065 14 6.31929 13.5642 5.24085 12.7601C4.1624 11.956 3.38715 10.8287 3.03532 9.55289C2.88821 9.01943 3.21403 8.47109 3.76306 8.32815C4.3121 8.1852 4.87644 8.50179 5.02355 9.03525C5.2581 9.88579 5.77493 10.6374 6.4939 11.1734C7.21286 11.7094 8.09377 12 9 12C9.90623 12 10.7871 11.7094 11.5061 11.1734C12.2251 10.6374 12.7419 9.88579 12.9764 9.03525C13.1236 8.50179 13.6879 8.1852 14.2369 8.32815Z" fill="currentColor"/>
<path fillRule="evenodd" clipRule="evenodd" d="M9.00001 13C9.56841 13 10.0292 13.4477 10.0292 14V17C10.0292 17.5523 9.56841 18 9.00001 18C8.43161 18 7.97083 17.5523 7.97083 17V14C7.97083 13.4477 8.43161 13 9.00001 13Z" fill="currentColor"/>
<path fillRule="evenodd" clipRule="evenodd" d="M5.91235 17C5.91235 16.4477 6.37313 16 6.94153 16L11.0583 16C11.6267 16 12.0874 16.4477 12.0874 17C12.0874 17.5523 11.6267 18 11.0583 18L6.94153 18C6.37313 18 5.91235 17.5523 5.91235 17Z" fill="currentColor"/>
</svg>
