<svg width="18" height="18" viewBox="0 0 18 18" fill="none" xmlns="http://www.w3.org/2000/svg">
<path fill-rule="evenodd" clip-rule="evenodd" d="M4.50006 1.20581C4.97835 0.929668 5.58994 1.09354 5.86608 1.57184L7.36608 4.16991C7.64223 4.6482 7.47835 5.2598 7.00006 5.53594C6.52177 5.81208 5.91018 5.6482 5.63403 5.16991L4.13403 2.57184C3.85789 2.09354 4.02177 1.48195 4.50006 1.20581Z" fill="currentColor"/>
<path fill-rule="evenodd" clip-rule="evenodd" d="M-6.24106e-08 9C-3.72743e-08 8.44771 0.447715 8 1 8L4 8C4.55228 8 5 8.44771 5 9C5 9.55228 4.55228 10 4 10L1 10C0.447715 10 -2.79422e-08 9.55228 -6.24106e-08 9Z" fill="currentColor"/>
<path fill-rule="evenodd" clip-rule="evenodd" d="M4.49994 16.7942C4.02165 16.518 3.85777 15.9065 4.13392 15.4282L5.63392 12.8301C5.91006 12.3518 6.52165 12.1879 6.99994 12.4641C7.47823 12.7402 7.64211 13.3518 7.36597 13.8301L5.86597 16.4282C5.58982 16.9065 4.97823 17.0703 4.49994 16.7942Z" fill="currentColor"/>
<path fill-rule="evenodd" clip-rule="evenodd" d="M11.0001 12.4641C11.4784 12.188 12.0899 12.3518 12.3661 12.8301L13.8661 15.4282C14.1422 15.9065 13.9784 16.5181 13.5001 16.7942C13.0218 17.0704 12.4102 16.9065 12.134 16.4282L10.634 13.8301C10.3579 13.3518 10.5218 12.7403 11.0001 12.4641Z" fill="currentColor"/>
<path fill-rule="evenodd" clip-rule="evenodd" d="M13 9C13 8.44772 13.4477 8 14 8L17 8C17.5523 8 18 8.44771 18 9C18 9.55228 17.5523 10 17 10L14 10C13.4477 10 13 9.55228 13 9Z" fill="currentColor"/>
<path fill-rule="evenodd" clip-rule="evenodd" d="M10.9999 5.53589C10.5216 5.25975 10.3578 4.64816 10.6339 4.16986L12.1339 1.57179C12.4101 1.09349 13.0216 0.929619 13.4999 1.20576C13.9782 1.4819 14.1421 2.09349 13.866 2.57179L12.366 5.16986C12.0898 5.64816 11.4782 5.81203 10.9999 5.53589Z" fill="currentColor"/>
<path fill-rule="evenodd" clip-rule="evenodd" d="M9 0C9.55228 0 10 0.447715 10 1V2C10 2.55228 9.55228 3 9 3C8.44772 3 8 2.55228 8 2V1C8 0.447715 8.44772 0 9 0Z" fill="currentColor"/>
<path fill-rule="evenodd" clip-rule="evenodd" d="M1.20581 13.4999C0.929668 13.0216 1.09354 12.4101 1.57184 12.1339L2.43786 11.6339C2.91615 11.3578 3.52774 11.5216 3.80389 11.9999C4.08003 12.4782 3.91615 13.0898 3.43786 13.366L2.57184 13.866C2.09354 14.1421 1.48195 13.9782 1.20581 13.4999Z" fill="currentColor"/>
<path fill-rule="evenodd" clip-rule="evenodd" d="M1.20581 4.49994C1.48195 4.02165 2.09354 3.85777 2.57184 4.13392L3.43786 4.63392C3.91615 4.91006 4.08003 5.52165 3.80389 5.99994C3.52774 6.47823 2.91615 6.64211 2.43786 6.36597L1.57184 5.86597C1.09354 5.58982 0.929668 4.97823 1.20581 4.49994Z" fill="currentColor"/>
<path fill-rule="evenodd" clip-rule="evenodd" d="M9 15C9.55228 15 10 15.4477 10 16V17C10 17.5523 9.55228 18 9 18C8.44772 18 8 17.5523 8 17V16C8 15.4477 8.44772 15 9 15Z" fill="currentColor"/>
<path fill-rule="evenodd" clip-rule="evenodd" d="M14.1962 5.99994C13.92 5.52165 14.0839 4.91006 14.5622 4.63392L15.4282 4.13392C15.9065 3.85777 16.5181 4.02165 16.7942 4.49994C17.0704 4.97823 16.9065 5.58982 16.4282 5.86597L15.5622 6.36597C15.0839 6.64211 14.4723 6.47823 14.1962 5.99994Z" fill="currentColor"/>
<path fill-rule="evenodd" clip-rule="evenodd" d="M14.1962 11.9999C14.4723 11.5216 15.0839 11.3578 15.5622 11.6339L16.4282 12.1339C16.9065 12.4101 17.0704 13.0216 16.7942 13.4999C16.5181 13.9782 15.9065 14.1421 15.4282 13.866L14.5622 13.366C14.0839 13.0898 13.92 12.4782 14.1962 11.9999Z" fill="currentColor"/>
</svg>
