<svg width="18" height="18" viewBox="0 0 18 18" fill="none" xmlns="http://www.w3.org/2000/svg">
<path fillRule="evenodd" clipRule="evenodd" d="M3 1C3 0.447715 3.44772 0 4 0H17C17.5523 0 18 0.447715 18 1V14C18 16.2091 16.2091 18 14 18H4C1.79086 18 0 16.2091 0 14V11C0 10.4477 0.447715 10 1 10H3V1ZM3 12H2V14C2 14.7403 2.4022 15.3866 3 15.7324V12ZM5 16V2H16V14C16 15.1046 15.1046 16 14 16H5Z" fill="currentColor"/>
<path fillRule="evenodd" clipRule="evenodd" d="M7 4.5C7 4.22386 7.22386 4 7.5 4H13.5C13.7761 4 14 4.22386 14 4.5C14 4.77614 13.7761 5 13.5 5H7.5C7.22386 5 7 4.77614 7 4.5Z" fill="currentColor"/>
<path fillRule="evenodd" clipRule="evenodd" d="M7 6.5C7 6.22386 7.22386 6 7.5 6H12.5C12.7761 6 13 6.22386 13 6.5C13 6.77614 12.7761 7 12.5 7H7.5C7.22386 7 7 6.77614 7 6.5Z" fill="currentColor"/>
<path fillRule="evenodd" clipRule="evenodd" d="M7 8.5C7 8.22386 7.22386 8 7.5 8H13.5C13.7761 8 14 8.22386 14 8.5C14 8.77614 13.7761 9 13.5 9H7.5C7.22386 9 7 8.77614 7 8.5Z" fill="currentColor"/>
<path fillRule="evenodd" clipRule="evenodd" d="M7 10.5C7 10.2239 7.22386 10 7.5 10H11.5C11.7761 10 12 10.2239 12 10.5C12 10.7761 11.7761 11 11.5 11H7.5C7.22386 11 7 10.7761 7 10.5Z" fill="currentColor"/>
<path fillRule="evenodd" clipRule="evenodd" d="M7 12.5C7 12.2239 7.22386 12 7.5 12H13.5C13.7761 12 14 12.2239 14 12.5C14 12.7761 13.7761 13 13.5 13H7.5C7.22386 13 7 12.7761 7 12.5Z" fill="currentColor"/>
</svg>
