<svg width="18" height="18" viewBox="0 0 18 18" fill="none" xmlns="http://www.w3.org/2000/svg">
<path fillRule="evenodd" clipRule="evenodd" d="M7 16L7 15C7 14.4477 6.55228 14 6 14C5.44771 14 5 14.4477 5 15L5 17C5 17.5523 5.44772 18 6 18L17 18C17.2652 18 17.5196 17.8946 17.7071 17.7071C17.8946 17.5196 18 17.2652 18 17L18 0.999999C18 0.447715 17.5523 -5.48678e-07 17 -5.24537e-07L6 -4.37114e-08C5.44772 -1.95703e-08 5 0.447716 5 1L5 3C5 3.55228 5.44772 4 6 4C6.55228 4 7 3.55229 7 3L7 2L16 2L16 16L7 16Z" fill="currentColor"/>
<path fillRule="evenodd" clipRule="evenodd" d="M-4.37114e-08 9C-6.78525e-08 8.44772 0.447715 8 1 8L13 8C13.5523 8 14 8.44771 14 9C14 9.55228 13.5523 10 13 10L1 10C0.447715 10 -1.95703e-08 9.55228 -4.37114e-08 9Z" fill="currentColor"/>
<path fillRule="evenodd" clipRule="evenodd" d="M4.70711 12.7071C5.09763 12.3166 5.09763 11.6834 4.70711 11.2929L1.70711 8.29289C1.31658 7.90237 0.683417 7.90237 0.292893 8.29289C-0.0976313 8.68342 -0.0976313 9.31658 0.292893 9.70711L3.29289 12.7071C3.68342 13.0976 4.31658 13.0976 4.70711 12.7071Z" fill="currentColor"/>
<path fillRule="evenodd" clipRule="evenodd" d="M4.70711 5.29289C5.09763 5.68342 5.09763 6.31658 4.70711 6.70711L1.70711 9.70711C1.31658 10.0976 0.683418 10.0976 0.292893 9.70711C-0.0976312 9.31658 -0.0976311 8.68342 0.292893 8.29289L3.29289 5.29289C3.68342 4.90237 4.31658 4.90237 4.70711 5.29289Z" fill="currentColor"/>
</svg>
