<svg width="18" height="18" viewBox="0 0 18 18" fill="none" xmlns="http://www.w3.org/2000/svg">
<g clip-path="url(#clip0_3232_50268)">
<path d="M5.0625 7.3125L10.6875 12.9375" stroke="#A69D9D" stroke-linecap="round" stroke-linejoin="round"/>
<path d="M7.15786 12.8953L4.96411 15.089" stroke="#A69D9D" stroke-linecap="round" stroke-linejoin="round"/>
<path d="M5.18911 10.9265L2.99536 13.1203" stroke="#A69D9D" stroke-linecap="round" stroke-linejoin="round"/>
<path d="M9.56953 6.48281L13.4297 2.17968C13.7467 1.86267 14.1767 1.68457 14.625 1.68457C15.0733 1.68457 15.5033 1.86267 15.8203 2.17968C16.1373 2.4967 16.3154 2.92667 16.3154 3.375C16.3154 3.82333 16.1373 4.25329 15.8203 4.57031L11.5172 8.43047C11.4605 8.48157 11.4148 8.54368 11.3829 8.61301C11.3509 8.68234 11.3335 8.75744 11.3315 8.83375C11.3295 8.91005 11.3431 8.98596 11.3714 9.05685C11.3997 9.12774 11.4421 9.19212 11.4961 9.24609L12.143 9.89297C12.3517 10.1048 12.4686 10.3902 12.4686 10.6875C12.4686 10.9848 12.3517 11.2702 12.143 11.482L6.75 16.875L1.125 11.25L6.51797 5.85703C6.72976 5.64834 7.01516 5.53136 7.3125 5.53136C7.60984 5.53136 7.89524 5.64834 8.10703 5.85703L8.75391 6.5039C8.80787 6.55788 8.87226 6.60032 8.94315 6.62862C9.01404 6.65692 9.08994 6.67049 9.16625 6.66852C9.24255 6.66655 9.31766 6.64906 9.38699 6.61714C9.45632 6.58521 9.51843 6.53951 9.56953 6.48281Z" stroke="#A69D9D" stroke-linecap="round" stroke-linejoin="round"/>
</g>
<defs>
<clipPath id="clip0_3232_50268">
<rect width="18" height="18" fill="white"/>
</clipPath>
</defs>
</svg>
