<svg width="18" height="18" viewBox="0 0 18 18" fill="none" xmlns="http://www.w3.org/2000/svg">
<path fill-rule="evenodd" clip-rule="evenodd" d="M0 1C0 0.447715 0.447715 0 1 0H7C7.55228 0 8 0.447715 8 1V8C8 8.55228 7.55228 9 7 9H1C0.447715 9 0 8.55228 0 8V1ZM2 2V7H6V2H2Z" fill="currentColor"/>
<path fill-rule="evenodd" clip-rule="evenodd" d="M10 11C10 10.4477 10.4477 10 11 10H17C17.5523 10 18 10.4477 18 11V17C18 17.5523 17.5523 18 17 18H11C10.4477 18 10 17.5523 10 17V11ZM12 12V16H16V12H12Z" fill="currentColor"/>
<path fill-rule="evenodd" clip-rule="evenodd" d="M4 11C4.35126 11 4.67677 11.1843 4.85749 11.4855L7.85749 16.4855C8.04285 16.7944 8.04771 17.1792 7.8702 17.4927C7.69269 17.8062 7.36027 18 7 18L1 18C0.639728 18 0.307306 17.8062 0.1298 17.4927C-0.0477054 17.1792 -0.0428512 16.7944 0.142507 16.4855L3.14251 11.4855C3.32323 11.1843 3.64874 11 4 11ZM4 13.9437L2.76619 16H5.23381L4 13.9437Z" fill="currentColor"/>
<path fill-rule="evenodd" clip-rule="evenodd" d="M10 4C10 1.79086 11.7909 0 14 0C16.2091 0 18 1.79086 18 4C18 6.20914 16.2091 8 14 8C11.7909 8 10 6.20914 10 4ZM14 2C12.8954 2 12 2.89543 12 4C12 5.10457 12.8954 6 14 6C15.1046 6 16 5.10457 16 4C16 2.89543 15.1046 2 14 2Z" fill="currentColor"/>
</svg>
