<svg width="18" height="18" viewBox="0 0 18 18" fill="none" xmlns="http://www.w3.org/2000/svg">
<path fill-rule="evenodd" clip-rule="evenodd" d="M7.00024 2C7.00024 0.89543 7.89567 0 9.00024 0C10.1048 0 11.0002 0.89543 11.0002 2C11.0002 3.10457 10.1048 4 9.00024 4C7.89567 4 7.00024 3.10457 7.00024 2Z" fill="currentColor"/>
<path fill-rule="evenodd" clip-rule="evenodd" d="M5.10579 5.55279C5.27518 5.214 5.62145 5 6.00022 5H12.0002C12.379 5 12.7253 5.214 12.8946 5.55279L14.8946 9.55279C15.1416 10.0468 14.9414 10.6474 14.4474 10.8944C13.9535 11.1414 13.3528 10.9412 13.1058 10.4472L11.3822 7H6.61825L4.89465 10.4472C4.64766 10.9412 4.04698 11.1414 3.55301 10.8944C3.05903 10.6474 2.8588 10.0468 3.10579 9.55279L5.10579 5.55279Z" fill="currentColor"/>
<path fill-rule="evenodd" clip-rule="evenodd" d="M6.00024 12C6.00024 11.4477 6.44796 11 7.00024 11H11.0002C11.5525 11 12.0002 11.4477 12.0002 12C12.0002 12.5523 11.5525 13 11.0002 13H7.00024C6.44796 13 6.00024 12.5523 6.00024 12Z" fill="currentColor"/>
<path fill-rule="evenodd" clip-rule="evenodd" d="M6.00024 6C6.00024 5.44772 6.44796 5 7.00024 5H11.0002C11.5525 5 12.0002 5.44772 12.0002 6V17C12.0002 17.5523 11.5525 18 11.0002 18C10.448 18 10.0002 17.5523 10.0002 17V7H8.00024V17C8.00024 17.5523 7.55253 18 7.00024 18C6.44796 18 6.00024 17.5523 6.00024 17V6Z" fill="currentColor"/>
</svg>
