<svg width="18" height="18" viewBox="0 0 18 18" fill="none" xmlns="http://www.w3.org/2000/svg">
<path fill-rule="evenodd" clip-rule="evenodd" d="M9 2C5.13401 2 2 5.13401 2 9C2 12.866 5.13401 16 9 16C12.866 16 16 12.866 16 9C16 5.13401 12.866 2 9 2ZM0 9C0 4.02944 4.02944 0 9 0C13.9706 0 18 4.02944 18 9C18 13.9706 13.9706 18 9 18C4.02944 18 0 13.9706 0 9Z" fill="#A69D9D"/>
<path d="M7 12.6263V5.3737C7 5.21396 7.17803 5.11869 7.31094 5.20729L12.7504 8.83359C12.8691 8.91275 12.8691 9.08725 12.7504 9.16641L7.31094 12.7927C7.17803 12.8813 7 12.786 7 12.6263Z" fill="#A69D9D" stroke="#A69D9D"/>
</svg>
