<svg width="18" height="18" viewBox="0 0 18 18" fill="none" xmlns="http://www.w3.org/2000/svg">
<path fillRule="evenodd" clipRule="evenodd" d="M6 3C6 2.44771 6.44772 2 7 2L17 2.00002C17.5523 2.00002 18 2.44773 18 3.00002C18 3.5523 17.5523 4.00002 17 4.00002L7 4C6.44771 4 6 3.55228 6 3Z" fill="currentColor"/>
<path fillRule="evenodd" clipRule="evenodd" d="M3.00001 4L1.00001 4.00002C0.447724 4.00002 4.78491e-06 3.55231 8.74612e-08 3.00003C-4.60998e-06 2.44774 0.447707 2.00002 0.999992 2.00002L2.99999 2C3.55228 2 4 2.44771 4 2.99999C4 3.55228 3.55229 4 3.00001 4Z" fill="currentColor"/>
<path fillRule="evenodd" clipRule="evenodd" d="M8.74228e-08 9C9.87451e-08 8.44772 0.447715 8 1 8L13 8C13.5523 8 14 8.44772 14 9C14 9.55228 13.5523 10 13 10L1 10C0.447715 10 1.35705e-07 9.55228 8.74228e-08 9Z" fill="currentColor"/>
<path fillRule="evenodd" clipRule="evenodd" d="M8.74228e-08 15C9.87451e-08 14.4477 0.447715 14 1 14L6 14C6.55228 14 7 14.4477 7 15C7 15.5523 6.55228 16 6 16L1 16C0.447715 16 1.35705e-07 15.5523 8.74228e-08 15Z" fill="currentColor"/>
<path fillRule="evenodd" clipRule="evenodd" d="M9 15C9 14.4477 9.44772 14 10 14L17 14C17.5523 14 18 14.4477 18 15C18 15.5523 17.5523 16 17 16L10 16C9.44772 16 9 15.5523 9 15Z" fill="currentColor"/>
<path fillRule="evenodd" clipRule="evenodd" d="M5 2C4.44772 2 4 2.44772 4 3C4 3.55228 4.44772 4 5 4C5.55229 4 6 3.55228 6 3C6 2.44771 5.55228 2 5 2ZM2 3C2 1.34315 3.34315 -1.17422e-07 5 -2.62268e-07C6.65685 -4.07115e-07 8 1.34315 8 3C8 4.65685 6.65685 6 5 6C3.34315 6 2 4.65685 2 3Z" fill="currentColor"/>
<path fillRule="evenodd" clipRule="evenodd" d="M15 8C14.4477 8 14 8.44772 14 9C14 9.55228 14.4477 10 15 10C15.5523 10 16 9.55228 16 9C16 8.44771 15.5523 8 15 8ZM12 9C12 7.34315 13.3431 6 15 6C16.6569 6 18 7.34315 18 9C18 10.6569 16.6569 12 15 12C13.3431 12 12 10.6569 12 9Z" fill="currentColor"/>
<path fillRule="evenodd" clipRule="evenodd" d="M8 14C7.44772 14 7 14.4477 7 15C7 15.5523 7.44772 16 8 16C8.55229 16 9 15.5523 9 15C9 14.4477 8.55228 14 8 14ZM5 15C5 13.3431 6.34315 12 8 12C9.65685 12 11 13.3431 11 15C11 16.6569 9.65685 18 8 18C6.34315 18 5 16.6569 5 15Z" fill="currentColor"/>
</svg>
