<svg width="18" height="18" viewBox="0 0 18 18" fill="none" xmlns="http://www.w3.org/2000/svg">
<path fillRule="evenodd" clipRule="evenodd" d="M9 2C5.13401 2 2 5.13401 2 9C2 12.866 5.13401 16 9 16C12.866 16 16 12.866 16 9C16 5.13401 12.866 2 9 2ZM0 9C0 4.02944 4.02944 0 9 0C13.9706 0 18 4.02944 18 9C18 13.9706 13.9706 18 9 18C4.02944 18 0 13.9706 0 9Z" fill="currentColor"/>
<path d="M10 13C10 13.5523 9.55228 14 9 14C8.44772 14 8 13.5523 8 13C8 12.4477 8.44772 12 9 12C9.55228 12 10 12.4477 10 13Z" fill="#B4B4B4"/>
<path fillRule="evenodd" clipRule="evenodd" d="M9 14C9.55228 14 10 13.5523 10 13C10 12.4477 9.55228 12 9 12C8.44772 12 8 12.4477 8 13C8 13.5523 8.44772 14 9 14Z" fill="currentColor"/>
<path fillRule="evenodd" clipRule="evenodd" d="M7.42779 5.35557C7.80007 5.16943 8.32724 5 9 5C9.64804 5 10.3917 5.15968 10.9957 5.63783C11.6367 6.14533 12 6.91736 11.9999 7.87504C11.9999 9.84193 10.5118 11 8.99995 11C8.44766 11 7.99995 10.5523 7.99995 10C7.99995 9.44772 8.44766 9 8.99995 9C9.4882 9 9.99992 8.65807 9.99995 7.87496C9.99996 7.45764 9.86324 7.29217 9.75428 7.20592C9.60827 7.09032 9.35196 7 9 7C8.67276 7 8.44993 7.08057 8.32221 7.14443C8.25672 7.17717 8.21379 7.20685 8.19375 7.22187C8.18965 7.22495 8.18657 7.22737 8.18451 7.22902C7.79252 7.59749 7.17597 7.59018 6.79289 7.20711C6.40237 6.81658 6.40237 6.18342 6.79289 5.79289L7.49995 6.49995C6.79289 5.79289 6.79324 5.79255 6.79359 5.7922L6.7943 5.79149L6.79576 5.79003L6.79885 5.78699L6.80567 5.78033L6.82192 5.76485C6.83391 5.75361 6.84824 5.74054 6.86493 5.72594C6.89828 5.69676 6.9412 5.66129 6.99375 5.62187C7.09871 5.54315 7.24328 5.44783 7.42779 5.35557Z" fill="currentColor"/>
</svg>
