<svg width="18" height="18" viewBox="0 0 18 18" fill="none" xmlns="http://www.w3.org/2000/svg">
<path fill-rule="evenodd" clip-rule="evenodd" d="M13 2C12.4477 2 12 2.44772 12 3C12 3.55228 12.4477 4 13 4C13.5523 4 14 3.55228 14 3C14 2.44772 13.5523 2 13 2ZM10 3C10 1.34315 11.3431 0 13 0C14.6569 0 16 1.34315 16 3C16 4.65685 14.6569 6 13 6C11.3431 6 10 4.65685 10 3Z" fill="currentColor"/>
<path fill-rule="evenodd" clip-rule="evenodd" d="M5 14C4.44772 14 4 14.4477 4 15C4 15.5523 4.44772 16 5 16C5.55228 16 6 15.5523 6 15C6 14.4477 5.55228 14 5 14ZM2 15C2 13.3431 3.34315 12 5 12C6.65685 12 8 13.3431 8 15C8 16.6569 6.65685 18 5 18C3.34315 18 2 16.6569 2 15Z" fill="currentColor"/>
<path fill-rule="evenodd" clip-rule="evenodd" d="M9 8C8.44772 8 8 8.44772 8 9C8 9.55228 8.44772 10 9 10C9.55228 10 10 9.55228 10 9C10 8.44772 9.55228 8 9 8ZM6 9C6 7.34315 7.34315 6 9 6C10.6569 6 12 7.34315 12 9C12 10.6569 10.6569 12 9 12C7.34315 12 6 10.6569 6 9Z" fill="currentColor"/>
<path fill-rule="evenodd" clip-rule="evenodd" d="M5 2C4.44772 2 4 2.44772 4 3C4 3.55228 4.44772 4 5 4C5.55228 4 6 3.55228 6 3C6 2.44772 5.55228 2 5 2ZM2 3C2 1.34315 3.34315 0 5 0C6.65685 0 8 1.34315 8 3C8 4.65685 6.65685 6 5 6C3.34315 6 2 4.65685 2 3Z" fill="currentColor"/>
<path fill-rule="evenodd" clip-rule="evenodd" d="M14.2929 12.2929C14.6834 11.9024 15.3166 11.9024 15.7071 12.2929L17.7071 14.2929C18.0976 14.6834 18.0976 15.3166 17.7071 15.7071L15.7071 17.7071C15.3166 18.0976 14.6834 18.0976 14.2929 17.7071C13.9024 17.3166 13.9024 16.6834 14.2929 16.2929L15.5858 15L14.2929 13.7071C13.9024 13.3166 13.9024 12.6834 14.2929 12.2929Z" fill="currentColor"/>
<path fill-rule="evenodd" clip-rule="evenodd" d="M3 2H1C0.447715 2 0 2.44772 0 3C0 3.55228 0.447715 4 1 4H3V2ZM7 4V2H11V4H7ZM15 4.26756C15.5978 4.61337 16 5.25972 16 6C16 7.10457 15.1046 8 14 8H11V10H14C16.2091 10 18 8.20914 18 6C18 4.13616 16.7252 2.57006 15 2.12602V4.26756ZM7 10V8H4C1.79086 8 0 9.79086 0 12C0 13.8638 1.27477 15.4299 3 15.874V13.7324C2.4022 13.3866 2 12.7403 2 12C2 10.8954 2.89543 10 4 10H7ZM7 14V16H17C17.5523 16 18 15.5523 18 15C18 14.4477 17.5523 14 17 14H7Z" fill="currentColor"/>
</svg>
