<svg width="18" height="18" viewBox="0 0 18 18" fill="none" xmlns="http://www.w3.org/2000/svg">
<path fill-rule="evenodd" clip-rule="evenodd" d="M17 0C17.5523 0 18 0.447715 18 1V6C18 6.55228 17.5523 7 17 7H12C11.4477 7 11 6.55228 11 6C11 5.44772 11.4477 5 12 5H16V1C16 0.447715 16.4477 0 17 0Z" fill="currentColor"/>
<path fill-rule="evenodd" clip-rule="evenodd" d="M6.32589 0.406451C8.21762 -0.182214 10.2507 -0.130216 12.1099 0.55438C13.9691 1.23898 15.5504 2.51791 16.6086 4.19283C16.9036 4.65973 16.7643 5.27737 16.2973 5.57236C15.8304 5.86735 15.2128 5.72799 14.9178 5.26109C14.0948 3.95837 12.8648 2.96365 11.4188 2.43118C9.97279 1.89872 8.39148 1.85828 6.92013 2.31613C5.44879 2.77398 4.16963 3.70453 3.28105 4.96347C2.39247 6.22241 1.94413 7.73937 2.00557 9.27909C2.06701 10.8188 2.63478 12.2952 3.62084 13.4794C4.6069 14.6635 5.95614 15.4892 7.45929 15.8283C8.96244 16.1675 10.5355 16.0012 11.9345 15.3552C13.3335 14.7092 14.4803 13.6197 15.1969 12.2555C15.4538 11.7666 16.0583 11.5785 16.5473 11.8353C17.0362 12.0922 17.2243 12.6968 16.9674 13.1857C16.046 14.9396 14.5716 16.3404 12.7729 17.171C10.9742 18.0015 8.9517 18.2154 7.01908 17.7793C5.08646 17.3432 3.35173 16.2816 2.08394 14.7592C0.816148 13.2367 0.0861489 11.3385 0.00715934 9.35883C-0.0718302 7.37919 0.504605 5.42881 1.64706 3.81018C2.78952 2.19154 4.43415 0.995116 6.32589 0.406451Z" fill="currentColor"/>
</svg>
