<svg width="18" height="18" viewBox="0 0 18 18" fill="none" xmlns="http://www.w3.org/2000/svg">
<path fill-rule="evenodd" clip-rule="evenodd" d="M9 2C7.89543 2 7 2.89543 7 4C7 5.10457 7.89543 6 9 6C10.1046 6 11 5.10457 11 4C11 2.89543 10.1046 2 9 2ZM5 4C5 1.79086 6.79086 0 9 0C11.2091 0 13 1.79086 13 4C13 6.20914 11.2091 8 9 8C6.79086 8 5 6.20914 5 4Z" fill="currentColor"/>
<path fill-rule="evenodd" clip-rule="evenodd" d="M9 14C8.44772 14 8 14.4477 8 15C8 15.5523 8.44772 16 9 16C9.55228 16 10 15.5523 10 15C10 14.4477 9.55228 14 9 14ZM6 15C6 13.3431 7.34315 12 9 12C10.6569 12 12 13.3431 12 15C12 16.6569 10.6569 18 9 18C7.34315 18 6 16.6569 6 15Z" fill="currentColor"/>
<path fill-rule="evenodd" clip-rule="evenodd" d="M15 14C14.4477 14 14 14.4477 14 15C14 15.5523 14.4477 16 15 16C15.5523 16 16 15.5523 16 15C16 14.4477 15.5523 14 15 14ZM12 15C12 13.3431 13.3431 12 15 12C16.6569 12 18 13.3431 18 15C18 16.6569 16.6569 18 15 18C13.3431 18 12 16.6569 12 15Z" fill="currentColor"/>
<path fill-rule="evenodd" clip-rule="evenodd" d="M3 14C2.44772 14 2 14.4477 2 15C2 15.5523 2.44772 16 3 16C3.55228 16 4 15.5523 4 15C4 14.4477 3.55228 14 3 14ZM0 15C0 13.3431 1.34315 12 3 12C4.65685 12 6 13.3431 6 15C6 16.6569 4.65685 18 3 18C1.34315 18 0 16.6569 0 15Z" fill="currentColor"/>
<path fill-rule="evenodd" clip-rule="evenodd" d="M8 9V7H10V9H15C15.5523 9 16 9.44772 16 10V13H14V11H10V13H8V11H4V13H2V10C2 9.44772 2.44772 9 3 9H8Z" fill="currentColor"/>
</svg>
