<svg width="18" height="18" viewBox="0 0 18 18" fill="none" xmlns="http://www.w3.org/2000/svg">
<path fillRule="evenodd" clipRule="evenodd" d="M0 1C0 0.447715 0.447715 0 1 0H14C14.2652 0 14.5196 0.105357 14.7071 0.292893L17.7071 3.29289C17.8946 3.48043 18 3.73478 18 4V17C18 17.5523 17.5523 18 17 18H1C0.447715 18 0 17.5523 0 17V1ZM2 2V16H16V4.41421L13.5858 2H2Z" fill="currentColor"/>
<path fillRule="evenodd" clipRule="evenodd" d="M4 1C4 0.447715 4.44772 0 5 0H13C13.5523 0 14 0.447715 14 1V6C14 6.55228 13.5523 7 13 7H5C4.44772 7 4 6.55228 4 6V1ZM6 2V5H12V2H6Z" fill="currentColor"/>
<path fillRule="evenodd" clipRule="evenodd" d="M3 9C3 8.44772 3.44772 8 4 8H14C14.5523 8 15 8.44772 15 9V17C15 17.5523 14.5523 18 14 18H4C3.44772 18 3 17.5523 3 17V9ZM5 10V16H13V10H5Z" fill="currentColor"/>
<path fillRule="evenodd" clipRule="evenodd" d="M10 5L10 2L11 2L11 5L10 5Z" fill="currentColor"/>
</svg>
