<svg width="18" height="18" viewBox="0 0 18 18" fill="none" xmlns="http://www.w3.org/2000/svg">
<path fill-rule="evenodd" clip-rule="evenodd" d="M7.5 15C9.39113 15 11.1188 14.3001 12.438 13.1451L13.0339 13.741C12.9448 14.0747 13.0312 14.4454 13.2929 14.7071L16.2929 17.7071C16.6834 18.0976 17.3166 18.0976 17.7071 17.7071C18.0976 17.3166 18.0976 16.6834 17.7071 16.2929L14.7071 13.2929C14.4454 13.0312 14.0747 12.9448 13.741 13.0339L13.1451 12.438C14.3001 11.1188 15 9.39113 15 7.5C15 3.35786 11.6421 0 7.5 0C3.35786 0 0 3.35786 0 7.5C0 11.6421 3.35786 15 7.5 15ZM7.5 13C10.5376 13 13 10.5376 13 7.5C13 4.46243 10.5376 2 7.5 2C4.46243 2 2 4.46243 2 7.5C2 10.5376 4.46243 13 7.5 13Z" fill="currentColor"/>
</svg>
