<svg width="18" height="18" viewBox="0 0 18 18" fill="none" xmlns="http://www.w3.org/2000/svg">
  <g opacity="0.5">
    <path fill-rule="evenodd" clip-rule="evenodd" d="M3 2C2.44772 2 2 2.44772 2 3C2 3.55228 2.44772 4 3 4C3.55228 4 4 3.55228 4 3C4 2.44772 3.55228 2 3 2ZM0 3C0 1.34315 1.34315 0 3 0C4.65685 0 6 1.34315 6 3C6 4.65685 4.65685 6 3 6C1.34315 6 0 4.65685 0 3Z" fill="#A69D9D"/>
    <path fill-rule="evenodd" clip-rule="evenodd" d="M4 12C2.89543 12 2 12.8954 2 14C2 15.1046 2.89543 16 4 16C5.10457 16 6 15.1046 6 14C6 12.8954 5.10457 12 4 12ZM0 14C0 11.7909 1.79086 10 4 10C6.20914 10 8 11.7909 8 14C8 16.2091 6.20914 18 4 18C1.79086 18 0 16.2091 0 14Z" fill="#A69D9D"/>
    <path fill-rule="evenodd" clip-rule="evenodd" d="M13 6C11.3431 6 10 7.34315 10 9C10 10.6569 11.3431 12 13 12C14.6569 12 16 10.6569 16 9C16 7.34315 14.6569 6 13 6ZM8 9C8 6.23858 10.2386 4 13 4C15.7614 4 18 6.23858 18 9C18 11.7614 15.7614 14 13 14C10.2386 14 8 11.7614 8 9Z" fill="#A69D9D"/>
    <path fill-rule="evenodd" clip-rule="evenodd" d="M9.99618 11.8683L6.49618 13.8683L5.50391 12.1318L9.00391 10.1318L9.99618 11.8683Z" fill="#A69D9D"/>
    <path fill-rule="evenodd" clip-rule="evenodd" d="M8.98547 7.85756L3.98547 4.85756L5.01447 3.14258L10.0145 6.14258L8.98547 7.85756Z" fill="#A69D9D"/>
  </g>
</svg>
