<svg width="14" height="18" viewBox="0 0 14 18" fill="none" xmlns="http://www.w3.org/2000/svg">
  <path fill-rule="evenodd" clip-rule="evenodd" d="M0.639775 3.6945C1.60315 1.63165 3.67557 0 6.99992 0C10.3243 0 12.3967 1.63165 13.36 3.69451C14.2775 5.659 14.1823 8.02363 13.2407 9.53003C12.2882 11.0538 10.7448 13.2982 9.4807 15.1363C8.80929 16.1127 8.21671 16.9744 7.8334 17.5526C7.64814 17.832 7.33519 18 6.99992 18C6.66466 18 6.3517 17.832 6.16645 17.5526C5.78308 16.9743 5.1904 16.1124 4.5189 15.136C3.2549 13.2979 1.71159 11.0537 0.759173 9.53006C-0.182471 8.02364 -0.277663 5.65899 0.639775 3.6945ZM2.4519 4.54079C1.77601 5.98807 1.92594 7.62341 2.4551 8.46995C3.39014 9.96579 4.86091 12.1036 6.1055 13.9128C6.42251 14.3735 6.72485 14.813 6.99992 15.2151C7.27494 14.8131 7.5772 14.3738 7.89414 13.9131C9.13879 12.1039 10.6097 9.96591 11.5447 8.46997C12.0739 7.62343 12.2238 5.98806 11.5479 4.54078C10.918 3.19188 9.5586 2 6.99992 2C4.44123 2 3.08186 3.19188 2.4519 4.54079Z" fill="#A69D9D"/>
  <path fill-rule="evenodd" clip-rule="evenodd" d="M6.99988 9C8.10445 9 8.99988 8.10457 8.99988 7C8.99988 5.89543 8.10445 5 6.99988 5C5.89531 5 4.99988 5.89543 4.99988 7C4.99988 8.10457 5.89531 9 6.99988 9Z" fill="#A69D9D"/>
</svg>
