<svg width="18" height="18" viewBox="0 0 18 18" fill="none" xmlns="http://www.w3.org/2000/svg">
<path fill-rule="evenodd" clip-rule="evenodd" d="M17 2C17.5523 2 18 2.44772 18 3V6C18 6.55228 17.5523 7 17 7H14C13.4477 7 13 6.55228 13 6C13 5.44772 13.4477 5 14 5H16V3C16 2.44772 16.4477 2 17 2Z" fill="currentColor"/>
<path fill-rule="evenodd" clip-rule="evenodd" d="M1 16C0.447715 16 0 15.5523 0 15V12C0 11.4477 0.447715 11 1 11H4C4.55228 11 5 11.4477 5 12C5 12.5523 4.55228 13 4 13H2V15C2 15.5523 1.55228 16 1 16Z" fill="currentColor"/>
<path fill-rule="evenodd" clip-rule="evenodd" d="M8.16201 0.0391048C9.81613 -0.115589 11.4808 0.190586 12.9716 0.923718C14.4625 1.65685 15.7213 2.78833 16.6087 4.19283C16.9036 4.65973 16.7643 5.27737 16.2974 5.57236C15.8305 5.86736 15.2128 5.72799 14.9178 5.26109C14.2277 4.1687 13.2486 3.28866 12.0891 2.71845C10.9295 2.14823 9.63478 1.9101 8.34824 2.03042C7.06169 2.15073 5.83356 2.62481 4.79986 3.40013C3.76616 4.17546 2.96723 5.22178 2.49157 6.4232C2.28827 6.9367 1.70718 7.18817 1.19368 6.98486C0.680172 6.78156 0.428706 6.20047 0.63201 5.68696C1.24358 4.14228 2.27077 2.79702 3.59981 1.80017C4.92885 0.803323 6.50788 0.193799 8.16201 0.0391048Z" fill="currentColor"/>
<path fill-rule="evenodd" clip-rule="evenodd" d="M9.83799 17.9609C8.18387 18.1156 6.5192 17.8094 5.02837 17.0763C3.53754 16.3431 2.27872 15.2117 1.39135 13.8072C1.09636 13.3403 1.23572 12.7226 1.70262 12.4276C2.16952 12.1326 2.78716 12.272 3.08215 12.7389C3.77233 13.8313 4.75141 14.7113 5.91095 15.2816C7.07048 15.8518 8.36522 16.0899 9.65176 15.9696C10.9383 15.8493 12.1664 15.3752 13.2001 14.5999C14.2338 13.8245 15.0328 12.7782 15.5084 11.5768C15.7117 11.0633 16.2928 10.8118 16.8063 11.0151C17.3198 11.2184 17.5713 11.7995 17.368 12.313C16.7564 13.8577 15.7292 15.203 14.4002 16.1998C13.0711 17.1967 11.4921 17.8062 9.83799 17.9609Z" fill="currentColor"/>
<path fill-rule="evenodd" clip-rule="evenodd" d="M5.9453 5.54295C6.58555 5.11611 7.47538 5 8.5 5H11C11.5523 5 12 5.44772 12 6C12 6.55228 11.5523 7 11 7H8.5C7.52462 7 7.16445 7.13389 7.0547 7.20705C7.03426 7.22067 7.03361 7.22365 7.03297 7.22658C7.03285 7.22715 7.03272 7.22772 7.03245 7.22837C7.02311 7.2508 7 7.32539 7 7.5C7 7.65149 7.01759 7.7156 7.02407 7.734C7.02962 7.73847 7.04039 7.74633 7.05864 7.75676C7.24508 7.8633 7.75279 8 9 8C10.2528 8 11.2451 8.1133 11.9336 8.50676C12.3184 8.72663 12.6117 9.03408 12.7919 9.4271C12.9615 9.79718 13 10.1769 13 10.5C13 10.8231 12.9615 11.2028 12.7919 11.5729C12.6117 11.9659 12.3184 12.2734 11.9336 12.4932C11.2451 12.8867 10.2528 13 9 13H7C6.44772 13 6 12.5523 6 12C6 11.4477 6.44772 11 7 11H9C10.2472 11 10.7549 10.8633 10.9414 10.7568C10.9596 10.7463 10.9704 10.7385 10.9759 10.734C10.9824 10.7156 11 10.6515 11 10.5C11 10.3485 10.9824 10.2844 10.9759 10.266C10.9704 10.2615 10.9596 10.2537 10.9414 10.2432C10.7549 10.1367 10.2472 10 9 10C7.74721 10 6.75492 9.8867 6.06636 9.49324C5.68159 9.27337 5.38825 8.96592 5.20812 8.5729C5.0385 8.20282 5 7.82305 5 7.5C5 6.82469 5.18169 6.05202 5.9453 5.54295Z" fill="currentColor"/>
<path fill-rule="evenodd" clip-rule="evenodd" d="M9 4C9.55228 4 10 4.44772 10 5V13C10 13.5523 9.55228 14 9 14C8.44772 14 8 13.5523 8 13V5C8 4.44772 8.44772 4 9 4Z" fill="currentColor"/>
</svg>
