<svg width="18" height="18" viewBox="0 0 18 18" fill="none" xmlns="http://www.w3.org/2000/svg">
<path fillRule="evenodd" clipRule="evenodd" d="M0 1C0 0.447715 0.447715 0 1 0H7C7.26522 0 7.51957 0.105357 7.70711 0.292893L17.7071 10.2929C18.0976 10.6834 18.0976 11.3166 17.7071 11.7071L11.7071 17.7071C11.3166 18.0976 10.6834 18.0976 10.2929 17.7071L0.292893 7.70711C0.105357 7.51957 0 7.26522 0 7V1ZM2 2V6.58579L11 15.5858L15.5858 11L6.58579 2H2Z" fill="currentColor"/>
<path fillRule="evenodd" clipRule="evenodd" d="M4.5 5C4.77614 5 5 4.77614 5 4.5C5 4.22386 4.77614 4 4.5 4C4.22386 4 4 4.22386 4 4.5C4 4.77614 4.22386 5 4.5 5ZM4.5 6C5.32843 6 6 5.32843 6 4.5C6 3.67157 5.32843 3 4.5 3C3.67157 3 3 3.67157 3 4.5C3 5.32843 3.67157 6 4.5 6Z" fill="currentColor"/>
</svg>
