<svg width="18" height="18" viewBox="0 0 18 18" fill="none" xmlns="http://www.w3.org/2000/svg">
<path fillRule="evenodd" clipRule="evenodd" d="M9 13C9.55228 13 10 12.5523 10 12V6C10 5.44772 9.55228 5 9 5C8.44772 5 8 5.44772 8 6V12C8 12.5523 8.44772 13 9 13Z" fill="currentColor"/>
<path fillRule="evenodd" clipRule="evenodd" d="M13 9C13 8.44772 12.5523 8 12 8L6 8C5.44772 8 5 8.44772 5 9C5 9.55229 5.44772 10 6 10L12 10C12.5523 10 13 9.55228 13 9Z" fill="currentColor"/>
<path fillRule="evenodd" clipRule="evenodd" d="M16 18C17.1046 18 18 17.1046 18 16L18 2C18 0.89543 17.1046 -3.91405e-08 16 -8.74228e-08L2 -6.99382e-07C0.89543 1.15968e-06 7.47664e-07 0.895431 6.99382e-07 2L8.74228e-08 16C3.91405e-08 17.1046 0.89543 18 2 18L16 18ZM16 2L16 16L2 16L2 2L16 2Z" fill="currentColor"/>
</svg>
