<svg width="18" height="18" viewBox="0 0 18 18" fill="none" xmlns="http://www.w3.org/2000/svg">
<path fill-rule="evenodd" clip-rule="evenodd" d="M12.7071 12.7071C13.0976 12.3166 13.0976 11.6834 12.7071 11.2929L6.70719 5.29295C6.31667 4.90243 5.6835 4.90243 5.29298 5.29295C4.90246 5.68348 4.90246 6.31664 5.29298 6.70716L11.2929 12.7071C11.6834 13.0976 12.3166 13.0976 12.7071 12.7071Z" fill="currentColor"/>
<path fill-rule="evenodd" clip-rule="evenodd" d="M12.7071 5.29289C12.3166 4.90237 11.6834 4.90237 11.2929 5.29289L5.29295 11.2928C4.90243 11.6833 4.90243 12.3165 5.29295 12.707C5.68348 13.0975 6.31664 13.0975 6.70717 12.707L12.7071 6.70711C13.0976 6.31658 13.0976 5.68342 12.7071 5.29289Z" fill="currentColor"/>
<path fill-rule="evenodd" clip-rule="evenodd" d="M16 18C17.1046 18 18 17.1046 18 16L18 2C18 0.89543 17.1046 -3.91405e-08 16 -8.74228e-08L2 -6.99382e-07C0.89543 1.15968e-06 7.47664e-07 0.895431 6.99382e-07 2L8.74228e-08 16C3.91405e-08 17.1046 0.89543 18 2 18L16 18ZM16 2L16 16L2 16L2 2L16 2Z" fill="currentColor"/>
</svg>
