<svg width="18" height="18" viewBox="0 0 18 18" fill="none" xmlns="http://www.w3.org/2000/svg">
  <path fill-rule="evenodd" clip-rule="evenodd" d="M4.25671 9.83104C4.62617 9.42053 5.25846 9.38725 5.66897 9.75671L6.66668 10.6546L9.33104 8.25671C9.74155 7.88725 10.3738 7.92053 10.7433 8.33104C11.1128 8.74155 11.0795 9.37384 10.669 9.74329L7.33564 12.7433C6.95533 13.0856 6.37802 13.0856 5.99771 12.7433L4.33104 11.2433C3.92053 10.8738 3.88726 10.2415 4.25671 9.83104Z" fill="#A69D9D"/>
  <path fill-rule="evenodd" clip-rule="evenodd" d="M13 18C14.1046 18 15 17.1046 15 16L15 5C15 3.89543 14.1046 3 13 3L2 3C0.89543 3 -3.37144e-07 3.89543 -3.85426e-07 5L-8.66252e-07 16C-9.14534e-07 17.1046 0.89543 18 2 18L13 18ZM13 5L13 16L2 16L2 5L13 5Z" fill="#A69D9D"/>
  <path fill-rule="evenodd" clip-rule="evenodd" d="M17 14C17.5523 14 18 13.5523 18 13L18 2C18 0.895432 17.1046 9.14534e-07 16 8.66252e-07L5 1.3391e-06C4.44771 1.31496e-06 4 0.447717 4 1C4 1.55229 4.44772 2 5 2L16 2L16 13C16 13.5523 16.4477 14 17 14Z" fill="#A69D9D"/>
</svg>
