<svg width="18" height="18" viewBox="0 0 18 18" fill="none" xmlns="http://www.w3.org/2000/svg">
<path fill-rule="evenodd" clip-rule="evenodd" d="M5.29289 8.29289C5.68342 7.90237 6.31658 7.90237 6.70711 8.29289L8 9.58579L11.2929 6.29289C11.6834 5.90237 12.3166 5.90237 12.7071 6.29289C13.0976 6.68342 13.0976 7.31658 12.7071 7.70711L8.70711 11.7071C8.31658 12.0976 7.68342 12.0976 7.29289 11.7071L5.29289 9.70711C4.90237 9.31658 4.90237 8.68342 5.29289 8.29289Z" fill="currentColor"/>
<path fill-rule="evenodd" clip-rule="evenodd" d="M16 18C17.1046 18 18 17.1046 18 16L18 2C18 0.89543 17.1046 -3.91405e-08 16 -8.74228e-08L2 -6.99382e-07C0.89543 1.15968e-06 7.47664e-07 0.895431 6.99382e-07 2L8.74228e-08 16C3.91405e-08 17.1046 0.89543 18 2 18L16 18ZM16 2L16 16L2 16L2 2L16 2Z" fill="currentColor"/>
</svg>
