<svg width="18" height="18" viewBox="0 0 18 18" fill="none" xmlns="http://www.w3.org/2000/svg">
<path fill-rule="evenodd" clip-rule="evenodd" d="M3 17V6H5V16H13V6H15V17C15 17.5523 14.5523 18 14 18H4C3.44772 18 3 17.5523 3 17Z" fill="currentColor"/>
<path fill-rule="evenodd" clip-rule="evenodd" d="M2 3C2 2.44772 2.44772 2 3 2H15C15.5523 2 16 2.44772 16 3C16 3.55228 15.5523 4 15 4H3C2.44772 4 2 3.55228 2 3Z" fill="currentColor"/>
<path fill-rule="evenodd" clip-rule="evenodd" d="M7 1C7 0.447715 7.44772 0 8 0H10C10.5523 0 11 0.447715 11 1V3H7V1Z" fill="currentColor"/>
</svg>
