<svg width="18" height="18" viewBox="0 0 18 18" fill="none" xmlns="http://www.w3.org/2000/svg">
<path fillRule="evenodd" clipRule="evenodd" d="M1 13C1.55228 13 2 13.4477 2 14V16H16V14C16 13.4477 16.4477 13 17 13C17.5523 13 18 13.4477 18 14V17C18 17.5523 17.5523 18 17 18H1C0.447715 18 0 17.5523 0 17V14C0 13.4477 0.447715 13 1 13Z" fill="currentColor"/>
<path fillRule="evenodd" clipRule="evenodd" d="M9 13C9.55228 13 10 12.5523 10 12V1C10 0.447715 9.55228 0 9 0C8.44772 0 8 0.447715 8 1V12C8 12.5523 8.44772 13 9 13Z" fill="currentColor"/>
<path fillRule="evenodd" clipRule="evenodd" d="M3.29289 6.70711C3.68342 7.09763 4.31658 7.09763 4.70711 6.70711L9.70711 1.70711C10.0976 1.31658 10.0976 0.683418 9.70711 0.292893C9.31658 -0.097631 8.68342 -0.097631 8.29289 0.292893L3.29289 5.29289C2.90237 5.68342 2.90237 6.31658 3.29289 6.70711Z" fill="currentColor"/>
<path fillRule="evenodd" clipRule="evenodd" d="M14.7071 6.70711C14.3166 7.09763 13.6834 7.09763 13.2929 6.70711L8.29289 1.70711C7.90237 1.31658 7.90237 0.683418 8.29289 0.292893C8.68342 -0.097631 9.31658 -0.097631 9.70711 0.292893L14.7071 5.29289C15.0976 5.68342 15.0976 6.31658 14.7071 6.70711Z" fill="currentColor"/>
</svg>
