<svg width="18" height="18" viewBox="0 0 18 18" fill="none" xmlns="http://www.w3.org/2000/svg">
<path fill-rule="evenodd" clip-rule="evenodd" d="M9 2C7.89543 2 7 2.89543 7 4C7 5.10457 7.89543 6 9 6C10.1046 6 11 5.10457 11 4C11 2.89543 10.1046 2 9 2ZM5 4C5 1.79086 6.79086 0 9 0C11.2091 0 13 1.79086 13 4C13 6.20914 11.2091 8 9 8C6.79086 8 5 6.20914 5 4Z" fill="currentColor"/>
<path fill-rule="evenodd" clip-rule="evenodd" d="M3.9981 11.3995C5.29471 9.88675 7.08937 9 9 9C10.9106 9 12.7053 9.88675 14.0019 11.3995C15.2944 12.9074 16 14.9238 16 17C16 17.5523 15.5523 18 15 18L3 18C2.44772 18 2 17.5523 2 17C2 14.9238 2.70558 12.9074 3.9981 11.3995ZM9 11C7.72803 11 6.47044 11.5882 5.51662 12.701C4.75666 13.5877 4.24797 14.743 4.07017 16L13.9298 16C13.752 14.743 13.2433 13.5877 12.4834 12.701C11.5296 11.5882 10.272 11 9 11Z" fill="currentColor"/>
</svg>
