<svg width="18" height="18" viewBox="0 0 18 18" fill="none" xmlns="http://www.w3.org/2000/svg">
<path fillRule="evenodd" clipRule="evenodd" d="M6.04289 7.79289C6.43342 7.40237 7.06658 7.40237 7.45711 7.79289L8.25 8.58579L10.5429 6.29289C10.9334 5.90237 11.5666 5.90237 11.9571 6.29289C12.3476 6.68342 12.3476 7.31658 11.9571 7.70711L8.95711 10.7071C8.56658 11.0976 7.93342 11.0976 7.54289 10.7071L6.04289 9.20711C5.65237 8.81658 5.65237 8.18342 6.04289 7.79289Z" fill="currentColor"/>
<path fillRule="evenodd" clipRule="evenodd" d="M3.00472 3.52709C3.27088 3.36453 3.67191 3.14423 4.20057 2.92164C5.28296 2.46589 6.90127 2 8.99999 2C11.0987 2 12.717 2.4659 13.7994 2.92164C14.328 3.14424 14.7291 3.36454 14.9952 3.5271C14.8966 8.99006 13.2689 12.1026 11.7474 13.8415C10.9549 14.7472 10.1704 15.3045 9.59759 15.6318C9.35519 15.7703 9.15076 15.8676 8.99999 15.9324C8.84921 15.8676 8.64478 15.7703 8.40238 15.6318C7.82957 15.3045 7.04502 14.7472 6.25257 13.8415C4.73103 12.1026 3.10338 8.99005 3.00472 3.52709ZM8.71831 16.0405L8.72056 16.0398C8.71871 16.0404 8.71842 16.0405 8.71831 16.0405ZM8.99999 17L9.2747 17.9615C9.09515 18.0128 8.90482 18.0128 8.72527 17.9615L8.99999 17ZM9.27893 16.0397L9.28166 16.0405C9.28235 16.0407 9.28142 16.0404 9.27893 16.0397ZM15.9999 3.00002L16.6246 2.21915C16.8619 2.40893 16.9999 2.69624 16.9999 3.00002C16.9999 9.20889 15.1827 12.9526 13.2525 15.1585C12.295 16.2529 11.3296 16.9456 10.5899 17.3683C10.2203 17.5795 9.90696 17.7233 9.67866 17.8165C9.56447 17.8631 9.47137 17.8971 9.40292 17.9206C9.36869 17.9323 9.3406 17.9414 9.31909 17.9482L9.29181 17.9565L9.28196 17.9594L9.27801 17.9606L9.27627 17.9611C9.27548 17.9613 9.2747 17.9615 8.99999 17C8.72527 17.9615 8.7245 17.9613 8.7237 17.9611L8.72197 17.9606L8.71801 17.9594L8.70817 17.9565L8.68088 17.9482C8.65938 17.9414 8.63128 17.9323 8.59705 17.9206C8.52861 17.8971 8.43551 17.8631 8.32131 17.8165C8.09302 17.7233 7.77969 17.5795 7.4101 17.3683C6.67041 16.9456 5.70496 16.2529 4.74742 15.1585C2.81723 12.9526 0.999998 9.20887 1 3C1 2.69621 1.13809 2.4089 1.37531 2.21913L2 3C1.37531 2.21913 1.37496 2.21941 1.37531 2.21913L1.37677 2.21796L1.37846 2.21662L1.38255 2.21338L1.39354 2.20477C1.40213 2.1981 1.41321 2.18958 1.42677 2.17935C1.4539 2.15887 1.49099 2.1315 1.53791 2.09824C1.63174 2.03173 1.76504 1.94157 1.93685 1.83584C2.28033 1.62447 2.77881 1.35021 3.42445 1.07836C4.71707 0.534108 6.59875 0 8.99999 0C11.4012 0 13.2829 0.534114 14.5755 1.07838C15.2212 1.35023 15.7196 1.62449 16.0631 1.83586C16.2349 1.94159 16.3682 2.03175 16.462 2.09826C16.509 2.13153 16.5461 2.1589 16.5732 2.17937C16.5867 2.18961 16.5978 2.19813 16.6064 2.2048L16.6174 2.21341L16.6215 2.21664L16.6246 2.21915C16.625 2.21944 16.6246 2.21915 15.9999 3.00002Z" fill="currentColor"/>
</svg>
