<svg width="18" height="18" viewBox="0 0 18 18" fill="none" xmlns="http://www.w3.org/2000/svg">
<path fill-rule="evenodd" clip-rule="evenodd" d="M17.7071 1.70711C18.0976 1.31658 18.0976 0.683417 17.7071 0.292893C17.3166 -0.0976311 16.6834 -0.0976311 16.2929 0.292893L12.4691 4.11665C12.3292 4.04219 12.1695 4 12 4H1C0.447715 4 1.49012e-08 4.44772 1.49012e-08 5V13C1.49012e-08 13.5523 0.447715 14 1 14H2.58579L0.292893 16.2929C-0.0976311 16.6834 -0.0976311 17.3166 0.292893 17.7071C0.683417 18.0976 1.31658 18.0976 1.70711 17.7071L17.7071 1.70711ZM4.58579 12L10.5858 6H2V12H4.58579Z" fill="currentColor"/>
<path fill-rule="evenodd" clip-rule="evenodd" d="M10.1213 12L11 11.1213L17.1147 5.00659C17.2456 5.02169 17.3742 5.06273 17.4927 5.1298C17.8062 5.3073 18 5.63973 18 6V12C18 12.3603 17.8062 12.6927 17.4927 12.8702C17.1792 13.0477 16.7944 13.0428 16.4855 12.8575L13 10.7662V13C13 13.5523 12.5523 14 12 14H8.12132L10.1213 12ZM16 10.2338L13.9436 9L16 7.76619V10.2338Z" fill="currentColor"/>
<rect x="-448.5" y="-610.5" width="1860" height="1045" stroke="currentColor" stroke-width="3"/>
</svg>
