<svg width="18" height="18" viewBox="0 0 18 18" fill="none" xmlns="http://www.w3.org/2000/svg">
<g clip-path="url(#clip0_3231_50250)">
<path d="M0.00196316 8.63008C-0.0479771 11.4705 0.854664 13.7341 2.73613 15.4486C4.61795 17.1491 6.72535 18 9.04564 18C10.6 18 12.0676 17.637 13.4345 16.9111C14.8005 16.1729 15.9046 15.122 16.7589 13.7211C17.5981 12.3325 18.0128 10.7193 17.9997 8.86769C17.9751 7.09243 17.5478 5.54088 16.7086 4.20096C15.8796 2.86417 14.7772 1.82469 13.4099 1.10114C12.0423 0.363765 10.6001 0 9.10751 0C8.07955 0 7.05008 0.186998 6.01024 0.549991C4.96963 0.924412 3.99045 1.48823 3.08819 2.23946C2.17247 3.00255 1.445 3.90206 0.904682 4.96606C0.353248 6.01542 0.0531423 7.24267 0.00196316 8.63008ZM5.03141 4.64102C4.83084 5.01625 4.63023 5.61567 4.42965 6.44123C4.22788 7.26603 4.11607 7.99275 4.1038 8.6305H0.843592C1.04378 6.45428 1.73357 4.73987 2.91174 3.51378C3.03783 3.63954 3.20073 3.7526 3.42628 3.87673C3.65225 4.00168 3.90319 4.12702 4.1779 4.25197C4.46771 4.37691 4.74319 4.50263 5.03141 4.64102ZM6.72532 1.18732C6.12274 2.03741 5.63317 2.95116 5.24507 3.93882C4.29245 3.48849 3.70219 3.16345 3.46395 2.95116C4.27902 2.1256 5.35808 1.53726 6.72532 1.18732ZM7.8024 0.950476C7.89198 0.937425 7.97882 0.924374 8.0545 0.91252C8.14292 0.899469 8.23011 0.899469 8.3435 0.899469H8.63129V4.80234C8.33041 4.80234 7.94188 4.75215 7.45232 4.64102C6.96352 4.54059 6.46125 4.40298 5.9598 4.25197C6.43671 3.07569 7.04997 1.9757 7.8024 0.950476ZM8.63091 5.62791V8.63046H4.86804C4.86804 7.46604 5.14477 6.22809 5.69577 4.9154C6.92546 5.38986 7.90387 5.62791 8.63091 5.62791ZM8.63091 9.3924V12.4321C7.8916 12.4321 6.92508 12.6709 5.7461 13.1458C5.57208 12.8078 5.38297 12.2206 5.1697 11.3697C4.96951 10.5062 4.86804 9.85617 4.86804 9.39278L8.63091 9.3924ZM4.10376 9.3924C4.10376 10.3686 4.39233 11.707 4.98105 13.408C3.69069 14.0588 3.00012 14.4217 2.91131 14.4969C2.27188 13.8097 1.78348 12.9711 1.43188 11.9957C1.08145 11.0195 0.904643 10.1563 0.904643 9.39243L4.10376 9.3924ZM8.63091 13.1454V17.1859L7.80197 17.1364C7.08841 16.1472 6.46087 15.0219 5.9598 13.7839C6.31143 13.6096 7.20141 13.3973 8.63091 13.1454ZM5.24465 14.0963C5.89635 15.4486 6.39865 16.373 6.77483 16.8739C5.68466 16.5489 4.58021 15.9471 3.46309 15.0722C4.06606 14.6839 4.65554 14.3588 5.24465 14.0963ZM10.2364 17.1365L9.42139 17.1859V13.1956C10.2737 13.2451 11.1645 13.4459 12.0925 13.784C11.3397 15.4351 10.713 16.5489 10.2364 17.1365ZM14.5888 15.0722C13.7496 15.9471 12.6697 16.5363 11.327 16.8111C11.591 16.4853 11.8166 16.1354 12.0167 15.7847C12.2066 15.4347 12.3811 15.0718 12.5313 14.6835C12.6823 14.3091 12.7699 14.1098 12.7834 14.096C13.7859 14.5851 14.3874 14.9092 14.5888 15.0722ZM17.1731 9.3924C17.1731 10.2927 16.984 11.2318 16.5828 12.208C16.1816 13.1841 15.7174 13.9461 15.166 14.4968C15.028 14.3842 14.7775 14.2458 14.4124 14.0591C14.0492 13.8713 13.5977 13.6345 13.072 13.3589C13.7111 11.72 14.0242 10.4065 14.0242 9.39278L17.1731 9.3924ZM13.1839 9.3924C13.1839 10.4943 12.908 11.7323 12.3557 13.1454C12.0421 12.971 11.5783 12.7947 10.9635 12.6334C10.3617 12.4574 9.84794 12.3954 9.42136 12.4317V9.39197L13.1839 9.3924ZM9.42139 5.62791C10.1992 5.62791 11.1775 5.38986 12.3553 4.91501C12.5309 5.20248 12.7193 5.76587 12.9075 6.57919C13.0831 7.37904 13.1834 8.06742 13.1834 8.63046H9.42136L9.42139 5.62791ZM15.1157 3.51339C15.7432 4.11478 16.2439 4.8771 16.6209 5.82838C16.9967 6.7789 17.1735 7.71794 17.1735 8.63008H13.9744C13.9744 7.42851 13.6735 6.10315 13.0725 4.6406C13.9862 4.20053 14.6764 3.82692 15.1157 3.51339ZM14.5888 2.95116C14.3874 3.12635 13.811 3.47625 12.833 3.98906C12.3811 2.87641 11.8412 1.92474 11.2279 1.1379C12.4187 1.48784 13.5474 2.08799 14.5888 2.95116ZM10.1865 0.950476C10.9266 1.85157 11.5665 2.92583 12.0929 4.20096C11.6041 4.51607 10.7134 4.71616 9.42182 4.80234V0.899469H9.71004C9.96137 0.899469 10.1231 0.91252 10.1865 0.950476Z" fill="#A69D9D"/>
</g>
<defs>
<clipPath id="clip0_3231_50250">
<rect width="18" height="18" fill="white"/>
</clipPath>
</defs>
</svg>
