<svg width="18" height="18" viewBox="0 0 18 18" fill="none" xmlns="http://www.w3.org/2000/svg">
<path fillRule="evenodd" clipRule="evenodd" d="M0 1C0 0.447715 0.447715 0 1 0H5C5.55228 0 6 0.447715 6 1V5C6 5.55228 5.55228 6 5 6H1C0.447715 6 0 5.55228 0 5V1ZM2 2V4H4V2H2Z" fill="currentColor"/>
<path fillRule="evenodd" clipRule="evenodd" d="M0 13C0 12.4477 0.447715 12 1 12H5C5.55228 12 6 12.4477 6 13V17C6 17.5523 5.55228 18 5 18H1C0.447715 18 0 17.5523 0 17V13ZM2 14V16H4V14H2Z" fill="currentColor"/>
<path fillRule="evenodd" clipRule="evenodd" d="M12 1C12 0.447715 12.4477 0 13 0H17C17.5523 0 18 0.447715 18 1V5C18 5.55228 17.5523 6 17 6H13C12.4477 6 12 5.55228 12 5V1ZM14 2V4H16V2H14Z" fill="currentColor"/>
<path fillRule="evenodd" clipRule="evenodd" d="M12 13C12 12.4477 12.4477 12 13 12H17C17.5523 12 18 12.4477 18 13V17C18 17.5523 17.5523 18 17 18H13C12.4477 18 12 17.5523 12 17V13ZM14 14V16H16V14H14Z" fill="currentColor"/>
<path fillRule="evenodd" clipRule="evenodd" d="M2 13V5H4V13H2Z" fill="currentColor"/>
<path fillRule="evenodd" clipRule="evenodd" d="M13 16L5 16L5 14L13 14L13 16Z" fill="currentColor"/>
<path fillRule="evenodd" clipRule="evenodd" d="M14 13V5H16V13H14Z" fill="currentColor"/>
<path fillRule="evenodd" clipRule="evenodd" d="M13 4L5 4L5 2L13 2L13 4Z" fill="currentColor"/>
</svg>
