<svg width="192" height="121" viewBox="0 0 192 121" fill="none" xmlns="http://www.w3.org/2000/svg">
<path d="M147.777 91.3021C155.675 71.5576 153.286 49.5106 143.1 32.5781L36.4777 47.3412L138.656 26.0466C95.5922 -27.6545 11.7746 7.96475 19.8542 75.7662L147.777 91.3021Z" fill="#F4F4F4"/>
<path d="M152.48 69.4763H16.6411V111.775H152.48V69.4763Z" fill="#5EAB6C"/>
<path d="M54.5251 64.3179C55.7438 65.2643 56.1895 65.5699 56.449 65.5311C69.0241 69.193 58.0002 73.4845 51.8903 66.1999L54.5251 64.3179Z" fill="#FFB8B8"/>
<path d="M13.0302 103.006V111.604L19.2202 111.26L17.5009 102.318L13.0302 103.006Z" fill="#FFB8B8"/>
<path d="M47.4197 103.006V111.604L41.2295 111.26L42.949 102.318L47.4197 103.006Z" fill="#FFB8B8"/>
<path d="M28.5055 58.6437L37.7907 58.2998C59.2104 80.7553 51.1099 75.6336 50.5148 106.445L39.1662 103.006L41.5735 81.6847C41.5747 81.6839 42.2085 81.2614 41.6817 81.2516C38.3869 82.3839 35.9829 68.365 28.8494 69.9922C20.7318 69.6039 19.4102 81.646 16.1253 81.6847L18.5325 103.006L7.18398 106.445C5.91336 72.5864 -0.314039 80.2352 19.9081 58.2998L28.5055 58.6437Z" fill="#2F2E41"/>
<path d="M14.7496 108.852C14.7496 108.852 13.374 106.101 11.6546 107.477C9.93509 108.852 5.80835 112.979 5.80835 112.979C5.80835 112.979 -4.16461 117.45 2.0255 120.201C8.21562 122.952 13.374 116.418 13.374 116.418C19.27 115.189 22.6709 114.401 19.5441 107.97C17.769 108.738 15.2568 109.628 14.7496 108.852Z" fill="#2F2E41"/>
<path d="M45.7002 108.852C45.7002 108.852 47.0758 106.101 48.7952 107.477C50.5147 108.852 54.6415 112.979 54.6415 112.979C54.6415 112.979 64.6144 117.45 58.4243 120.201C52.2342 122.952 47.0758 116.418 47.0758 116.418C41.1798 115.189 37.7789 114.401 40.9057 107.97C42.6808 108.738 45.193 109.628 45.7002 108.852Z" fill="#2F2E41"/>
<path d="M37.7906 19.7834C37.2791 28.3444 25.5953 27.5907 25.4104 19.7834C25.9219 11.2225 37.6057 11.9762 37.7906 19.7834Z" fill="#FFB8B8"/>
<path d="M28.8494 24.2541C31.8578 33.3467 24.755 28.3964 34.6956 35.6026L38.4784 28.0369C38.4784 28.0369 35.7273 27.0053 36.0712 23.2224L28.8494 24.2541Z" fill="#FFB8B8"/>
<path d="M47.4197 29.4125L37.1683 27.0726C37.4566 33.2539 30.8601 32.0098 29.7091 28.9005L19.9081 34.571C24.0218 49.8924 22.9793 50.5246 17.5008 60.3631C15.41 62.2723 18.5368 63.3666 21.2589 62.3219C23.3351 61.0405 24.3895 59.9017 26.6142 60.1915C37.1264 62.3803 45.8776 62.897 47.2626 62.0417C47.7581 61.3324 47.2482 29.5357 47.4197 29.4125Z" fill="#575A89"/>
<path d="M44.6685 30.1003C45.0124 30.1003 46.7838 29.2674 46.7838 29.2674C51.9377 29.1805 55.3962 63.8482 55.6731 64.8337L52.2342 67.241L46.7318 53.1413L44.6685 30.1003Z" fill="#575A89"/>
<path d="M20.5959 70.3361C20.7717 71.634 21.0709 86.2091 26.2921 79.4007C26.9771 74.4335 24.6482 72.9507 24.0348 69.6483L20.5959 70.3361Z" fill="#FFB8B8"/>
<path d="M21.9714 34.571L20.9177 33.9868C18.0928 33.894 18.9831 41.3717 17.7879 46.8479C16.8115 53.2275 17.0895 60.262 18.2351 69.6668C18.3353 73.118 24.5167 70.9438 25.4103 70.68C25.4103 70.68 23.347 56.5803 24.3787 54.173C25.4104 51.7657 21.9714 34.571 21.9714 34.571Z" fill="#575A89"/>
<path d="M37.52 13.7827C36.565 12.2319 35.0702 11.0891 33.3232 10.5743L32.04 11.6008L32.5389 10.4035C32.1194 10.3395 31.6948 10.3149 31.2707 10.3302L30.1162 11.8146L30.594 10.381C25.6401 10.913 22.709 16.5999 25.2809 20.5801C25.6776 19.3609 26.1592 18.2169 26.5559 16.9977C26.8677 17.0402 27.1837 17.0417 27.4959 17.0023L27.9786 15.876L28.1134 16.9546C29.6094 16.8243 31.8284 16.5381 33.2468 16.2759L33.1088 15.4485L33.934 16.1361C34.3685 16.0361 34.6265 15.9453 34.6052 15.876C35.66 17.5765 36.7052 18.6627 37.76 20.3632C38.1604 17.9646 38.8672 15.9708 37.52 13.7827Z" fill="#2F2E41"/>
<path d="M144.349 74.5789H114.349V88.8095H144.349V74.5789Z" fill="white"/>
<path d="M138.676 77.5597H120.022V79.266H138.676V77.5597Z" fill="#E6E6E6"/>
<path d="M138.676 80.8411H120.022V82.5474H138.676V80.8411Z" fill="#E6E6E6"/>
<path d="M138.676 84.1224H120.022V85.8288H138.676V84.1224Z" fill="#E6E6E6"/>
<path d="M88.2244 77.9592L87.2486 76.2691L86.2729 74.5789L85.297 76.2691L84.3212 77.9592H85.3697V82.8535H87.1759V77.9592H88.2244Z" fill="white"/>
<path d="M154.346 112.784C158.784 112.784 162.381 109.187 162.381 104.749C162.381 100.312 158.784 96.7141 154.346 96.7141C149.909 96.7141 146.311 100.312 146.311 104.749C146.311 109.187 149.909 112.784 154.346 112.784Z" fill="#3F3D56"/>
<path d="M155.807 108.31C157.774 108.31 159.368 106.716 159.368 104.749C159.368 102.783 157.774 101.188 155.807 101.188C153.84 101.188 152.246 102.783 152.246 104.749C152.246 106.716 153.84 108.31 155.807 108.31Z" fill="#E6E6E6"/>
<path d="M149.279 110.365L166.81 117.669L166.262 119.404L156.172 118.263L139.098 110.684L148.594 111.78L149.279 110.365Z" fill="#3F3D56"/>
<path d="M164.775 117.34L186.579 45.8166L191.889 36.3873L191.907 36.2963C191.924 36.2131 192.314 34.2422 191.355 32.8149C191.114 32.4601 190.801 32.1589 190.438 31.93C190.075 31.7012 189.668 31.5497 189.244 31.4848C186.313 30.9354 179.758 30.6647 179.48 30.6534L179.428 30.6512L179.376 30.6583C179.197 30.6828 175.007 31.2952 174.06 34.9539L169.501 43.2499L169.483 43.3089L148.848 111.151L149.983 111.496L170.601 43.7134L175.175 35.3894L175.193 35.3129C175.863 32.5597 179.065 31.9156 179.491 31.8419C180.16 31.8705 186.322 32.1447 189.025 32.6515C189.293 32.6881 189.551 32.78 189.782 32.9214C190.013 33.0628 190.213 33.2506 190.367 33.473C190.958 34.348 190.81 35.6365 190.758 35.9752L185.481 45.3468L185.462 45.4087L163.64 116.994L164.775 117.34Z" fill="#3F3D56"/>
<path d="M167.963 50.1091L167.752 51.2772L183.499 54.1213L183.71 52.9532L167.963 50.1091Z" fill="#3F3D56"/>
<path d="M165.022 59.8234L164.785 60.9865L180.42 64.1774L180.657 63.0144L165.022 59.8234Z" fill="#3F3D56"/>
<path d="M159.786 77.1972L159.459 78.3384L174.723 82.7061L175.05 81.565L159.786 77.1972Z" fill="#3F3D56"/>
<path d="M170.109 110.872L170.541 109.766L155.725 103.965L154.998 96.0871L168.826 101.252L173.306 107.734L174.283 107.06L169.591 100.27L153.642 94.3134L154.611 104.803L170.109 110.872Z" fill="#3F3D56"/>
<path d="M175.256 120.454C179.693 120.454 183.291 116.857 183.291 112.419C183.291 107.981 179.693 104.384 175.256 104.384C170.818 104.384 167.221 107.981 167.221 112.419C167.221 116.857 170.818 120.454 175.256 120.454Z" fill="#3F3D56"/>
<path d="M177.356 116.345C179.322 116.345 180.917 114.751 180.917 112.784C180.917 110.818 179.322 109.223 177.356 109.223C175.389 109.223 173.795 110.818 173.795 112.784C173.795 114.751 175.389 116.345 177.356 116.345Z" fill="#E6E6E6"/>
</svg>
