<svg width="192" height="150" viewBox="0 0 192 150" fill="none" xmlns="http://www.w3.org/2000/svg">
<path d="M56.0964 0L25.5176 16.5632C26.0405 17.4634 26.3774 18.4594 26.5083 19.4922C26.6392 20.525 26.5615 21.5735 26.2797 22.5757C25.9979 23.5779 25.5179 24.5134 24.8679 25.3266C24.218 26.1399 23.4115 26.8144 22.4961 27.3102C21.5807 27.8061 20.5751 28.1131 19.5388 28.2132C18.5026 28.3132 17.4568 28.2043 16.4635 27.8928C15.4701 27.5812 14.5494 27.0735 13.7559 26.3996C12.9623 25.7257 12.3122 24.8994 11.8438 23.9697L1.41736 29.6172L28.4252 79.4787L83.1041 49.8615L56.0964 0Z" fill="#F2F2F2"/>
<path d="M18.3263 26.7823C21.8127 26.7823 24.639 23.956 24.639 20.4696C24.639 16.9832 21.8127 14.1569 18.3263 14.1569C14.8398 14.1569 12.0135 16.9832 12.0135 20.4696C12.0135 23.956 14.8398 26.7823 18.3263 26.7823Z" fill="#5EAB6C"/>
<path d="M132.881 133.483L165.942 122.699C165.59 121.719 165.438 120.678 165.496 119.639C165.553 118.6 165.818 117.582 166.276 116.647C166.734 115.712 167.374 114.878 168.16 114.195C168.946 113.513 169.861 112.994 170.85 112.672C171.84 112.349 172.885 112.228 173.922 112.316C174.959 112.404 175.968 112.7 176.889 113.185C177.81 113.67 178.624 114.336 179.284 115.142C179.943 115.947 180.433 116.877 180.727 117.876L192 114.199L174.415 60.2883L115.296 79.5723L132.881 133.483Z" fill="#F2F2F2"/>
<path d="M173.72 126.464C177.206 126.464 180.033 123.638 180.033 120.151C180.033 116.665 177.206 113.839 173.72 113.839C170.234 113.839 167.407 116.665 167.407 120.151C167.407 123.638 170.234 126.464 173.72 126.464Z" fill="#5EAB6C"/>
<path d="M175.023 29.5762H22.3743V98.9266H175.023V29.5762Z" fill="#3F3D56"/>
<path d="M172.505 32.0945H24.8927V95.0523H172.505V32.0945Z" fill="white"/>
<path d="M157.491 92.0497H143.156V96.8926H157.491V92.0497Z" fill="#3F3D56"/>
<path d="M142.382 95.7303H131.921V97.0864H142.382V95.7303Z" fill="#5EAB6C"/>
<path d="M36.9031 55.9216H93.2745L102.014 60.1793L115.939 66.9634L125.044 49.9164H150.808" stroke="#3F3D56" stroke-miterlimit="10"/>
<path d="M59.0687 55.9216L63.2482 65.8012H73.5151" stroke="#3F3D56" stroke-miterlimit="10"/>
<path d="M74.7372 55.9216L89.0127 48.173H99.086" stroke="#3F3D56" stroke-miterlimit="10"/>
<path d="M58.9865 57.665C59.9494 57.665 60.7299 56.8844 60.7299 55.9215C60.7299 54.9587 59.9494 54.1781 58.9865 54.1781C58.0236 54.1781 57.243 54.9587 57.243 55.9215C57.243 56.8844 58.0236 57.665 58.9865 57.665Z" fill="#5EAB6C"/>
<path d="M75.2587 57.665C76.2216 57.665 77.0022 56.8844 77.0022 55.9215C77.0022 54.9587 76.2216 54.1781 75.2587 54.1781C74.2958 54.1781 73.5153 54.9587 73.5153 55.9215C73.5153 56.8844 74.2958 57.665 75.2587 57.665Z" fill="#5EAB6C"/>
<path d="M101.992 60.1835L103.154 77.4242H113.227" stroke="#3F3D56" stroke-miterlimit="10"/>
<path d="M121.392 56.7533L110.322 48.173H120.782" stroke="#3F3D56" stroke-miterlimit="10"/>
<path d="M139.679 49.9164L150.421 58.4399H160.494" stroke="#3F3D56" stroke-miterlimit="10"/>
<path d="M101.992 61.9268C102.955 61.9268 103.735 61.1463 103.735 60.1834C103.735 59.2205 102.955 58.4399 101.992 58.4399C101.029 58.4399 100.248 59.2205 100.248 60.1834C100.248 61.1463 101.029 61.9268 101.992 61.9268Z" fill="#5EAB6C"/>
<path d="M139.573 51.6599C140.535 51.6599 141.316 50.8793 141.316 49.9164C141.316 48.9535 140.535 48.173 139.573 48.173C138.61 48.173 137.829 48.9535 137.829 49.9164C137.829 50.8793 138.61 51.6599 139.573 51.6599Z" fill="#5EAB6C"/>
<path d="M121.363 58.4399C122.326 58.4399 123.107 57.6593 123.107 56.6964C123.107 55.7336 122.326 54.953 121.363 54.953C120.4 54.953 119.62 55.7336 119.62 56.6964C119.62 57.6593 120.4 58.4399 121.363 58.4399Z" fill="#5EAB6C"/>
<path d="M63.4419 68.3508H73.5151" stroke="#3F3D56" stroke-miterlimit="10"/>
<path d="M156.822 17.4897C158.4 17.4897 159.68 16.21 159.68 14.6313C159.68 13.0527 158.4 11.7729 156.822 11.7729C155.243 11.7729 153.963 13.0527 153.963 14.6313C153.963 16.21 155.243 17.4897 156.822 17.4897Z" stroke="#3F3D56" strokeWidth="2" stroke-miterlimit="10"/>
<path d="M29.4449 149.196C45.7068 149.196 58.8898 146.768 58.8898 143.772C58.8898 140.776 45.7068 138.348 29.4449 138.348C13.1829 138.348 0 140.776 0 143.772C0 146.768 13.1829 149.196 29.4449 149.196Z" fill="#F2F2F2"/>
<path d="M48.8128 90.7002L48.5768 92.1162C48.5768 92.1162 48.9308 101.91 46.3349 98.8419C43.739 95.7741 45.5089 91.6442 45.5089 91.6442L46.2169 90.4642L48.8128 90.7002Z" fill="#FBBEBE"/>
<path d="M33.7092 45.3898C33.7092 45.3898 33.2372 50.3456 33.0012 50.5816C32.7652 50.8176 36.5411 55.3014 36.5411 55.3014L39.845 52.2335C39.845 52.2335 39.609 47.7497 40.317 46.8057C41.0249 45.8618 33.7092 45.3898 33.7092 45.3898Z" fill="#FBBEBE"/>
<path opacity="0.1" d="M33.7092 45.3898C33.7092 45.3898 33.2372 50.3456 33.0012 50.5816C32.7652 50.8176 36.5411 55.3014 36.5411 55.3014L39.845 52.2335C39.845 52.2335 39.609 47.7497 40.317 46.8057C41.0249 45.8618 33.7092 45.3898 33.7092 45.3898Z" fill="black"/>
<path d="M24.9774 135.775V140.022L23.3254 140.259L20.9656 139.55L21.6734 135.067L24.9774 135.775Z" fill="#3F3D56"/>
<path d="M22.8536 137.899C22.8536 137.899 22.1456 136.011 20.9657 136.247C19.7857 136.483 19.5497 137.899 19.5497 137.899C19.5497 137.899 18.6058 141.438 17.1898 142.618C15.7739 143.798 14.3579 146.866 17.1898 147.338C20.0217 147.81 22.3816 146.63 22.3816 146.394C22.3816 146.158 23.0896 144.742 24.2696 144.506C25.4495 144.27 26.3935 144.034 26.3935 143.09C26.3935 142.146 25.6855 141.202 25.6855 141.202C25.6855 141.202 25.4495 136.726 24.9775 137.312C24.6511 137.775 24.4113 138.294 24.2696 138.843L22.8536 137.899Z" fill="#2F2E41"/>
<path d="M35.1253 133.651L34.1813 137.191L36.5411 137.663L37.7211 136.483L37.957 133.415L35.1253 133.651Z" fill="#3F3D56"/>
<path d="M34.8892 136.719C34.8892 136.719 35.8331 136.011 36.3051 136.011H37.0131C37.0131 136.011 37.0131 134.359 38.1931 134.359C39.373 134.359 39.137 135.539 39.137 135.539C39.137 135.539 41.7329 139.55 42.4409 140.258C43.1489 140.966 46.9248 143.09 43.8569 144.034C40.789 144.978 38.6651 144.978 37.2491 143.326C37.2491 143.326 35.8332 142.618 34.8892 142.618C33.9452 142.618 32.7653 142.146 32.7653 141.438C32.7653 140.73 33.4732 139.314 33.4732 139.314C33.4732 139.314 33.9452 135.067 34.1812 135.539C34.4172 136.011 34.8892 136.719 34.8892 136.719Z" fill="#2F2E41"/>
<path d="M24.7417 79.3726V87.1603C24.7417 87.1603 22.1458 102.264 22.1458 107.22C22.1458 112.175 18.1339 135.775 20.0219 136.247C21.9098 136.719 26.3937 137.427 26.6297 136.719C26.8657 136.011 28.5176 113.591 28.7536 113.355C28.9896 113.119 33.9454 94.476 33.9454 94.476L34.8894 94.712L35.3614 115.951C35.3614 115.951 33.0014 135.067 34.1814 135.067C35.3614 135.067 40.3172 134.831 40.3172 133.415C40.3172 131.999 42.9131 105.804 42.9131 105.804C42.9131 105.804 45.981 85.0364 44.801 82.9124C43.6211 80.7885 43.6211 79.6086 43.6211 79.6086L24.7417 79.3726Z" fill="#2F2E41"/>
<path d="M37.6031 49.0476C40.2098 49.0476 42.323 46.9344 42.323 44.3277C42.323 41.7211 40.2098 39.6079 37.6031 39.6079C34.9964 39.6079 32.8833 41.7211 32.8833 44.3277C32.8833 46.9344 34.9964 49.0476 37.6031 49.0476Z" fill="#FBBEBE"/>
<path d="M36.5412 52.4695C36.5412 52.4695 33.5913 49.9916 33.3553 49.0476C33.3553 49.0476 31.8214 50.5816 31.8214 50.8175C31.8214 51.0535 25.2136 51.7615 23.5617 53.6494C21.9097 55.5374 20.4938 59.5492 20.4938 59.5492L24.5056 67.101C24.5056 67.101 24.7416 71.3488 24.7416 71.8208C24.7416 72.2928 23.5617 79.8445 24.0337 80.0805C24.5056 80.3165 29.2255 82.6764 33.2373 82.2045C37.2492 81.7325 41.2611 81.0245 42.441 81.0245C43.621 81.0245 44.5649 81.4965 44.5649 81.0245C44.5649 80.5525 43.857 79.6085 43.857 79.1366C43.857 78.6646 43.621 77.4846 43.621 76.7767C43.621 76.0687 43.149 74.8887 43.149 73.9447C43.149 73.0008 48.3408 60.2572 48.3408 60.2572C48.3408 60.2572 48.1048 56.2454 44.329 54.3574C40.5531 52.4695 40.0811 51.7615 40.0811 51.7615C40.0811 51.7615 40.0075 50.3456 39.8083 50.3456C39.6091 50.3456 38.9012 52.4695 37.0132 52.7055L36.5412 52.4695Z" fill="#D0CDE1"/>
<path d="M23.7976 83.8566L25.4496 86.4524L29.6974 85.5084L26.6295 81.9686L23.7976 83.8566Z" fill="#FBBEBE"/>
<path d="M46.9249 58.3693L48.3408 60.2572C48.3408 60.2572 51.1727 73.9447 50.7007 78.9006C50.2287 83.8564 49.7568 87.6323 49.7568 87.6323C49.7568 87.6323 50.7007 91.1721 49.9927 91.1721C49.2848 91.1721 45.0369 91.4081 45.0369 90.7001C45.0369 89.9922 45.5089 85.5083 45.5089 85.5083L44.3289 75.1247L41.733 71.5848L46.9249 58.3693Z" fill="#D0CDE1"/>
<path d="M34.3974 42.0364C34.6867 41.9138 35.0211 42.0133 35.331 41.961C35.6948 41.8995 36.0204 41.63 36.3878 41.664C36.5619 41.6963 36.7311 41.7512 36.8909 41.8274C36.9712 41.8651 37.0582 41.8861 37.1468 41.8893C37.2354 41.8925 37.3237 41.8777 37.4064 41.8458C37.4458 41.8275 37.4806 41.8007 37.5084 41.7672C37.5362 41.7338 37.5561 41.6946 37.5669 41.6524C37.5776 41.6103 37.5788 41.5663 37.5705 41.5237C37.5621 41.481 37.5443 41.4408 37.5185 41.4059C37.8293 41.3785 38.1232 41.252 38.3567 41.045C38.4033 40.9967 38.4573 40.9562 38.5167 40.925C38.586 40.9069 38.6582 40.9033 38.7289 40.9143C38.7997 40.9253 38.8674 40.9507 38.9279 40.989L39.4679 41.238C39.5895 41.2809 39.6965 41.3575 39.7765 41.4587C39.8407 41.5589 39.8533 41.6935 39.9443 41.7702C40.0603 41.8681 40.2339 41.8202 40.3854 41.8298C40.5229 41.8432 40.6508 41.9066 40.7447 42.008C40.8386 42.1094 40.892 42.2417 40.8948 42.3799C40.8926 42.5384 40.835 42.7328 40.9604 42.8298C41.033 42.886 41.1363 42.877 41.2214 42.9116C41.4422 43.0012 41.443 43.3085 41.4104 43.5445C41.3778 43.7804 41.3939 44.0918 41.6208 44.1644C41.7806 44.2156 41.9438 44.1065 42.1098 44.0822C42.3602 44.0455 42.5918 44.2021 42.8147 44.3219C43.0376 44.4418 43.3337 44.5226 43.5269 44.3591C43.7067 44.207 43.6952 43.9288 43.6457 43.6986C43.5748 43.3685 43.4582 43.0499 43.2995 42.7519C43.2407 42.6642 43.2061 42.5626 43.1991 42.4573C43.2126 42.3831 43.2416 42.3127 43.2843 42.2506C43.3269 42.1885 43.3823 42.1361 43.4466 42.0969C43.7197 41.881 44.0339 41.6637 44.1223 41.327C44.1872 41.0798 44.1142 40.8192 44.1198 40.5638C44.1267 40.2529 44.2503 39.9435 44.1923 39.638C44.0873 39.0843 43.4711 38.8179 43.0733 38.4187C42.5267 37.8701 42.3493 36.9927 41.7042 36.5642C41.1882 36.2215 40.5132 36.2624 39.9255 36.0663C39.28 35.8508 38.7604 35.3559 38.1236 35.1158C37.776 34.9876 37.4044 34.9379 37.0353 34.9703C36.6663 35.0027 36.309 35.1163 35.989 35.303C35.7991 35.4439 35.587 35.5522 35.3615 35.6236C35.1716 35.6456 34.9797 35.6434 34.7903 35.617C34.414 35.5976 34.0389 35.675 33.701 35.8418C33.5716 35.8935 33.4639 35.9879 33.3958 36.1094C33.2818 36.3626 33.4474 36.7585 33.1975 36.8795C33.081 36.936 32.9434 36.8819 32.814 36.8848C32.5623 36.8903 32.3687 37.1093 32.2489 37.3307C32.1555 37.5649 32.0215 37.7806 31.8529 37.968C31.5452 38.2375 30.9863 38.282 30.9059 38.683C30.9044 38.8528 30.9141 39.0225 30.9347 39.191C30.9115 39.5464 30.5312 39.8165 30.551 40.172C30.5739 40.5822 31.095 40.7826 31.2343 41.169C31.3404 41.4633 31.2008 41.7814 31.1048 42.0791C31.0087 42.3768 30.9798 42.7583 31.2278 42.9489C31.3251 43.0236 31.4501 43.0542 31.5493 43.1264C31.8059 43.313 31.8027 43.6897 31.7742 44.0058C31.7578 44.0714 31.7577 44.1401 31.7739 44.2057C31.7902 44.2714 31.8223 44.332 31.8675 44.3824C31.9098 44.4081 31.9572 44.4244 32.0064 44.4303C32.0556 44.4362 32.1054 44.4315 32.1527 44.4167C32.3068 44.3793 32.4516 44.3108 32.5783 44.2155C32.7051 44.1201 32.8109 43.9999 32.8895 43.8622C32.9722 43.7255 32.9888 43.6051 33.1389 43.5325C33.2408 43.4833 33.3646 43.5273 33.4683 43.4634C33.9617 43.1597 33.7918 42.2931 34.3974 42.0364Z" fill="#2F2E41"/>
<path d="M21.2018 58.8413L20.4938 59.5493C20.4938 59.5493 16.246 72.2928 17.6619 75.1247C19.0778 77.9567 21.9097 85.0364 22.8537 84.8004C23.7977 84.5644 27.1016 82.4405 27.1016 82.2045C27.1016 81.9685 23.0897 75.3607 23.0897 75.3607C23.0897 75.3607 22.6177 73.9448 22.8537 73.7088C23.0897 73.4728 23.0897 73.7088 22.8537 73.2368C22.6177 72.7648 22.6177 73.2368 23.0897 72.7648C23.5617 72.2928 23.5617 72.2928 23.5617 72.0569C23.5617 71.8209 24.9776 65.9211 24.9776 65.9211L21.2018 58.8413Z" fill="#D0CDE1"/>
<path d="M24.8594 86.5703L30.0514 84.9185L30.7592 86.5703L25.0955 87.7502L24.8594 86.5703Z" fill="#2F2E41"/>
<path opacity="0.1" d="M24.8594 86.5703L30.0514 84.9185L30.7592 86.5703L25.0955 87.7502L24.8594 86.5703Z" fill="black"/>
<path opacity="0.1" d="M31.9392 50.9355L35.9511 54.2394L36.4232 53.5313L31.9392 50.9355Z" fill="black"/>
<path opacity="0.1" d="M39.963 51.8796L37.1312 53.5315L37.3672 54.2395L39.963 51.8796Z" fill="black"/>
</svg>
