<svg id="Group_1" data-name="Group 1" xmlns="http://www.w3.org/2000/svg" width="192.597" height="138.199" viewBox="0 0 192.597 138.199">
  <rect id="Rectangle_1" data-name="Rectangle 1" width="91.168" height="0.396" transform="translate(0 136.69)" fill="#3f3d56"/>
  <path id="Path_1" data-name="Path 1" d="M109.605,602.653H112.2l1.233-10h-3.826Z" transform="translate(-86.43 -467.344)" fill="#ffb8b8"/>
  <path id="Path_2" data-name="Path 2" d="M0,0H8.147V3.148h-5A3.148,3.148,0,0,1,0,0H0Z" transform="translate(30.766 137.715) rotate(179.997)" fill="#2f2e41"/>
  <path id="Path_3" data-name="Path 3" d="M44.379,600.623l2.57.343,2.544-9.748-3.792-.506Z" transform="translate(-34.996 -465.813)" fill="#ffb8b8"/>
  <path id="Path_4" data-name="Path 4" d="M0,0H8.147V3.148h-5A3.148,3.148,0,0,1,0,0H0Z" transform="translate(16.59 138.199) rotate(-172.406)" fill="#2f2e41"/>
  <path id="Path_5" data-name="Path 5" d="M48.39,444.64l14.589.634-.634,37-3.806-.423-2.96-25.161L48.6,483.545,44.8,482.91Z" transform="translate(-35.324 -350.626)" fill="#2f2e41"/>
  <path id="Path_6" data-name="Path 6" d="M221.6,459.966l-5.075-1.037-3.172,23.238s9.3,6.132,12.263-.211Z" transform="translate(-198.806 -387.942)" fill="#5eab6c"/>
  <circle id="Ellipse_1" data-name="Ellipse 1" cx="5.193" cy="5.193" r="5.193" transform="translate(15.386 58.909)" fill="#ffb8b8"/>
  <path id="Path_7" data-name="Path 7" d="M192.079,457.832l-7.4,2.326s3.594,17.972-2.326,27.276c0,0,7.4,7.823,10.572-9.726C192.924,477.708,195.462,463.541,192.079,457.832Z" transform="translate(-174.361 -387.077)" fill="#2f2e41"/>
  <path id="Path_8" data-name="Path 8" d="M252.352,463.832l5.5,3.383s2.96,24.738,0,27.064S252.352,463.832,252.352,463.832Z" transform="translate(-229.56 -391.808)" fill="#2f2e41"/>
  <path id="Path_9" data-name="Path 9" d="M281.59,585.746a2.126,2.126,0,0,1,.2-3.254l-2.235-7.218,3.771,1.1,1.544,6.686a2.138,2.138,0,0,1-3.285,2.69Z" transform="translate(-251.015 -479.687)" fill="#ffb8b8"/>
  <path id="Path_10" data-name="Path 10" d="M186.829,577.165a2.126,2.126,0,0,1-.214-3.253l-3.141-6.872,3.88.6,2.388,6.433a2.138,2.138,0,0,1-2.913,3.089Z" transform="translate(-175.246 -473.193)" fill="#ffb8b8"/>
  <path id="Path_11" data-name="Path 11" d="M32.562,345.851l-1.9-.211L25.8,361.5l4.863,10.995,3.806-2.326-4.229-9.092,3.383-9.726Z" transform="translate(-20.342 -272.558)" fill="#2f2e41"/>
  <path id="Path_12" data-name="Path 12" d="M124.065,355.64l1.057.211L130.2,380.59l-3.383,1.057L122.8,367.058Z" transform="translate(-96.832 -280.444)" fill="#2f2e41"/>
  <path id="Path_13" data-name="Path 13" d="M212.849,403.109a2.973,2.973,0,0,1,1.785-2.334,7.074,7.074,0,0,1,3.2-.158,3.923,3.923,0,0,0,3.055-.74,2.619,2.619,0,0,0,.527-2.748,3.986,3.986,0,0,0-2-2.086,8.624,8.624,0,0,0-2.848-.753,11.628,11.628,0,0,0-4.323.17c-1.4.366-1.042,1.151-1.864,2.346a4.23,4.23,0,0,0-.442,4.131,7.176,7.176,0,0,0,1.9,2.175" transform="translate(-195.839 -336.875)" fill="#2f2e41"/>
  <path id="Path_14" data-name="Path 14" d="M552.523,264v-.4c.788,0,1.588-.016,2.378-.048l.016.4C554.122,263.986,553.316,264,552.523,264Zm-2.393-.046c-.792-.031-1.6-.078-2.39-.141l.031-.4c.788.062,1.587.109,2.374.14Zm7.177-.146-.031-.4c.787-.063,1.583-.143,2.366-.237l.048.394C558.9,263.667,558.1,263.747,557.306,263.811Zm-11.948-.231c-.79-.095-1.588-.206-2.371-.332l.063-.391c.778.125,1.57.236,2.355.33Zm16.7-.343-.063-.391c.777-.126,1.564-.269,2.339-.427l.079.388C563.634,262.966,562.841,263.111,562.059,263.237Zm-21.427-.417c-.78-.158-1.566-.334-2.336-.522l.094-.385c.765.188,1.546.362,2.321.519Zm26.118-.538-.095-.385c.768-.189,1.54-.4,2.3-.615l.11.381C568.3,261.884,567.522,262.092,566.75,262.282Zm-30.768-.6c-.764-.221-1.534-.459-2.286-.71l.125-.376c.748.249,1.512.486,2.271.705Zm35.366-.731-.126-.376c.748-.25,1.5-.519,2.24-.8l.141.37C572.86,260.428,572.1,260.7,571.348,260.95Zm-39.914-.783c-.744-.282-1.493-.583-2.226-.9l.155-.365c.729.31,1.473.61,2.212.889Zm44.383-.914-.156-.365c.725-.309,1.452-.638,2.162-.975l.17.358C577.279,258.611,576.546,258.941,575.817,259.253Zm-48.8-.966c-.72-.342-1.442-.7-2.145-1.072l.184-.351c.7.367,1.416.726,2.131,1.065ZM580.13,257.2l-.185-.351c.7-.367,1.4-.753,2.078-1.147l.2.343C581.537,256.443,580.833,256.832,580.13,257.2Zm-57.356-1.145c-.691-.4-1.381-.817-2.051-1.241l.212-.335c.665.422,1.351.837,2.037,1.233Zm61.493-1.248-.212-.335c.664-.421,1.331-.862,1.981-1.311l.225.326C585.607,253.94,584.936,254.384,584.267,254.808Zm-65.542-1.316c-.655-.453-1.309-.924-1.943-1.4l.238-.317c.63.474,1.279.942,1.93,1.392Zm69.476-1.4-.238-.317c.628-.473,1.258-.966,1.87-1.467l.251.307c-.617.5-1.25,1-1.883,1.476Zm-73.3-1.476c-.615-.5-1.229-1.025-1.824-1.552l.263-.3c.591.524,1.2,1.042,1.812,1.542Zm77.009-1.551-.263-.3c.591-.523,1.179-1.066,1.748-1.612l.274.286c-.573.55-1.165,1.1-1.759,1.623Zm-80.593-1.624c-.572-.549-1.141-1.119-1.693-1.692l.286-.275c.548.57,1.114,1.136,1.682,1.681Zm84.046-1.691-.286-.275c.546-.568,1.089-1.156,1.614-1.747l.3.263C596.455,244.582,595.909,245.174,595.359,245.746ZM508,243.986c-.528-.6-1.051-1.209-1.552-1.822l.307-.251c.5.609,1.017,1.218,1.542,1.809Zm90.541-1.822-.307-.251c.5-.612,1-1.242,1.469-1.872l.317.238c-.477.634-.975,1.268-1.479,1.884Zm-93.57-1.881c-.478-.634-.949-1.286-1.4-1.939l.326-.226c.449.648.917,1.3,1.391,1.926Zm96.452-1.946-.326-.225c.45-.651.893-1.319,1.315-1.985l.335.212C602.317,237.01,601.872,237.682,601.418,238.337Zm-99.173-1.987c-.425-.67-.842-1.357-1.24-2.044l.343-.2c.4.682.81,1.365,1.231,2.03Zm101.74-2.061-.343-.2c.4-.686.784-1.387,1.151-2.085l.351.185C604.774,232.893,604.384,233.6,603.985,234.29Zm-104.135-2.075c-.369-.7-.729-1.42-1.071-2.136l.358-.17c.339.711.7,1.425,1.063,2.122Zm106.368-2.169-.358-.17c.339-.714.669-1.445.979-2.172l.365.156c-.313.733-.644,1.468-.986,2.187ZM497.8,227.9c-.312-.73-.613-1.475-.894-2.214l.37-.141c.279.734.578,1.474.888,2.2Zm110.3-2.27-.371-.141c.281-.741.55-1.5.8-2.246l.376.125c-.251.754-.523,1.515-.805,2.261Zm-112-2.2c-.252-.753-.493-1.522-.714-2.285l.381-.11c.22.758.458,1.521.709,2.27Zm113.522-2.349-.381-.11c.219-.756.425-1.529.614-2.3l.385.094c-.19.773-.4,1.552-.618,2.313Zm-114.856-2.248c-.19-.772-.367-1.557-.526-2.335l.388-.079c.158.773.334,1.553.523,2.32Zm116-2.4-.389-.079c.157-.772.3-1.559.426-2.339l.391.063c-.127.785-.271,1.578-.429,2.355ZM493.8,214.146c-.127-.783-.24-1.58-.336-2.37l.393-.048c.1.785.208,1.577.334,2.354ZM611.52,211.71l-.394-.047c.094-.785.174-1.581.236-2.366l.4.031c-.063.791-.143,1.592-.238,2.382Zm-118.293-2.315c-.064-.792-.113-1.6-.145-2.39l.4-.016c.032.789.081,1.587.144,2.374ZM611.9,206.939l-.4-.016c.031-.79.047-1.59.047-2.378v-.131h.4v.13c0,.794-.016,1.6-.047,2.394Zm-118.472-2.328h-.4v-.067c0-.773.015-1.556.045-2.327l.4.015c-.029.765-.044,1.543-.044,2.312Zm118.07-2.574c-.033-.787-.082-1.586-.146-2.374l.4-.032c.065.793.114,1.6.147,2.39Zm-117.887-2.178-.4-.031c.062-.794.141-1.6.235-2.382l.394.047C493.753,198.275,493.674,199.071,493.612,199.859Zm117.5-2.562c-.1-.782-.209-1.574-.336-2.354l.391-.064c.128.785.242,1.583.338,2.37Zm-116.937-2.16-.391-.063c.126-.785.269-1.578.426-2.356l.388.078C494.441,193.571,494.3,194.358,494.174,195.138Zm116.17-2.533c-.159-.775-.336-1.555-.525-2.319l.385-.1c.191.77.369,1.555.529,2.335Zm-115.229-2.128-.385-.094c.189-.771.4-1.55.615-2.314l.381.11C495.508,188.937,495.3,189.711,495.115,190.477ZM609.2,187.99c-.221-.757-.46-1.521-.711-2.269l.376-.126c.253.754.494,1.522.716,2.284Zm-112.77-2.083-.376-.125c.251-.755.521-1.516.8-2.262l.371.14C496.947,184.4,496.679,185.157,496.43,185.907Zm111.255-2.425c-.282-.737-.581-1.477-.891-2.2l.364-.156c.311.726.613,1.47.9,2.213Zm-109.569-2.035-.365-.155c.312-.732.642-1.469.984-2.188l.358.17C498.754,179.989,498.425,180.72,498.116,181.448Zm107.7-2.324c-.339-.711-.7-1.424-1.065-2.12l.35-.185c.37.7.731,1.419,1.073,2.135Zm-105.658-1.981-.351-.184c.369-.7.759-1.411,1.157-2.1l.343.2C500.911,175.741,500.524,176.443,500.157,177.143ZM603.6,174.927c-.4-.682-.811-1.365-1.234-2.029l.334-.213c.425.669.843,1.356,1.242,2.043Zm-101.061-1.908-.335-.212c.425-.672.87-1.345,1.322-2l.326.225C503.4,171.683,502.96,172.351,502.538,173.019Zm98.513-2.1c-.45-.648-.918-1.3-1.393-1.925l.316-.239c.478.633.95,1.285,1.4,1.938ZM505.242,169.1l-.317-.238c.478-.636.975-1.27,1.477-1.886l.307.251C506.21,167.84,505.716,168.47,505.242,169.1Zm92.946-1.975c-.5-.61-1.019-1.218-1.544-1.808l.3-.263c.528.594,1.051,1.206,1.554,1.82Zm-89.938-1.711-.3-.263c.526-.595,1.072-1.187,1.623-1.761l.286.274C509.315,164.237,508.773,164.825,508.25,165.416Zm86.779-1.842c-.549-.569-1.115-1.134-1.684-1.679l.274-.286c.573.549,1.143,1.118,1.7,1.691Zm-83.487-1.59-.275-.286c.572-.55,1.163-1.1,1.758-1.625l.263.3c-.59.524-1.178,1.067-1.746,1.614Zm80.053-1.7c-.592-.524-1.2-1.042-1.814-1.54l.25-.307c.615.5,1.229,1.023,1.826,1.55Zm-76.5-1.457-.251-.307c.615-.5,1.248-1,1.881-1.478l.239.316c-.629.474-1.258.968-1.868,1.468Zm72.811-1.549c-.632-.475-1.282-.942-1.932-1.39l.225-.326c.654.451,1.308.922,1.945,1.4Zm-69.017-1.312-.226-.326c.653-.453,1.324-.9,1.992-1.322l.213.335C520.206,155.074,519.54,155.516,518.891,155.966Zm65.1-1.39c-.668-.422-1.354-.836-2.038-1.231l.2-.343c.689.4,1.379.814,2.052,1.239ZM522.9,153.42l-.2-.343c.685-.4,1.389-.787,2.091-1.157l.185.351c-.7.368-1.4.755-2.077,1.15Zm56.964-1.223c-.7-.367-1.417-.724-2.132-1.063l.17-.358c.72.341,1.442.7,2.146,1.07Zm-52.766-.991-.171-.358c.715-.341,1.447-.672,2.176-.984l.156.364c-.724.31-1.452.639-2.161.978Zm48.46-1.048c-.728-.309-1.473-.608-2.213-.887l.14-.371c.745.281,1.494.582,2.227.893Zm-44.1-.82-.141-.37c.742-.283,1.5-.554,2.254-.807l.126.376c-.749.251-1.5.521-2.239.8Zm39.64-.864c-.749-.248-1.513-.485-2.272-.7l.11-.381c.764.219,1.533.457,2.287.707Zm-35.132-.648-.111-.381c.762-.222,1.54-.431,2.312-.622l.1.385c-.767.19-1.539.4-2.3.618Zm30.561-.664c-.765-.187-1.546-.36-2.321-.516l.078-.389c.78.157,1.566.332,2.337.52Zm-25.945-.477-.08-.388c.777-.159,1.569-.3,2.355-.433l.064.391C542.14,146.383,541.354,146.527,540.582,146.685Zm21.284-.461c-.78-.124-1.572-.234-2.355-.327l.047-.394c.789.093,1.586.2,2.371.329Zm-16.591-.3-.048-.393c.789-.1,1.59-.177,2.382-.242l.032.4C546.854,145.744,546.058,145.825,545.275,145.92Zm11.869-.256c-.786-.061-1.585-.108-2.374-.137l.015-.4c.795.03,1.6.077,2.39.138Zm-7.129-.13-.016-.4c.793-.033,1.6-.05,2.393-.051v.4C551.6,145.485,550.8,145.5,550.014,145.535Z" transform="translate(-419.351 -140.458)" fill="#ccc"/>
  <circle id="Ellipse_2" data-name="Ellipse 2" cx="38.251" cy="38.251" r="38.251" transform="translate(73.892 24.691)" fill="#3f3d56"/>
  <ellipse id="Ellipse_3" data-name="Ellipse 3" cx="20.315" cy="27.945" rx="20.315" ry="27.945" transform="translate(78.253 34.997)" fill="#fff"/>
  <ellipse id="Ellipse_4" data-name="Ellipse 4" cx="5.67" cy="8.919" rx="5.67" ry="8.919" transform="translate(86.164 59.944)" fill="#3f3d56"/>
  <circle id="Ellipse_5" data-name="Ellipse 5" cx="3.766" cy="3.766" r="3.766" transform="translate(183.53 37.815)" fill="#5eab6c"/>
  <circle id="Ellipse_6" data-name="Ellipse 6" cx="5.549" cy="5.549" r="5.549" transform="translate(138.248 0)" fill="#5eab6c"/>
  <circle id="Ellipse_7" data-name="Ellipse 7" cx="3.766" cy="3.766" r="3.766" transform="translate(136.356 119.154)" fill="#5eab6c"/>
</svg>
