<svg width="192" height="136" viewBox="0 0 192 136" fill="none" xmlns="http://www.w3.org/2000/svg">
<path d="M0 3C0 1.34315 1.34315 0 3 0H148C149.657 0 151 1.34315 151 3V9H0V3Z" fill="white"/>
<path d="M0 8.5H151V100.5C151 102.157 149.657 103.5 148 103.5H3C1.34314 103.5 0 102.157 0 100.5V8.5Z" fill="#FCFCFC" fill-opacity="0.5"/>
<path d="M184.5 99C184.5 119.158 168.158 135.5 148 135.5C127.842 135.5 111.5 119.158 111.5 99C111.5 78.8416 127.842 62.5 148 62.5C168.158 62.5 184.5 78.8416 184.5 99Z" fill="#F9F9F9"/>
<path d="M191.086 44.335C188.438 53.5231 180.704 59.9548 172.637 65.4185C171.511 66.1815 170.384 66.927 169.257 67.655C169.25 67.6583 169.242 67.6654 169.234 67.6688C169.18 67.7037 169.125 67.7386 169.075 67.7736C168.842 67.9236 168.61 68.0736 168.379 68.2218L168.506 68.2788C168.506 68.2788 168.63 68.3449 168.494 68.2894C168.453 68.2724 168.411 68.2572 168.371 68.2402C163.684 66.3501 158.915 64.3207 155.323 60.78C151.598 57.1032 149.421 51.3363 151.438 46.506C151.703 45.8733 152.038 45.2721 152.436 44.7137C152.6 44.4795 152.776 44.2554 152.96 44.0354C154.073 42.6773 155.527 41.6401 157.174 41.0304C158.82 40.4207 160.599 40.2606 162.328 40.5665C164.057 40.8724 165.673 41.6332 167.011 42.7708C168.348 43.9084 169.358 45.3817 169.938 47.0392C170.53 41.5212 165.98 36.899 161.602 33.4885C157.221 30.0797 152.243 26.3675 151.396 20.8801C150.923 17.827 151.985 14.8682 153.919 12.4931C153.979 12.4209 154.039 12.3488 154.1 12.2786C156.455 9.51222 159.766 7.7358 163.373 7.30418C170.09 6.60606 176.615 10.1616 181.495 14.832C189.349 22.3463 194.097 33.8882 191.086 44.335Z" fill="#DCDCDC"/>
<path d="M178.46 32.3171C179.749 34.3228 180.739 36.5058 181.398 38.7972C181.955 40.8452 182.204 42.965 182.134 45.0864C182.013 49.4468 180.672 53.7078 178.561 57.5028C176.928 60.3804 174.937 63.04 172.637 65.4185C171.511 66.1815 170.384 66.927 169.257 67.6549C169.249 67.6582 169.242 67.6654 169.234 67.6688C169.18 67.7036 169.125 67.7385 169.075 67.7736C168.842 67.9235 168.609 68.0736 168.379 68.2218C168.379 68.2218 168.63 68.3449 168.494 68.2893C168.453 68.2724 168.411 68.2572 168.37 68.2401C168.79 64.7965 168.379 61.3024 167.17 58.0506C165.962 54.7988 163.992 51.884 161.425 49.5505C158.852 47.2525 155.772 45.5952 152.436 44.7136C152.6 44.4795 152.776 44.2554 152.96 44.0354C154.248 44.3966 155.502 44.8711 156.706 45.4531C161.012 47.521 164.538 50.9204 166.762 55.1482C168.758 58.9871 169.617 63.3158 169.238 67.6258C169.43 67.4513 169.623 67.273 169.81 67.0965C173.371 63.7764 176.534 59.9655 178.675 55.5674C180.532 51.8428 181.445 47.7187 181.333 43.5584C181.158 39.022 179.35 34.8201 176.734 31.1621C173.93 27.2472 170.416 23.7835 166.663 20.7829C162.819 17.7041 158.612 15.1071 154.137 13.0501C154.036 13.003 153.957 12.9189 153.917 12.8152C153.876 12.7115 153.877 12.5962 153.919 12.493C153.949 12.4004 154.014 12.3234 154.1 12.2786C154.145 12.2594 154.193 12.2506 154.241 12.2526C154.289 12.2547 154.337 12.2676 154.379 12.2904C154.932 12.5448 155.481 12.8026 156.025 13.0716C160.558 15.3122 164.795 18.1073 168.639 21.3927C172.352 24.5583 175.848 28.1751 178.46 32.3171Z" fill="#E8E8E8"/>
<path d="M147.863 96.9445C153.288 96.9445 157.686 92.5464 157.686 87.1211C157.686 81.6957 153.288 77.2976 147.863 77.2976C142.437 77.2976 138.039 81.6957 138.039 87.1211C138.039 92.5464 142.437 96.9445 147.863 96.9445Z" fill="#2F2E41"/>
<path d="M140.195 81.8246C141.782 80.2372 142.104 77.9852 140.914 76.7946C139.723 75.604 137.471 75.9257 135.884 77.5132C134.296 79.1006 133.974 81.3526 135.165 82.5432C136.356 83.7338 138.608 83.412 140.195 81.8246Z" fill="#2F2E41"/>
<path d="M158.102 78.7051C158.763 77.1567 157.626 75.1866 155.561 74.3047C153.497 73.4228 151.287 73.9631 150.625 75.5115C149.964 77.0599 151.101 79.03 153.166 79.9118C155.23 80.7937 157.44 80.2534 158.102 78.7051Z" fill="#2F2E41"/>
<path d="M168.667 129.3C166.979 130.472 165.196 131.501 163.335 132.374L163.06 131.888L160.427 127.267L160.197 126.861L158.85 124.498L158.847 124.495L154.595 117.024L152.409 113.189L158.9 108.637L161.424 113.975L162.793 116.874L168.428 128.791L168.667 129.3Z" fill="#A0616A"/>
<path d="M162.867 111.275L162.053 110.001L158.454 104.355C157.963 103.258 157.057 102.4 155.934 101.97C154.812 101.54 153.565 101.572 152.466 102.06C151.367 102.547 150.507 103.451 150.073 104.571C149.639 105.692 149.666 106.94 150.15 108.04L152.375 115.966C152.438 116.19 152.548 116.399 152.698 116.577C152.847 116.755 153.034 116.899 153.244 117C153.454 117.1 153.683 117.154 153.916 117.158C154.149 117.162 154.38 117.117 154.594 117.024C154.602 117.022 154.608 117.019 154.616 117.016L161.423 113.975L162.156 113.647C162.37 113.551 162.561 113.409 162.716 113.233C162.871 113.056 162.986 112.848 163.053 112.624C163.12 112.399 163.139 112.162 163.107 111.929C163.075 111.697 162.993 111.474 162.867 111.275H162.867Z" fill="#5EAB6C"/>
<path d="M143.31 111.453L141.416 115.73L141.005 116.66L133.993 132.502L133.768 133.01C131.869 132.218 130.04 131.267 128.302 130.166L128.491 129.633L134.215 113.483L135.62 109.517L138.697 110.292L143.31 111.453Z" fill="#A0616A"/>
<path d="M155.49 93.4652C157.699 89.4251 156.214 84.3595 152.174 82.1509C148.133 79.9423 143.068 81.4272 140.859 85.4673C138.651 89.5075 140.136 94.5731 144.176 96.7817C148.216 98.9902 153.282 97.5054 155.49 93.4652Z" fill="#A0616A"/>
<path d="M162.707 113.244C162.586 112.146 162.368 111.06 162.054 110.001C161.109 106.81 159.301 103.942 156.83 101.713C155.922 100.898 154.745 100.448 153.525 100.45H141.78C140.936 100.447 140.106 100.662 139.368 101.072C138.63 101.482 138.01 102.074 137.566 102.792C137.122 103.51 136.87 104.33 136.833 105.173C136.797 106.017 136.977 106.855 137.356 107.609L138.698 110.292L141.416 115.73L142.069 117.032L144.977 122.851L145.207 123.312L159.968 127.372L160.032 127.23C160.088 127.105 160.143 126.983 160.196 126.861C160.277 126.675 160.357 126.494 160.432 126.311C161.921 122.781 162.623 119.64 162.793 116.874C162.869 115.664 162.84 114.45 162.707 113.244Z" fill="#5EAB6C"/>
<path d="M143.91 101.972C142.824 101.463 141.58 101.405 140.451 101.811C139.322 102.217 138.4 103.053 137.886 104.138L136.839 105.718L133.34 111C133.21 111.196 133.124 111.418 133.088 111.65C133.051 111.883 133.065 112.12 133.129 112.346C133.192 112.573 133.304 112.783 133.456 112.962C133.608 113.142 133.797 113.286 134.009 113.386L134.215 113.483L141.005 116.66L141.488 116.885C141.671 116.971 141.868 117.021 142.069 117.032C142.337 117.054 142.607 117.007 142.852 116.896C143.066 116.8 143.257 116.66 143.412 116.483C143.567 116.307 143.682 116.099 143.749 115.874L146.099 108.012C146.608 106.921 146.664 105.672 146.254 104.539C145.844 103.407 145.001 102.483 143.91 101.972Z" fill="#5EAB6C"/>
<path d="M160.433 126.311C160.383 126.138 160.303 125.976 160.197 125.831C159.817 125.322 159.363 124.872 158.85 124.498L158.847 124.495C157.061 123.142 153.506 121.562 146.649 121.521H146.638C146.324 121.52 146.016 121.61 145.752 121.78C145.487 121.95 145.277 122.193 145.147 122.479L144.977 122.851L143.886 125.25C143.793 125.457 143.647 125.634 143.461 125.764C142.475 126.461 139.337 128.988 137.715 133.815C137.657 133.988 137.601 134.162 137.548 134.343C144.483 136.369 151.861 136.302 158.758 134.151L158.911 133.521L160.427 127.267L160.452 127.164C160.521 126.883 160.514 126.589 160.433 126.311Z" fill="#2F2E41"/>
<path d="M139.414 84.2223C141.319 85.5354 143.58 86.2342 145.894 86.2249C145.068 86.7972 144.129 87.1838 143.14 87.358C146.216 88.0179 149.395 88.0358 152.479 87.4105C153.164 87.3006 153.826 87.0734 154.434 86.739C154.737 86.5697 155.001 86.3385 155.209 86.0604C155.417 85.7824 155.564 85.4637 155.641 85.125C155.846 83.9545 154.934 82.891 153.986 82.1742C152.535 81.0936 150.861 80.3491 149.087 79.9945C147.312 79.6399 145.482 79.6842 143.726 80.1241C142.58 80.4203 141.432 80.9209 140.688 81.8412C139.943 82.7616 139.723 84.1805 140.432 85.1282L139.414 84.2223Z" fill="#2F2E41"/>
<path d="M150.916 8.46484H0.302002V9.06851H150.916V8.46484Z" fill="#3F3D56"/>
<path d="M5.43306 6.33999C6.43323 6.33999 7.24404 5.52918 7.24404 4.529C7.24404 3.52882 6.43323 2.71802 5.43306 2.71802C4.43288 2.71802 3.62207 3.52882 3.62207 4.529C3.62207 5.52918 4.43288 6.33999 5.43306 6.33999Z" fill="#3F3D56"/>
<path d="M10.6394 6.33999C11.6395 6.33999 12.4503 5.52918 12.4503 4.529C12.4503 3.52882 11.6395 2.71802 10.6394 2.71802C9.63917 2.71802 8.82837 3.52882 8.82837 4.529C8.82837 5.52918 9.63917 6.33999 10.6394 6.33999Z" fill="#3F3D56"/>
<path d="M15.8454 6.33999C16.8456 6.33999 17.6564 5.52918 17.6564 4.529C17.6564 3.52882 16.8456 2.71802 15.8454 2.71802C14.8452 2.71802 14.0344 3.52882 14.0344 4.529C14.0344 5.52918 14.8452 6.33999 15.8454 6.33999Z" fill="#3F3D56"/>
<path d="M118.297 43.4975H32.814C32.5596 43.4975 32.3077 43.4474 32.0726 43.35C31.8376 43.2527 31.624 43.11 31.4441 42.9301C31.2642 42.7502 31.1215 42.5366 31.0242 42.3016C30.9268 42.0665 30.8767 41.8146 30.8767 41.5602C30.8767 41.3058 30.9268 41.0539 31.0242 40.8188C31.1215 40.5838 31.2642 40.3702 31.4441 40.1903C31.624 40.0104 31.8376 39.8677 32.0726 39.7704C32.3077 39.673 32.5596 39.6229 32.814 39.6229H118.297C118.551 39.6229 118.803 39.673 119.038 39.7704C119.273 39.8677 119.487 40.0104 119.667 40.1903C119.847 40.3702 119.989 40.5838 120.087 40.8188C120.184 41.0539 120.234 41.3058 120.234 41.5602C120.234 41.8146 120.184 42.0665 120.087 42.3016C119.989 42.5366 119.847 42.7502 119.667 42.9301C119.487 43.11 119.273 43.2527 119.038 43.35C118.803 43.4474 118.551 43.4975 118.297 43.4975Z" fill="#CCCCCC"/>
<path d="M118.297 64.3234H32.814C32.5596 64.3234 32.3077 64.2733 32.0726 64.176C31.8376 64.0786 31.624 63.9359 31.4441 63.756C31.2642 63.5761 31.1215 63.3625 31.0242 63.1275C30.9268 62.8925 30.8767 62.6406 30.8767 62.3861C30.8767 62.1317 30.9268 61.8798 31.0242 61.6448C31.1215 61.4097 31.2642 61.1962 31.4441 61.0163C31.624 60.8364 31.8376 60.6937 32.0726 60.5963C32.3077 60.499 32.5596 60.4489 32.814 60.4489H118.297C118.551 60.4489 118.803 60.499 119.038 60.5963C119.273 60.6937 119.487 60.8364 119.667 61.0163C119.847 61.1962 119.989 61.4097 120.087 61.6448C120.184 61.8798 120.234 62.1317 120.234 62.3861C120.234 62.6406 120.184 62.8925 120.087 63.1275C119.989 63.3625 119.847 63.5761 119.667 63.756C119.487 63.9359 119.273 64.0786 119.038 64.176C118.803 64.2733 118.551 64.3234 118.297 64.3234Z" fill="#E6E6E6"/>
<path d="M118.297 72.3146H32.814C32.3002 72.3146 31.8074 72.1105 31.4441 71.7472C31.0808 71.3839 30.8767 70.8912 30.8767 70.3774C30.8767 69.8636 31.0808 69.3708 31.4441 69.0075C31.8074 68.6442 32.3002 68.4401 32.814 68.4401H118.297C118.811 68.4401 119.303 68.6442 119.667 69.0075C120.03 69.3708 120.234 69.8636 120.234 70.3774C120.234 70.8912 120.03 71.3839 119.667 71.7472C119.303 72.1105 118.811 72.3146 118.297 72.3146Z" fill="#E6E6E6"/>
<path d="M104.372 35.2641H46.7376C46.2238 35.2641 45.731 35.06 45.3677 34.6967C45.0044 34.3334 44.8003 33.8406 44.8003 33.3268C44.8003 32.813 45.0044 32.3203 45.3677 31.9569C45.731 31.5936 46.2238 31.3895 46.7376 31.3895H104.372C104.886 31.3895 105.378 31.5936 105.742 31.9569C106.105 32.3203 106.309 32.813 106.309 33.3268C106.309 33.8406 106.105 34.3334 105.742 34.6967C105.378 35.06 104.886 35.2641 104.372 35.2641Z" fill="#CCCCCC"/>
<path d="M62.9503 56.3321H32.9223C32.6677 56.3324 32.4155 56.2825 32.1802 56.1853C31.9449 56.0881 31.7311 55.9454 31.5509 55.7655C31.3708 55.5856 31.2279 55.3719 31.1304 55.1367C31.0329 54.9015 30.9827 54.6494 30.9827 54.3948C30.9827 54.1402 31.0329 53.8881 31.1304 53.6529C31.2279 53.4177 31.3708 53.204 31.5509 53.0241C31.7311 52.8442 31.9449 52.7015 32.1802 52.6043C32.4155 52.5071 32.6677 52.4572 32.9223 52.4575H62.9503C63.4641 52.4575 63.9568 52.6616 64.3201 53.0249C64.6834 53.3883 64.8876 53.881 64.8876 54.3948C64.8876 54.9086 64.6834 55.4014 64.3201 55.7647C63.9568 56.128 63.4641 56.3321 62.9503 56.3321Z" fill="#E6E6E6"/>
<path d="M118.405 56.3321H88.3771C88.1225 56.3324 87.8703 56.2825 87.635 56.1853C87.3997 56.0881 87.1859 55.9454 87.0057 55.7655C86.8256 55.5856 86.6827 55.3719 86.5852 55.1367C86.4877 54.9015 86.4375 54.6494 86.4375 54.3948C86.4375 54.1402 86.4877 53.8881 86.5852 53.6529C86.6827 53.4177 86.8256 53.204 87.0057 53.0241C87.1859 52.8442 87.3997 52.7015 87.635 52.6043C87.8703 52.5071 88.1225 52.4572 88.3771 52.4575H118.405C118.66 52.4572 118.912 52.5071 119.147 52.6043C119.382 52.7015 119.596 52.8442 119.776 53.0241C119.957 53.204 120.1 53.4177 120.197 53.6529C120.295 53.8881 120.345 54.1402 120.345 54.3948C120.345 54.6494 120.295 54.9015 120.197 55.1367C120.1 55.3719 119.957 55.5856 119.776 55.7655C119.596 55.9454 119.382 56.0881 119.147 56.1853C118.912 56.2825 118.66 56.3324 118.405 56.3321Z" fill="#E6E6E6"/>
<path d="M149.104 0H2.11072C1.55071 0.000851962 1.01391 0.223883 0.618181 0.620131C0.22245 1.01638 0.000122955 1.55346 0 2.11347V101.719C0.000705511 102.278 0.22331 102.815 0.618995 103.211C1.01468 103.606 1.55114 103.829 2.11072 103.83H112.031C112.003 103.63 111.981 103.427 111.958 103.227H2.11072C1.71087 103.227 1.3275 103.068 1.04476 102.785C0.762016 102.502 0.603005 102.119 0.602638 101.719V2.11347C0.602898 1.71333 0.761785 1.32962 1.04447 1.04642C1.32716 0.763222 1.71058 0.603643 2.11072 0.602659H149.104C149.505 0.603077 149.889 0.762385 150.172 1.04563C150.455 1.32887 150.614 1.71291 150.615 2.11347V63.1598C150.815 63.1737 151.018 63.1903 151.218 63.2098V2.11347C151.217 1.55302 150.994 1.01559 150.598 0.6193C150.202 0.223006 149.664 0.000257564 149.104 0Z" fill="#3F3D56"/>
<path d="M112.031 103.83C112.003 103.63 111.981 103.427 111.959 103.227C111.953 103.196 111.951 103.169 111.948 103.138C111.867 102.408 111.809 101.67 111.773 100.925C111.62 101.566 111.482 102.21 111.359 102.858C111.367 102.952 111.376 103.044 111.387 103.138C111.39 103.169 111.392 103.196 111.398 103.227C111.42 103.427 111.442 103.63 111.47 103.83C111.548 104.449 111.642 105.06 111.753 105.668C111.756 105.643 111.759 105.621 111.762 105.596C111.84 105.01 111.928 104.427 112.034 103.844C112.032 103.839 112.031 103.834 112.031 103.83ZM151.218 62.6516C151.018 62.6322 150.815 62.6155 150.615 62.6016C150.585 62.5988 150.557 62.5988 150.526 62.5961C149.638 62.5294 148.738 62.4961 147.832 62.4961C142.706 62.4977 137.638 63.5739 132.953 65.6554C128.269 67.7368 124.073 70.7772 120.636 74.5804C117.199 78.3836 114.598 82.865 113 87.7356C111.402 92.6062 110.843 97.7576 111.359 102.858C111.367 102.952 111.376 103.044 111.387 103.138C111.39 103.169 111.392 103.196 111.398 103.227C111.42 103.427 111.442 103.63 111.47 103.83C111.548 104.449 111.642 105.06 111.753 105.668C112.857 111.698 115.448 117.357 119.293 122.132C123.137 126.906 128.113 130.645 133.768 133.01C134.346 133.249 134.929 133.477 135.521 133.685C135.91 133.826 136.299 133.957 136.693 134.082C136.976 134.174 137.262 134.26 137.548 134.343C137.954 134.462 138.365 134.576 138.779 134.682C143.855 135.984 149.152 136.178 154.31 135.249C159.467 134.32 164.364 132.291 168.667 129.3H168.67C173.55 125.93 177.539 121.427 180.294 116.177C183.05 110.926 184.491 105.085 184.492 99.1555C184.492 80.0815 169.85 64.3652 151.218 62.6516ZM168.428 128.791C166.731 129.976 164.935 131.012 163.06 131.888C161.712 132.519 160.327 133.064 158.911 133.521C152.522 135.577 145.687 135.814 139.17 134.207C138.681 134.088 138.196 133.957 137.715 133.815C137.24 133.677 136.77 133.529 136.304 133.374C135.924 133.243 135.543 133.11 135.165 132.968C134.771 132.818 134.382 132.663 133.993 132.502C128.145 130.065 123.039 126.135 119.186 121.106C115.332 116.077 112.866 110.124 112.034 103.844C112.032 103.839 112.031 103.834 112.031 103.83C112.003 103.63 111.981 103.427 111.959 103.227C111.953 103.196 111.951 103.169 111.948 103.138C111.867 102.408 111.809 101.67 111.773 100.925C111.742 100.339 111.727 99.7489 111.728 99.1555C111.739 89.5834 115.546 80.4063 122.315 73.6377C129.083 66.8692 138.26 63.062 147.832 63.0515C148.738 63.0515 149.638 63.0849 150.526 63.1515C150.557 63.1543 150.585 63.1571 150.615 63.1598C150.815 63.1737 151.018 63.1904 151.218 63.2098C169.545 64.9206 183.936 80.387 183.936 99.1555C183.936 104.98 182.525 110.718 179.824 115.879C177.123 121.04 173.213 125.47 168.428 128.791ZM135.165 132.968C134.771 132.818 134.382 132.663 133.993 132.502C128.145 130.065 123.039 126.135 119.186 121.106C115.332 116.077 112.866 110.124 112.034 103.844C111.928 104.427 111.84 105.01 111.762 105.596C111.759 105.621 111.756 105.643 111.753 105.668C112.857 111.698 115.448 117.357 119.293 122.132C123.137 126.906 128.113 130.645 133.769 133.01C134.346 133.249 134.929 133.477 135.521 133.685C135.399 133.449 135.279 133.21 135.165 132.968ZM150.526 62.5961C149.637 62.5294 148.738 62.4961 147.832 62.4961C142.706 62.4977 137.638 63.5739 132.953 65.6554C128.269 67.7368 124.073 70.7772 120.636 74.5804C117.199 78.3836 114.598 82.865 113 87.7356C111.402 92.6062 110.843 97.7576 111.359 102.858C111.367 102.952 111.376 103.044 111.387 103.138C111.39 103.169 111.392 103.196 111.398 103.227H111.959C111.953 103.196 111.951 103.169 111.948 103.138C111.867 102.408 111.809 101.67 111.773 100.925C111.742 100.339 111.727 99.7489 111.728 99.1555C111.739 89.5834 115.546 80.4063 122.314 73.6377C129.083 66.8692 138.26 63.062 147.832 63.0515C148.738 63.0515 149.637 63.0849 150.526 63.1515C150.557 63.1543 150.585 63.1571 150.615 63.1598V62.6016C150.585 62.5988 150.557 62.5988 150.526 62.5961H150.526Z" fill="#3F3D56"/>
<path d="M177.63 71.8793C188.89 72.0716 188.888 88.8206 177.63 89.0113C166.37 88.819 166.372 72.0699 177.63 71.8793Z" fill="#5EAB6C"/>
<path d="M177.631 85.1095C177.471 85.1093 177.318 85.0459 177.205 84.933C177.092 84.8201 177.029 84.6671 177.029 84.5075V81.3157C177.028 81.2445 177 81.1763 176.95 81.126C176.9 81.0757 176.831 81.0474 176.76 81.0473H173.568C173.409 81.0473 173.256 80.9839 173.143 80.871C173.03 80.7581 172.966 80.6049 172.966 80.4453C172.966 80.2856 173.03 80.1324 173.143 80.0195C173.256 79.9066 173.409 79.8432 173.568 79.8432H176.76C176.831 79.8431 176.9 79.8148 176.95 79.7646C177 79.7143 177.028 79.6461 177.029 79.575V76.383C177.029 76.2233 177.092 76.0702 177.205 75.9573C177.318 75.8444 177.471 75.781 177.63 75.781C177.79 75.781 177.943 75.8444 178.056 75.9573C178.169 76.0702 178.232 76.2233 178.232 76.383V79.575C178.232 79.6461 178.261 79.7143 178.311 79.7646C178.361 79.8148 178.43 79.8431 178.501 79.8432H181.693C181.852 79.8432 182.005 79.9066 182.118 80.0195C182.231 80.1324 182.295 80.2856 182.295 80.4453C182.295 80.6049 182.231 80.7581 182.118 80.871C182.005 80.9839 181.852 81.0473 181.693 81.0473H178.501C178.43 81.0474 178.361 81.0757 178.311 81.126C178.261 81.1763 178.232 81.2445 178.232 81.3157V84.5075C178.232 84.6671 178.169 84.8201 178.056 84.933C177.943 85.0458 177.79 85.1093 177.631 85.1095Z" fill="white"/>
</svg>
