<svg width="36" height="36" viewBox="0 0 36 36" fill="none" xmlns="http://www.w3.org/2000/svg">
<path fillRule="evenodd" clipRule="evenodd" d="M11.2929 17.2929C11.6834 16.9024 12.3166 16.9024 12.7071 17.2929L16 20.5858L24.2929 12.2929C24.6834 11.9024 25.3166 11.9024 25.7071 12.2929C26.0976 12.6834 26.0976 13.3166 25.7071 13.7071L16.7071 22.7071C16.3166 23.0976 15.6834 23.0976 15.2929 22.7071L11.2929 18.7071C10.9024 18.3166 10.9024 17.6834 11.2929 17.2929Z" fill="#5EAB6C"/>
<path fillRule="evenodd" clipRule="evenodd" d="M18 2C9.16344 2 2 9.16344 2 18C2 26.8366 9.16344 34 18 34C26.8366 34 34 26.8366 34 18C34 9.16344 26.8366 2 18 2ZM0 18C0 8.05887 8.05887 0 18 0C27.9411 0 36 8.05887 36 18C36 27.9411 27.9411 36 18 36C8.05887 36 0 27.9411 0 18Z" fill="#5EAB6C"/>
</svg>
