<svg width="36" height="36" viewBox="0 0 36 36" fill="none" xmlns="http://www.w3.org/2000/svg">
<path fill-rule="evenodd" clip-rule="evenodd" d="M11.2929 11.2929C11.6834 10.9024 12.3166 10.9024 12.7071 11.2929L24.7071 23.2929C25.0976 23.6834 25.0976 24.3166 24.7071 24.7071C24.3166 25.0976 23.6834 25.0976 23.2929 24.7071L11.2929 12.7071C10.9024 12.3166 10.9024 11.6834 11.2929 11.2929Z" fill="#C13733"/>
<path fill-rule="evenodd" clip-rule="evenodd" d="M11.2929 24.7071C10.9024 24.3166 10.9024 23.6834 11.2929 23.2929L23.2929 11.2929C23.6834 10.9024 24.3166 10.9024 24.7071 11.2929C25.0976 11.6834 25.0976 12.3166 24.7071 12.7071L12.7071 24.7071C12.3166 25.0976 11.6834 25.0976 11.2929 24.7071Z" fill="#C13733"/>
<path fill-rule="evenodd" clip-rule="evenodd" d="M18 2C9.16344 2 2 9.16344 2 18C2 26.8366 9.16344 34 18 34C26.8366 34 34 26.8366 34 18C34 9.16344 26.8366 2 18 2ZM0 18C0 8.05887 8.05887 0 18 0C27.9411 0 36 8.05887 36 18C36 27.9411 27.9411 36 18 36C8.05887 36 0 27.9411 0 18Z" fill="#C13733"/>
</svg>
