<svg width="36" height="36" viewBox="0 0 36 36" fill="none" xmlns="http://www.w3.org/2000/svg">
<path fillRule="evenodd" clipRule="evenodd" d="M4 18C4 16.3431 5.34315 15 7 15H29C30.6569 15 32 16.3431 32 18V33C32 34.6569 30.6569 36 29 36H7C5.34315 36 4 34.6569 4 33V18ZM7 17C6.44772 17 6 17.4477 6 18V33C6 33.5523 6.44772 34 7 34H29C29.5523 34 30 33.5523 30 33V18C30 17.4477 29.5523 17 29 17H7Z" fill="#C13733"/>
<path fillRule="evenodd" clipRule="evenodd" d="M26 17C25.4477 17 25 16.5523 25 16L25 8.28572C25 7.47396 24.8246 6.66754 24.4808 5.91161C24.1368 5.15535 23.6297 4.4618 22.9835 3.87328C22.3371 3.2846 21.5648 2.81325 20.7085 2.49024C19.8522 2.1672 18.9316 2 18 2C17.0684 2 16.1478 2.1672 15.2915 2.49024C14.4352 2.81325 13.6629 3.2846 13.0165 3.87328C12.3703 4.4618 11.8632 5.15535 11.5192 5.91161C11.1754 6.66754 11 7.47396 11 8.28571L11 9.00001C11 9.55229 10.5523 10 10 10C9.44771 10 9 9.55229 9 9.00001L9 8.28571C9 7.18393 9.23843 6.09553 9.69869 5.08358C10.1588 4.07195 10.8303 3.15916 11.6698 2.3946C12.5092 1.6302 13.5006 1.02822 14.5856 0.618953C15.6705 0.209708 16.8304 1.0183e-06 18 1.12054e-06C19.1696 1.22279e-06 20.3296 0.209709 21.4144 0.618953C22.4994 1.02822 23.4908 1.6302 24.3302 2.3946C25.1697 3.15917 25.8412 4.07195 26.3013 5.08358C26.7616 6.09553 27 7.18393 27 8.28572L27 16C27 16.5523 26.5523 17 26 17Z" fill="#C13733"/>
<path fillRule="evenodd" clipRule="evenodd" d="M18 22C18.5523 22 19 22.4477 19 23V28C19 28.5523 18.5523 29 18 29C17.4477 29 17 28.5523 17 28V23C17 22.4477 17.4477 22 18 22Z" fill="#C13733"/>
<path fillRule="evenodd" clipRule="evenodd" d="M16 24C16 22.8954 16.8954 22 18 22C19.1046 22 20 22.8954 20 24C20 25.1046 19.1046 26 18 26C16.8954 26 16 25.1046 16 24Z" fill="#C13733"/>
</svg>
