<svg width="36" height="36" viewBox="0 0 36 36" fill="none" xmlns="http://www.w3.org/2000/svg">
<path fillRule="evenodd" clipRule="evenodd" d="M18 34C9.16344 34 2 26.8366 2 18C2 9.16344 9.16344 2 18 2C26.8366 2 34 9.16344 34 18C34 26.8366 26.8366 34 18 34ZM0 18C0 27.9411 8.05887 36 18 36C27.9411 36 36 27.9411 36 18C36 8.05887 27.9411 0 18 0C8.05887 0 0 8.05887 0 18Z" fill="#C13733"/>
<path fillRule="evenodd" clipRule="evenodd" d="M13.75 12.75C13.1977 12.75 12.75 13.1977 12.75 13.75L12.75 22.25C12.75 22.8023 13.1977 23.25 13.75 23.25C14.3023 23.25 14.75 22.8023 14.75 22.25L14.75 13.75C14.75 13.1977 14.3023 12.75 13.75 12.75Z" fill="#C13733"/>
<path fillRule="evenodd" clipRule="evenodd" d="M22.25 12.75C21.6977 12.75 21.25 13.1977 21.25 13.75L21.25 22.25C21.25 22.8023 21.6977 23.25 22.25 23.25C22.8023 23.25 23.25 22.8023 23.25 22.25L23.25 13.75C23.25 13.1977 22.8023 12.75 22.25 12.75Z" fill="#C13733"/>
</svg>
