<svg width="12" height="12" viewBox="0 0 12 12" fill="none" xmlns="http://www.w3.org/2000/svg">
<path d="M5.04663 0.586072C5.42709 -0.195358 6.57291 -0.195357 6.95338 0.586073L7.93936 2.61116C8.09498 2.93077 8.4096 3.14979 8.77149 3.19044L11.0655 3.44812C11.9666 3.54933 12.3242 4.63398 11.6509 5.22379L9.98943 6.6794C9.71264 6.92189 9.58845 7.28821 9.66282 7.64279L10.109 9.7703C10.2879 10.6232 9.35729 11.2895 8.57014 10.8721L6.50567 9.77732C6.19055 9.61022 5.80945 9.61022 5.49433 9.77732L3.42986 10.8721C2.64271 11.2895 1.71207 10.6232 1.89096 9.7703L2.33718 7.64278C2.41155 7.28821 2.28736 6.92189 2.01057 6.6794L0.349081 5.22379C-0.324149 4.63398 0.0334174 3.54933 0.93445 3.44812L3.22852 3.19044C3.5904 3.14979 3.90503 2.93077 4.06064 2.61116L5.04663 0.586072Z" fill="currentColor"/>
</svg>
