<svg width="12" height="12" viewBox="0 0 12 12" fill="none" xmlns="http://www.w3.org/2000/svg">
<path d="M10.9888 9.33342C10.1801 10.5437 8.95898 11.4188 7.55293 11.7956L6.60717 8.26595C7.38922 8.05562 8.0409 7.44557 8.26558 6.60707C8.60085 5.35584 7.85831 4.06974 6.60708 3.73447C5.35585 3.39921 4.06975 4.14174 3.73448 5.39297C3.39922 6.64419 4.14174 7.93029 5.39296 8.26556L4.4471 11.7956C3.04105 11.4188 1.81991 10.5437 1.0112 9.33342C0.202481 8.12309 -0.138655 6.66004 0.0513455 5.21684C0.241346 3.77365 0.949525 2.44874 2.04394 1.48896C3.13836 0.529184 4.54437 -2.15956e-07 6.00002 0C7.45566 1.68642e-07 8.86168 0.529185 9.95609 1.48896C11.0505 2.44874 11.7587 3.77365 11.9487 5.21684C12.1387 6.66004 11.7975 8.12309 10.9888 9.33342Z" fill="currentColor"/>
</svg>
