<svg width="12" height="12" viewBox="0 0 12 12" fill="none" xmlns="http://www.w3.org/2000/svg">
<path fillRule="evenodd" clipRule="evenodd" d="M0 1.03575V3.71398C0 3.98868 0.109124 4.25213 0.303365 4.44637L7.55363 11.6966C7.95811 12.1011 8.61392 12.1011 9.0184 11.6966L11.6966 9.0184C12.1011 8.61391 12.1011 7.95811 11.6966 7.55363L4.44637 0.303364C4.25213 0.109123 3.98868 0 3.71398 0H1.03575C0.463722 0 0 0.463722 0 1.03575ZM2.0715 3.10726C2.64353 3.10726 3.10726 2.64353 3.10726 2.0715C3.10726 1.49947 2.64353 1.03575 2.0715 1.03575C1.49947 1.03575 1.03575 1.49947 1.03575 2.0715C1.03575 2.64353 1.49947 3.10726 2.0715 3.10726Z" fill="currentColor"/>
</svg>
